<?xml version="1.0" encoding="UTF-8"?>
<!DOCTYPE svg PUBLIC "-//W3C//DTD SVG 1.1//EN" "http://www.w3.org/Graphics/SVG/1.1/DTD/svg11.dtd">
<svg xmlns="http://www.w3.org/2000/svg" version="1.1" width="1024px" height="1024px" style="shape-rendering:geometricPrecision; text-rendering:geometricPrecision; image-rendering:optimizeQuality; fill-rule:evenodd; clip-rule:evenodd" xmlns:xlink="http://www.w3.org/1999/xlink">
<g><path style="opacity:1" fill="#fcfbfb" d="M 193.5,692.5 C 403.5,692.5 613.5,692.5 823.5,692.5C 823.5,778.5 823.5,864.5 823.5,950.5C 613.5,950.5 403.5,950.5 193.5,950.5C 193.5,864.5 193.5,778.5 193.5,692.5 Z"/></g>
<g><path style="opacity:1" fill="#4d312b" d="M 343.5,740.5 C 343.565,740.938 343.399,741.272 343,741.5C 342.237,738.937 341.737,738.937 341.5,741.5C 344.127,745.845 344.96,750.512 344,755.5C 342.137,757.893 340.804,760.56 340,763.5C 337.973,760.779 336.473,757.779 335.5,754.5C 336.967,750.968 337.634,747.302 337.5,743.5C 336.167,743.5 334.833,743.5 333.5,743.5C 333.689,751.467 333.356,759.467 332.5,767.5C 330.712,767.215 329.045,767.548 327.5,768.5C 326.919,770.724 325.586,771.557 323.5,771C 324.833,769.333 324.833,767.667 323.5,766C 326.172,763.887 327.839,761.054 328.5,757.5C 327.844,755.547 327.511,753.547 327.5,751.5C 328.675,751.719 329.675,751.386 330.5,750.5C 327.435,746.931 323.935,743.931 320,741.5C 319.691,740.234 319.191,739.067 318.5,738C 302.167,737.333 285.833,737.333 269.5,738C 269,738.5 268.5,739 268,739.5C 268.107,749.354 267.274,759.02 265.5,768.5C 266.782,768.088 267.782,768.754 268.5,770.5C 284.995,771.332 301.662,771.832 318.5,772C 319.337,773.011 319.67,774.178 319.5,775.5C 303.568,777.23 287.568,777.896 271.5,777.5C 271.238,778.978 271.571,780.311 272.5,781.5C 274.962,780.284 277.629,779.618 280.5,779.5C 285.489,780.249 290.489,780.915 295.5,781.5C 298.7,781.399 301.7,780.732 304.5,779.5C 305.5,780.5 306.5,781.5 307.5,782.5C 295.5,783.167 283.5,783.833 271.5,784.5C 292.855,785.279 314.188,786.279 335.5,787.5C 335.238,786.022 335.571,784.689 336.5,783.5C 336.833,783.667 337.167,783.833 337.5,784C 338.92,788.841 341.586,792.841 345.5,796C 344.185,797.395 344.519,798.395 346.5,799C 344.19,799.497 341.857,799.663 339.5,799.5C 340.11,794.683 339.777,792.683 338.5,793.5C 337.5,793.5 336.5,793.5 335.5,793.5C 335.762,794.978 335.429,796.311 334.5,797.5C 331.129,795.087 327.463,793.254 323.5,792C 304.833,791.333 286.167,791.333 267.5,792C 266.833,797.667 266.167,803.333 265.5,809C 266.094,809.464 266.761,809.631 267.5,809.5C 265.786,814.362 262.286,816.696 257,816.5C 251.485,815.987 248.151,812.987 247,807.5C 246.333,780.833 246.333,754.167 247,727.5C 248.061,724.438 249.894,721.938 252.5,720C 263.073,718.855 273.74,718.355 284.5,718.5C 296.213,718.389 307.879,718.889 319.5,720C 330.76,723.099 338.76,729.932 343.5,740.5 Z"/></g>
<g><path style="opacity:1" fill="#4b302a" d="M 591.5,747.5 C 584.166,749.5 576.833,751.5 569.5,753.5C 562.214,746.776 553.547,742.609 543.5,741C 526.833,740.667 510.167,740.333 493.5,740C 485.038,732.219 485.704,725.219 495.5,719C 511.5,718.333 527.5,718.333 543.5,719C 563.862,721.661 579.862,731.161 591.5,747.5 Z"/></g>
<g><path style="opacity:1" fill="#4a2f2a" d="M 625.5,718.5 C 633.007,718.001 638.507,721.001 642,727.5C 641.289,741.445 634.455,745.612 621.5,740C 615.342,731.446 616.676,724.279 625.5,718.5 Z"/></g>
<g><path style="opacity:1" fill="#4a302a" d="M 367.5,718.5 C 372.503,718.085 376.67,719.752 380,723.5C 391.583,742.336 403.417,761.002 415.5,779.5C 428.291,760.085 440.958,740.585 453.5,721C 465.423,716.936 470.923,721.102 470,733.5C 456.062,756.434 441.728,779.1 427,801.5C 426.667,815.167 426.333,828.833 426,842.5C 422.903,849.132 417.736,851.299 410.5,849C 408.291,847.127 406.458,844.96 405,842.5C 404.667,828.833 404.333,815.167 404,801.5C 389.667,778.833 375.333,756.167 361,733.5C 360.333,730.833 360.333,728.167 361,725.5C 362.694,722.642 364.861,720.309 367.5,718.5 Z"/></g>
<g><path style="opacity:1" fill="#4a302b" d="M 343.5,740.5 C 349.206,755.203 346.539,768.369 335.5,780C 352.382,793.78 356.215,810.614 347,830.5C 340.513,840.504 331.346,846.671 319.5,849C 297.833,849.667 276.167,849.667 254.5,849C 248.939,845.71 246.773,840.877 248,834.5C 249.5,831.667 251.667,829.5 254.5,828C 275.167,827.667 295.833,827.333 316.5,827C 327.424,824.004 331.924,816.838 330,805.5C 327.428,798.794 322.595,794.794 315.5,793.5C 300.009,792.504 284.342,792.17 268.5,792.5C 268.5,797.5 268.5,802.5 268.5,807.5C 268.167,808.167 267.833,808.833 267.5,809.5C 266.761,809.631 266.094,809.464 265.5,809C 266.167,803.333 266.833,797.667 267.5,792C 286.167,791.333 304.833,791.333 323.5,792C 327.463,793.254 331.129,795.087 334.5,797.5C 335.429,796.311 335.762,794.978 335.5,793.5C 336.5,793.5 337.5,793.5 338.5,793.5C 339.777,792.683 340.11,794.683 339.5,799.5C 341.857,799.663 344.19,799.497 346.5,799C 344.519,798.395 344.185,797.395 345.5,796C 341.586,792.841 338.92,788.841 337.5,784C 337.167,783.833 336.833,783.667 336.5,783.5C 335.571,784.689 335.238,786.022 335.5,787.5C 314.188,786.279 292.855,785.279 271.5,784.5C 283.5,783.833 295.5,783.167 307.5,782.5C 306.5,781.5 305.5,780.5 304.5,779.5C 301.7,780.732 298.7,781.399 295.5,781.5C 290.489,780.915 285.489,780.249 280.5,779.5C 277.629,779.618 274.962,780.284 272.5,781.5C 271.571,780.311 271.238,778.978 271.5,777.5C 287.568,777.896 303.568,777.23 319.5,775.5C 319.67,774.178 319.337,773.011 318.5,772C 301.662,771.832 284.995,771.332 268.5,770.5C 267.782,768.754 266.782,768.088 265.5,768.5C 267.274,759.02 268.107,749.354 268,739.5C 268.5,739 269,738.5 269.5,738C 285.833,737.333 302.167,737.333 318.5,738C 319.191,739.067 319.691,740.234 320,741.5C 323.935,743.931 327.435,746.931 330.5,750.5C 329.675,751.386 328.675,751.719 327.5,751.5C 327.511,753.547 327.844,755.547 328.5,757.5C 327.839,761.054 326.172,763.887 323.5,766C 324.833,767.667 324.833,769.333 323.5,771C 325.586,771.557 326.919,770.724 327.5,768.5C 329.045,767.548 330.712,767.215 332.5,767.5C 333.356,759.467 333.689,751.467 333.5,743.5C 334.833,743.5 336.167,743.5 337.5,743.5C 337.634,747.302 336.967,750.968 335.5,754.5C 336.473,757.779 337.973,760.779 340,763.5C 340.804,760.56 342.137,757.893 344,755.5C 344.96,750.512 344.127,745.845 341.5,741.5C 341.737,738.937 342.237,738.937 343,741.5C 343.399,741.272 343.565,740.938 343.5,740.5 Z"/></g>
<g><path style="opacity:1" fill="#f9f8f8" d="M 268.5,770.5 C 268.5,760.5 268.5,750.5 268.5,740.5C 283.837,740.333 299.17,740.5 314.5,741C 325.851,746.388 328.351,754.555 322,765.5C 320.269,767.617 318.102,769.117 315.5,770C 299.837,770.5 284.17,770.667 268.5,770.5 Z"/></g>
<g><path style="opacity:1" fill="#4b302a" d="M 493.5,751.5 C 500.648,749.705 505.815,752.039 509,758.5C 509.667,786.5 509.667,814.5 509,842.5C 505.855,849.128 500.688,851.295 493.5,849C 490.865,847.039 489.031,844.539 488,841.5C 487.333,813.833 487.333,786.167 488,758.5C 489.666,756.004 491.5,753.671 493.5,751.5 Z"/></g>
<g><path style="opacity:1" fill="#4b2e2a" d="M 640.5,841.5 C 637.609,848.652 632.276,851.152 624.5,849C 622.235,847.242 620.568,845.075 619.5,842.5C 620.498,814.338 620.831,786.005 620.5,757.5C 626.833,757.5 633.167,757.5 639.5,757.5C 639.169,785.672 639.502,813.672 640.5,841.5 Z"/></g>
<g><path style="opacity:1" fill="#301d1a" d="M 640.5,756.5 C 640.5,784.833 640.5,813.167 640.5,841.5C 639.502,813.672 639.169,785.672 639.5,757.5C 633.167,757.5 626.833,757.5 620.5,757.5C 620.831,786.005 620.498,814.338 619.5,842.5C 619.5,842.167 619.5,841.833 619.5,841.5C 619.5,813.167 619.5,784.833 619.5,756.5C 626.5,756.5 633.5,756.5 640.5,756.5 Z"/></g>
<g><path style="opacity:1" fill="#f0ab5a" d="M 711.5,719.5 C 714.898,719.18 718.232,719.513 721.5,720.5C 723.167,722.5 724.833,724.5 726.5,726.5C 743.722,762.946 761.555,799.28 780,835.5C 780.556,847.159 775.056,851.659 763.5,849C 762.5,848.167 761.5,847.333 760.5,846.5C 747.386,819.938 734.053,793.605 720.5,767.5C 715.605,756.042 710.438,744.709 705,733.5C 703.15,726.871 705.316,722.204 711.5,719.5 Z"/></g>
<g><path style="opacity:1" fill="#968a86" d="M 640.5,756.5 C 633.5,756.5 626.5,756.5 619.5,756.5C 619.5,784.833 619.5,813.167 619.5,841.5C 618.502,813.005 618.169,784.338 618.5,755.5C 626.019,755.175 633.352,755.508 640.5,756.5 Z"/></g>
<g><path style="opacity:1" fill="#c8bbb6" d="M 315.5,793.5 C 300.167,793.5 284.833,793.5 269.5,793.5C 269.819,798.363 269.486,803.03 268.5,807.5C 268.5,802.5 268.5,797.5 268.5,792.5C 284.342,792.17 300.009,792.504 315.5,793.5 Z"/></g>
<g><path style="opacity:1" fill="#f0ac5c" d="M 679.5,831.5 C 676.524,834.096 674.524,837.43 673.5,841.5C 673.043,845.254 671.043,847.754 667.5,849C 655.778,851.943 650.612,847.443 652,835.5C 665.062,811.375 677.062,786.708 688,761.5C 694.762,756.025 701.262,756.358 707.5,762.5C 708.764,766.153 708.764,769.82 707.5,773.5C 700.451,789.266 692.617,804.599 684,819.5C 682.771,823.621 681.271,827.621 679.5,831.5 Z"/></g>
<g><path style="opacity:1" fill="#efa95a" d="M 591.5,747.5 C 597.732,754.976 601.566,763.643 603,773.5C 606.302,802.718 595.802,825.218 571.5,841C 561.501,846.862 550.668,849.695 539,849.5C 535.167,849.167 531.333,848.833 527.5,848.5C 518.183,841.821 518.183,834.987 527.5,828C 547.093,830.677 562.927,824.51 575,809.5C 581.103,798.259 583.103,786.259 581,773.5C 578.94,765.702 575.107,759.035 569.5,753.5C 576.833,751.5 584.166,749.5 591.5,747.5 Z"/></g>
<g><path style="opacity:1" fill="#fbe4be" d="M 679.5,831.5 C 678.476,835.57 676.476,838.904 673.5,841.5C 674.524,837.43 676.524,834.096 679.5,831.5 Z"/></g>
<g><path style="opacity:1" fill="#97847e" d="M 646.5,880.5 C 641.489,880.334 636.489,880.501 631.5,881C 633.708,881.191 635.708,881.691 637.5,882.5C 635.167,882.5 632.833,882.5 630.5,882.5C 630.5,881.5 630.5,880.5 630.5,879.5C 636.026,879.179 641.36,879.512 646.5,880.5 Z"/></g>
<g><path style="opacity:1" fill="#bda6a2" d="M 686.5,880.5 C 691.64,879.512 696.974,879.179 702.5,879.5C 702.737,880.791 702.404,881.791 701.5,882.5C 696.944,880.558 691.944,879.892 686.5,880.5 Z"/></g>
<g><path style="opacity:1" fill="#452a27" d="M 686.5,880.5 C 691.944,879.892 696.944,880.558 701.5,882.5C 699.5,882.5 697.5,882.5 695.5,882.5C 695.144,888.077 694.144,893.41 692.5,898.5C 692.5,893.167 692.5,887.833 692.5,882.5C 690.076,882.808 687.743,882.474 685.5,881.5C 685.624,880.893 685.957,880.56 686.5,880.5 Z"/></g>
<g><path style="opacity:1" fill="#a18186" d="M 262.5,880.5 C 262.5,880.167 262.5,879.833 262.5,879.5C 263.5,879.5 264.5,879.5 265.5,879.5C 265.5,884.5 265.5,889.5 265.5,894.5C 265.138,889.579 264.138,884.913 262.5,880.5 Z"/></g>
<g><path style="opacity:1" fill="#80736c" d="M 507.5,880.5 C 511.634,879.515 515.968,879.182 520.5,879.5C 520.5,880.5 520.5,881.5 520.5,882.5C 517.167,882.5 513.833,882.5 510.5,882.5C 513.305,881.681 516.305,881.181 519.5,881C 515.514,880.501 511.514,880.334 507.5,880.5 Z"/></g>
<g><path style="opacity:1" fill="#6f6561" d="M 609.5,880.5 C 610.043,880.56 610.376,880.893 610.5,881.5C 607.232,882.487 603.898,882.82 600.5,882.5C 603.5,881.833 606.5,881.167 609.5,880.5 Z"/></g>
<g><path style="opacity:1" fill="#402824" d="M 646.5,880.5 C 645.082,882.308 643.082,882.975 640.5,882.5C 639.673,887.651 639.173,892.984 639,898.5C 638.827,892.984 638.327,887.651 637.5,882.5C 635.708,881.691 633.708,881.191 631.5,881C 636.489,880.501 641.489,880.334 646.5,880.5 Z"/></g>
<g><path style="opacity:1" fill="#583430" d="M 577.5,887.5 C 577.44,886.957 577.107,886.624 576.5,886.5C 576.118,890.916 575.118,894.916 573.5,898.5C 573.5,892.5 573.5,886.5 573.5,880.5C 574.833,880.5 576.167,880.5 577.5,880.5C 578.845,885.525 581.012,890.192 584,894.5C 585.726,890.047 587.726,885.714 590,881.5C 591.356,880.62 592.856,880.286 594.5,880.5C 594.5,886.833 594.5,893.167 594.5,899.5C 593.5,899.5 592.5,899.5 591.5,899.5C 592.924,881.974 590.924,881.307 585.5,897.5C 584.311,898.429 582.978,898.762 581.5,898.5C 580.452,894.736 579.119,891.069 577.5,887.5 Z"/></g>
<g><path style="opacity:1" fill="#3c2b28" d="M 779.5,880.5 C 779.5,880.833 779.5,881.167 779.5,881.5C 776.167,881.5 772.833,881.5 769.5,881.5C 769.5,883.833 769.5,886.167 769.5,888.5C 773.012,887.945 776.012,888.612 778.5,890.5C 775.5,890.5 772.5,890.5 769.5,890.5C 769.5,892.5 769.5,894.5 769.5,896.5C 773.329,895.931 776.663,896.598 779.5,898.5C 775.5,898.5 771.5,898.5 767.5,898.5C 767.5,892.5 767.5,886.5 767.5,880.5C 771.5,880.5 775.5,880.5 779.5,880.5 Z"/></g>
<g><path style="opacity:1" fill="#e9e0dc" d="M 254.5,882.5 C 256.273,883.314 256.773,884.648 256,886.5C 254.211,888.229 252.044,888.896 249.5,888.5C 248.539,886.735 248.205,884.735 248.5,882.5C 250.5,882.5 252.5,882.5 254.5,882.5 Z"/></g>
<g><path style="opacity:1" fill="#45322e" d="M 380.5,879.5 C 390.666,879.818 394.5,884.818 392,894.5C 385.508,901.425 379.508,901.092 374,893.5C 372.709,887.087 374.876,882.42 380.5,879.5 Z"/></g>
<g><path style="opacity:1" fill="#462e2c" d="M 487.5,881.5 C 484.375,882.479 481.042,882.813 477.5,882.5C 477.5,884.5 477.5,886.5 477.5,888.5C 489.5,889.167 489.5,889.833 477.5,890.5C 477.5,892.5 477.5,894.5 477.5,896.5C 481.012,895.945 484.012,896.612 486.5,898.5C 482.833,898.5 479.167,898.5 475.5,898.5C 475.5,892.5 475.5,886.5 475.5,880.5C 479.702,880.183 483.702,880.517 487.5,881.5 Z"/></g>
<g><path style="opacity:1" fill="#473330" d="M 541.5,879.5 C 547.739,878.536 552.239,880.869 555,886.5C 554.753,897.903 549.253,901.569 538.5,897.5C 533.796,890.436 534.796,884.436 541.5,879.5 Z"/></g>
<g><path style="opacity:1" fill="#9b8a88" d="M 625.5,898.5 C 626.5,898.5 627.5,898.5 628.5,898.5C 628.829,892.463 628.496,886.463 627.5,880.5C 626.672,885.132 626.172,889.798 626,894.5C 625.283,893.956 624.783,893.289 624.5,892.5C 625.485,888.366 625.818,884.032 625.5,879.5C 626.833,879.5 628.167,879.5 629.5,879.5C 629.5,886.167 629.5,892.833 629.5,899.5C 627.901,899.768 626.568,899.434 625.5,898.5 Z"/></g>
<g><path style="opacity:1" fill="#47312f" d="M 283.5,899.5 C 282.34,898.735 281.34,897.735 280.5,896.5C 280.957,895.702 281.624,895.369 282.5,895.5C 288.219,898.932 290.552,897.432 289.5,891C 286.062,891.135 283.228,889.968 281,887.5C 280.825,881.022 283.991,878.522 290.5,880C 291.357,880.689 292.023,881.522 292.5,882.5C 289.627,882.876 286.627,882.876 283.5,882.5C 283.343,883.873 283.51,885.207 284,886.5C 286.624,888.035 289.457,889.202 292.5,890C 294.358,897.318 291.358,900.484 283.5,899.5 Z"/></g>
<g><path style="opacity:1" fill="#f7f5f2" d="M 541.5,882.5 C 549.494,881.329 552.994,884.663 552,892.5C 550.471,895.516 547.971,896.849 544.5,896.5C 539.984,896.519 537.984,894.186 538.5,889.5C 538.667,888.167 538.833,886.833 539,885.5C 540.045,884.627 540.878,883.627 541.5,882.5 Z"/></g>
<g><path style="opacity:1" fill="#412324" d="M 745.5,880.5 C 745.5,886.5 745.5,892.5 745.5,898.5C 744.184,895.913 743.517,892.913 743.5,889.5C 743.517,886.087 744.184,883.087 745.5,880.5 Z"/></g>
<g><path style="opacity:1" fill="#5e4643" d="M 256.5,880.5 C 253.15,880.335 249.817,880.502 246.5,881C 249.365,881.183 252.031,881.683 254.5,882.5C 252.5,882.5 250.5,882.5 248.5,882.5C 248.205,884.735 248.539,886.735 249.5,888.5C 249.5,889.167 249.5,889.833 249.5,890.5C 248.539,892.265 248.205,894.265 248.5,896.5C 250.833,896.5 253.167,896.5 255.5,896.5C 252.695,897.319 249.695,897.819 246.5,898C 250.152,898.499 253.818,898.665 257.5,898.5C 253.702,899.483 249.702,899.817 245.5,899.5C 245.5,892.833 245.5,886.167 245.5,879.5C 249.371,879.185 253.038,879.518 256.5,880.5 Z"/></g>
<g><path style="opacity:1" fill="#f5f4f2" d="M 381.5,881.5 C 389.658,882.477 392.158,886.811 389,894.5C 382.43,899.137 378.264,897.47 376.5,889.5C 376.672,885.807 378.339,883.141 381.5,881.5 Z"/></g>
<g><path style="opacity:1" fill="#b49a97" d="M 410.5,894.5 C 410.827,889.786 410.493,885.12 409.5,880.5C 408.833,885.317 408.166,889.983 407.5,894.5C 407.5,889.5 407.5,884.5 407.5,879.5C 408.833,879.5 410.167,879.5 411.5,879.5C 411.821,884.695 411.487,889.695 410.5,894.5 Z"/></g>
<g><path style="opacity:1" fill="#533939" d="M 455.5,879.5 C 462.376,878.047 467.876,880.047 472,885.5C 473.637,891.957 471.47,896.457 465.5,899C 462.183,899.498 458.85,899.665 455.5,899.5C 455.5,892.833 455.5,886.167 455.5,879.5 Z"/></g>
<g><path style="opacity:1" fill="#51362f" d="M 522.5,880.5 C 523.5,880.5 524.5,880.5 525.5,880.5C 525.5,886.167 525.5,891.833 525.5,897.5C 528.572,897.183 531.572,897.516 534.5,898.5C 530.555,899.491 526.555,899.824 522.5,899.5C 522.5,893.167 522.5,886.833 522.5,880.5 Z"/></g>
<g><path style="opacity:1" fill="#422a24" d="M 557.5,880.5 C 561.182,880.335 564.848,880.501 568.5,881C 570.703,883.76 571.036,886.76 569.5,890C 566.312,891.316 562.978,891.816 559.5,891.5C 559.813,894.247 559.48,896.914 558.5,899.5C 557.504,893.202 557.17,886.868 557.5,880.5 Z"/></g>
<g><path style="opacity:1" fill="#e9e4de" d="M 559.5,882.5 C 562.187,882.336 564.854,882.503 567.5,883C 568.799,888.689 566.466,890.689 560.5,889C 559.577,886.959 559.244,884.792 559.5,882.5 Z"/></g>
<g><path style="opacity:1" fill="#4a2022" d="M 609.5,880.5 C 606.5,881.167 603.5,881.833 600.5,882.5C 600.135,887.094 599.135,891.427 597.5,895.5C 597.5,890.5 597.5,885.5 597.5,880.5C 601.5,880.5 605.5,880.5 609.5,880.5 Z"/></g>
<g><path style="opacity:1" fill="#7d6b69" d="M 745.5,880.5 C 744.184,883.087 743.517,886.087 743.5,889.5C 743.517,892.913 744.184,895.913 745.5,898.5C 744.791,899.404 743.791,899.737 742.5,899.5C 742.5,892.833 742.5,886.167 742.5,879.5C 743.791,879.263 744.791,879.596 745.5,880.5 Z"/></g>
<g><path style="opacity:1" fill="#ada29e" d="M 779.5,881.5 C 776.713,882.477 773.713,882.81 770.5,882.5C 770.5,884.167 770.5,885.833 770.5,887.5C 773.5,887.5 776.5,887.5 779.5,887.5C 779.737,888.791 779.404,889.791 778.5,890.5C 776.012,888.612 773.012,887.945 769.5,888.5C 769.5,886.167 769.5,883.833 769.5,881.5C 772.833,881.5 776.167,881.5 779.5,881.5 Z"/></g>
<g><path style="opacity:1" fill="#d5c6c1" d="M 262.5,879.5 C 262.5,879.833 262.5,880.167 262.5,880.5C 262.5,885.167 262.5,889.833 262.5,894.5C 261.833,894.833 261.167,895.167 260.5,895.5C 260.854,892.579 259.854,890.246 257.5,888.5C 258.348,886.591 258.682,884.591 258.5,882.5C 259.124,884.834 259.957,887.167 261,889.5C 261.179,885.975 261.679,882.641 262.5,879.5 Z"/></g>
<g><path style="opacity:1" fill="#a28f8c" d="M 333.5,889.5 C 331.143,889.337 328.81,889.503 326.5,890C 328.058,890.21 329.391,890.71 330.5,891.5C 328.833,891.5 327.167,891.5 325.5,891.5C 325.5,890.5 325.5,889.5 325.5,888.5C 328.385,888.194 331.052,888.527 333.5,889.5 Z"/></g>
<g><path style="opacity:1" fill="#785a53" d="M 703.5,881.5 C 703.854,887.406 704.854,893.073 706.5,898.5C 705.791,899.404 704.791,899.737 703.5,899.5C 703.5,893.5 703.5,887.5 703.5,881.5 Z"/></g>
<g><path style="opacity:1" fill="#4b3830" d="M 357.5,881.5 C 358.251,880.427 359.251,880.26 360.5,881C 362.291,883.414 363.957,885.914 365.5,888.5C 367.4,886.381 369.066,884.047 370.5,881.5C 371.5,880.167 372.5,880.167 373.5,881.5C 369.201,886.758 367.201,892.758 367.5,899.5C 366.5,899.5 365.5,899.5 364.5,899.5C 364.923,892.359 362.59,886.359 357.5,881.5 Z"/></g>
<g><path style="opacity:1" fill="#593b3e" d="M 617.5,883.5 C 617.5,884.167 617.5,884.833 617.5,885.5C 616.883,885.389 616.383,885.056 616,884.5C 615.501,889.489 615.334,894.489 615.5,899.5C 614.5,899.5 613.5,899.5 612.5,899.5C 612.5,892.833 612.5,886.167 612.5,879.5C 615.367,879.369 617.033,880.703 617.5,883.5 Z"/></g>
<g><path style="opacity:1" fill="#60504d" d="M 637.5,882.5 C 638.327,887.651 638.827,892.984 639,898.5C 639.173,892.984 639.673,887.651 640.5,882.5C 640.5,888.167 640.5,893.833 640.5,899.5C 639.5,899.5 638.5,899.5 637.5,899.5C 637.5,893.833 637.5,888.167 637.5,882.5 Z"/></g>
<g><path style="opacity:1" fill="#897976" d="M 664.5,880.5 C 663.5,880.5 662.5,880.5 661.5,880.5C 660.88,886.926 661.547,892.926 663.5,898.5C 662.791,899.404 661.791,899.737 660.5,899.5C 660.5,892.833 660.5,886.167 660.5,879.5C 662.099,879.232 663.432,879.566 664.5,880.5 Z"/></g>
<g><path style="opacity:1" fill="#3a1f12" d="M 681.5,880.5 C 682.818,883.258 683.485,886.424 683.5,890C 683.167,893.167 682.833,896.333 682.5,899.5C 681.504,893.202 681.17,886.868 681.5,880.5 Z"/></g>
<g><path style="opacity:1" fill="#756c6b" d="M 779.5,880.5 C 775.5,880.5 771.5,880.5 767.5,880.5C 767.5,886.5 767.5,892.5 767.5,898.5C 771.5,898.5 775.5,898.5 779.5,898.5C 775.366,899.485 771.032,899.818 766.5,899.5C 766.5,892.833 766.5,886.167 766.5,879.5C 771.032,879.182 775.366,879.515 779.5,880.5 Z"/></g>
<g><path style="opacity:1" fill="#3c2724" d="M 256.5,880.5 C 257.5,880.833 258.167,881.5 258.5,882.5C 258.682,884.591 258.348,886.591 257.5,888.5C 259.854,890.246 260.854,892.579 260.5,895.5C 259.833,896.833 258.833,897.833 257.5,898.5C 253.818,898.665 250.152,898.499 246.5,898C 249.695,897.819 252.695,897.319 255.5,896.5C 256.649,896.209 257.316,895.376 257.5,894C 257.167,893.167 256.833,892.333 256.5,891.5C 254.253,890.626 251.92,890.292 249.5,890.5C 249.5,889.833 249.5,889.167 249.5,888.5C 252.044,888.896 254.211,888.229 256,886.5C 256.773,884.648 256.273,883.314 254.5,882.5C 252.031,881.683 249.365,881.183 246.5,881C 249.817,880.502 253.15,880.335 256.5,880.5 Z"/></g>
<g><path style="opacity:1" fill="#472525" d="M 507.5,880.5 C 511.514,880.334 515.514,880.501 519.5,881C 516.305,881.181 513.305,881.681 510.5,882.5C 509.513,887.305 509.179,892.305 509.5,897.5C 512.833,897.5 516.167,897.5 519.5,897.5C 515.971,899.423 511.971,900.089 507.5,899.5C 507.5,893.167 507.5,886.833 507.5,880.5 Z"/></g>
<g><path style="opacity:1" fill="#d8c1c6" d="M 600.5,887.5 C 603.5,887.5 606.5,887.5 609.5,887.5C 609.5,888.833 609.5,890.167 609.5,891.5C 606.615,891.806 603.948,891.473 601.5,890.5C 603.924,890.808 606.257,890.474 608.5,889.5C 605.694,888.832 603.028,888.166 600.5,887.5 Z"/></g>
<g><path style="opacity:1" fill="#7e605f" d="M 695.5,882.5 C 695.5,888.167 695.5,893.833 695.5,899.5C 694.209,899.737 693.209,899.404 692.5,898.5C 694.144,893.41 695.144,888.077 695.5,882.5 Z"/></g>
<g><path style="opacity:1" fill="#44312f" d="M 747.5,879.5 C 748.822,879.33 749.989,879.663 751,880.5C 752.682,885.566 754.515,890.566 756.5,895.5C 758.429,890.882 760.262,886.216 762,881.5C 763.156,880.007 763.99,880.174 764.5,882C 762.193,887.756 760.193,893.59 758.5,899.5C 757.178,899.67 756.011,899.337 755,898.5C 752.004,892.341 749.504,886.008 747.5,879.5 Z"/></g>
<g><path style="opacity:1" fill="#f4ebe9" d="M 249.5,890.5 C 251.92,890.292 254.253,890.626 256.5,891.5C 256.833,892.333 257.167,893.167 257.5,894C 257.316,895.376 256.649,896.209 255.5,896.5C 253.167,896.5 250.833,896.5 248.5,896.5C 248.205,894.265 248.539,892.265 249.5,890.5 Z"/></g>
<g><path style="opacity:1" fill="#46302f" d="M 301.5,879.5 C 312.915,879.413 316.749,884.746 313,895.5C 307.942,900.383 302.609,900.716 297,896.5C 292.762,889.228 294.262,883.561 301.5,879.5 Z"/></g>
<g><path style="opacity:1" fill="#f7f4f3" d="M 301.5,882.5 C 311.581,882.362 314.248,886.862 309.5,896C 300.844,898.677 297.011,895.511 298,886.5C 299.102,885.051 300.269,883.718 301.5,882.5 Z"/></g>
<g><path style="opacity:1" fill="#50312e" d="M 428.5,880.5 C 428.5,881.167 428.5,881.833 428.5,882.5C 426.5,882.5 424.5,882.5 422.5,882.5C 421.833,887.681 421.167,893.015 420.5,898.5C 419.833,893.015 419.167,887.681 418.5,882.5C 416.5,882.5 414.5,882.5 412.5,882.5C 412.5,881.5 412.5,880.5 412.5,879.5C 418.026,879.179 423.36,879.512 428.5,880.5 Z"/></g>
<g><path style="opacity:1" fill="#faf7f5" d="M 458.5,882.5 C 468.525,881.731 471.525,885.898 467.5,895C 464.649,896.289 461.649,896.789 458.5,896.5C 458.5,891.833 458.5,887.167 458.5,882.5 Z"/></g>
<g><path style="opacity:1" fill="#4e2c2d" d="M 488.5,881.5 C 489.209,880.596 490.209,880.263 491.5,880.5C 493.009,885.529 494.676,890.529 496.5,895.5C 498.692,890.925 500.692,886.258 502.5,881.5C 503.365,880.417 504.365,880.251 505.5,881C 503.038,887.419 500.204,893.586 497,899.5C 496.228,899.355 495.561,899.022 495,898.5C 492.9,892.684 490.733,887.017 488.5,881.5 Z"/></g>
<g><path style="opacity:1" fill="#554239" d="M 654.5,879.5 C 655.5,879.5 656.5,879.5 657.5,879.5C 657.5,886.167 657.5,892.833 657.5,899.5C 656.5,899.5 655.5,899.5 654.5,899.5C 654.5,892.833 654.5,886.167 654.5,879.5 Z"/></g>
<g><path style="opacity:1" fill="#49332e" d="M 664.5,880.5 C 667.409,885.311 670.576,889.978 674,894.5C 674.499,889.845 674.666,885.179 674.5,880.5C 675.5,880.5 676.5,880.5 677.5,880.5C 677.5,886.833 677.5,893.167 677.5,899.5C 676.022,899.762 674.689,899.429 673.5,898.5C 670.086,894.006 666.919,889.34 664,884.5C 663.501,889.155 663.334,893.821 663.5,898.5C 661.547,892.926 660.88,886.926 661.5,880.5C 662.5,880.5 663.5,880.5 664.5,880.5 Z"/></g>
<g><path style="opacity:1" fill="#463331" d="M 715.5,880.5 C 717.144,880.286 718.644,880.62 720,881.5C 722.363,886.921 724.529,892.421 726.5,898C 726.15,899.257 725.483,899.591 724.5,899C 723.74,897.559 723.074,896.059 722.5,894.5C 719.554,893.345 716.554,893.179 713.5,894C 712.139,895.584 711.472,897.418 711.5,899.5C 710.325,899.719 709.325,899.386 708.5,898.5C 710.853,892.468 713.186,886.468 715.5,880.5 Z"/></g>
<g><path style="opacity:1" fill="#eae0dd" d="M 717.5,883.5 C 719.267,885.792 720.267,888.458 720.5,891.5C 718.396,891.799 716.396,891.466 714.5,890.5C 715.788,888.261 716.788,885.928 717.5,883.5 Z"/></g>
<g><path style="opacity:1" fill="#3f2928" d="M 625.5,898.5 C 622.571,894.306 619.905,889.973 617.5,885.5C 617.5,884.833 617.5,884.167 617.5,883.5C 620.185,886.19 622.518,889.19 624.5,892.5C 624.783,893.289 625.283,893.956 626,894.5C 626.172,889.798 626.672,885.132 627.5,880.5C 628.496,886.463 628.829,892.463 628.5,898.5C 627.5,898.5 626.5,898.5 625.5,898.5 Z"/></g>
<g><path style="opacity:1" fill="#584542" d="M 724.5,879.5 C 729.833,879.5 735.167,879.5 740.5,879.5C 740.5,880.5 740.5,881.5 740.5,882.5C 738.5,882.5 736.5,882.5 734.5,882.5C 734.5,888.167 734.5,893.833 734.5,899.5C 733.5,899.5 732.5,899.5 731.5,899.5C 731.5,893.833 731.5,888.167 731.5,882.5C 729.167,882.5 726.833,882.5 724.5,882.5C 724.5,881.5 724.5,880.5 724.5,879.5 Z"/></g>
<g><path style="opacity:1" fill="#7e6a66" d="M 491.5,880.5 C 490.209,880.263 489.209,880.596 488.5,881.5C 488.167,881.5 487.833,881.5 487.5,881.5C 483.702,880.517 479.702,880.183 475.5,880.5C 475.5,886.5 475.5,892.5 475.5,898.5C 479.167,898.5 482.833,898.5 486.5,898.5C 482.702,899.483 478.702,899.817 474.5,899.5C 474.5,892.833 474.5,886.167 474.5,879.5C 480.358,879.178 486.025,879.511 491.5,880.5 Z"/></g>
<g><path style="opacity:1" fill="#46302d" d="M 330.5,891.5 C 329.391,890.71 328.058,890.21 326.5,890C 328.81,889.503 331.143,889.337 333.5,889.5C 332.597,892.391 332.264,895.391 332.5,898.5C 319.861,902.026 314.695,897.36 317,884.5C 321.328,878.858 326.162,878.191 331.5,882.5C 328.667,882.582 325.667,882.748 322.5,883C 317.574,886.912 317.241,891.245 321.5,896C 324.167,896.667 326.833,896.667 329.5,896C 330.38,894.644 330.714,893.144 330.5,891.5 Z"/></g>
<g><path style="opacity:1" fill="#412522" d="M 262.5,880.5 C 264.138,884.913 265.138,889.579 265.5,894.5C 268.54,898.473 271.706,898.473 275,894.5C 274.886,889.394 275.72,884.727 277.5,880.5C 277.74,886.227 277.407,891.894 276.5,897.5C 272.608,899.843 268.608,900.009 264.5,898C 263.177,897.184 262.511,896.017 262.5,894.5C 262.5,889.833 262.5,885.167 262.5,880.5 Z"/></g>
<g><path style="opacity:1" fill="#d6caca" d="M 277.5,880.5 C 278.325,884.647 278.825,888.981 279,893.5C 280.302,894.085 281.469,894.751 282.5,895.5C 281.624,895.369 280.957,895.702 280.5,896.5C 281.34,897.735 282.34,898.735 283.5,899.5C 281.079,899.122 278.746,898.455 276.5,897.5C 277.407,891.894 277.74,886.227 277.5,880.5 Z"/></g>
<g><path style="opacity:1" fill="#4b302e" d="M 341.5,880.5 C 342.978,880.238 344.311,880.571 345.5,881.5C 348.408,887.309 350.741,893.309 352.5,899.5C 351.5,899.5 350.5,899.5 349.5,899.5C 349.701,895.207 347.701,893.207 343.5,893.5C 339.299,893.207 337.299,895.207 337.5,899.5C 336.325,899.719 335.325,899.386 334.5,898.5C 336.846,892.479 339.18,886.479 341.5,880.5 Z"/></g>
<g><path style="opacity:1" fill="#efe8e0" d="M 342.5,883.5 C 344.555,885.234 345.888,887.567 346.5,890.5C 344.604,891.466 342.604,891.799 340.5,891.5C 341.167,888.833 341.833,886.167 342.5,883.5 Z"/></g>
<g><path style="opacity:1" fill="#49332f" d="M 407.5,894.5 C 408.166,889.983 408.833,885.317 409.5,880.5C 410.493,885.12 410.827,889.786 410.5,894.5C 407.441,899.645 403.107,900.812 397.5,898C 396.54,896.581 395.707,895.081 395,893.5C 394.501,889.179 394.334,884.846 394.5,880.5C 395.5,880.5 396.5,880.5 397.5,880.5C 397.334,885.179 397.501,889.845 398,894.5C 401.296,898.457 404.463,898.457 407.5,894.5 Z"/></g>
<g><path style="opacity:1" fill="#8a8681" d="M 577.5,887.5 C 576.517,891.298 576.183,895.298 576.5,899.5C 575.209,899.737 574.209,899.404 573.5,898.5C 575.118,894.916 576.118,890.916 576.5,886.5C 577.107,886.624 577.44,886.957 577.5,887.5 Z"/></g>
<g><path style="opacity:1" fill="#3d221c" d="M 703.5,881.5 C 704.209,880.596 705.209,880.263 706.5,880.5C 706.5,886.5 706.5,892.5 706.5,898.5C 704.854,893.073 703.854,887.406 703.5,881.5 Z"/></g>
<g><path style="opacity:1" fill="#ab9c98" d="M 418.5,882.5 C 419.167,887.681 419.833,893.015 420.5,898.5C 421.167,893.015 421.833,887.681 422.5,882.5C 422.5,888.167 422.5,893.833 422.5,899.5C 421.167,899.5 419.833,899.5 418.5,899.5C 418.5,893.833 418.5,888.167 418.5,882.5 Z"/></g>
<g><path style="opacity:1" fill="#b4a5a2" d="M 443.5,880.5 C 443.5,883.167 443.5,885.833 443.5,888.5C 439.833,888.5 436.167,888.5 432.5,888.5C 432.813,885.753 432.48,883.086 431.5,880.5C 430.167,886.5 430.167,892.5 431.5,898.5C 432.48,895.914 432.813,893.247 432.5,890.5C 436.167,890.5 439.833,890.5 443.5,890.5C 443.187,893.247 443.52,895.914 444.5,898.5C 445.496,892.537 445.829,886.537 445.5,880.5C 446.49,886.645 446.823,892.978 446.5,899.5C 445.167,899.5 443.833,899.5 442.5,899.5C 442.5,896.833 442.5,894.167 442.5,891.5C 439.5,891.5 436.5,891.5 433.5,891.5C 433.5,894.167 433.5,896.833 433.5,899.5C 432.167,899.5 430.833,899.5 429.5,899.5C 429.822,893.642 429.489,887.975 428.5,882.5C 428.5,881.833 428.5,881.167 428.5,880.5C 430.042,879.699 431.708,879.366 433.5,879.5C 433.5,882.167 433.5,884.833 433.5,887.5C 436.5,887.5 439.5,887.5 442.5,887.5C 442.198,884.941 442.532,882.607 443.5,880.5 Z"/></g>
<g><path style="opacity:1" fill="#3e2422" d="M 443.5,880.5 C 444.167,880.5 444.833,880.5 445.5,880.5C 445.829,886.537 445.496,892.537 444.5,898.5C 443.52,895.914 443.187,893.247 443.5,890.5C 439.833,890.5 436.167,890.5 432.5,890.5C 432.813,893.247 432.48,895.914 431.5,898.5C 430.167,892.5 430.167,886.5 431.5,880.5C 432.48,883.086 432.813,885.753 432.5,888.5C 436.167,888.5 439.833,888.5 443.5,888.5C 443.5,885.833 443.5,883.167 443.5,880.5 Z"/></g>
<g><path style="opacity:1" fill="#725d56" d="M 510.5,882.5 C 510.5,884.167 510.5,885.833 510.5,887.5C 513.5,887.5 516.5,887.5 519.5,887.5C 519.5,888.5 519.5,889.5 519.5,890.5C 516.5,890.5 513.5,890.5 510.5,890.5C 510.5,892.5 510.5,894.5 510.5,896.5C 513.713,896.19 516.713,896.523 519.5,897.5C 516.167,897.5 512.833,897.5 509.5,897.5C 509.179,892.305 509.513,887.305 510.5,882.5 Z"/></g>
<g><path style="opacity:1" fill="#41312c" d="M 600.5,882.5 C 600.5,884.167 600.5,885.833 600.5,887.5C 603.028,888.166 605.694,888.832 608.5,889.5C 606.257,890.474 603.924,890.808 601.5,890.5C 600.539,892.265 600.205,894.265 600.5,896.5C 603.305,897.319 606.305,897.819 609.5,898C 605.514,898.499 601.514,898.666 597.5,898.5C 597.5,897.5 597.5,896.5 597.5,895.5C 599.135,891.427 600.135,887.094 600.5,882.5 Z"/></g>
<g><path style="opacity:1" fill="#70615d" d="M 600.5,896.5 C 603.833,896.5 607.167,896.5 610.5,896.5C 610.5,897.5 610.5,898.5 610.5,899.5C 605.968,899.818 601.634,899.485 597.5,898.5C 601.514,898.666 605.514,898.499 609.5,898C 606.305,897.819 603.305,897.319 600.5,896.5 Z"/></g>
</svg>
