<?xml version="1.0" encoding="UTF-8"?>
<!DOCTYPE svg PUBLIC "-//W3C//DTD SVG 1.1//EN" "http://www.w3.org/Graphics/SVG/1.1/DTD/svg11.dtd">
<svg xmlns="http://www.w3.org/2000/svg" version="1.1" width="1024px" height="1024px" style="shape-rendering:geometricPrecision; text-rendering:geometricPrecision; image-rendering:optimizeQuality; fill-rule:evenodd; clip-rule:evenodd" xmlns:xlink="http://www.w3.org/1999/xlink">
<g><path style="opacity:1" fill="#fcfcfc" d="M -0.5,-0.5 C 340.833,-0.5 682.167,-0.5 1023.5,-0.5C 1023.5,340.833 1023.5,682.167 1023.5,1023.5C 682.167,1023.5 340.833,1023.5 -0.5,1023.5C -0.5,682.167 -0.5,340.833 -0.5,-0.5 Z"/></g>
<g><path style="opacity:1" fill="#4a2f2a" d="M 345.5,123.5 C 386.061,120.506 411.561,138.506 422,177.5C 424.738,212.401 409.905,236.234 377.5,249C 342.683,257.188 316.849,245.688 300,214.5C 286.24,174.753 298.073,145.587 335.5,127C 338.98,125.897 342.313,124.731 345.5,123.5 Z"/></g>
<g><path style="opacity:1" fill="#efab59" d="M 655.5,124.5 C 671.298,121.648 685.965,124.648 699.5,133.5C 699.719,134.675 699.386,135.675 698.5,136.5C 696.697,137.137 695.364,138.303 694.5,140C 697.352,140.269 700.018,141.103 702.5,142.5C 703.524,141.147 704.857,140.48 706.5,140.5C 706.5,141.5 706.5,142.5 706.5,143.5C 705.5,143.5 704.5,143.5 703.5,143.5C 703.5,144.5 703.5,145.5 703.5,146.5C 705.429,146.231 707.095,146.731 708.5,148C 706.513,150.14 705.18,152.64 704.5,155.5C 702.985,168.895 703.319,182.229 705.5,195.5C 703.545,205.417 703.045,215.417 704,225.5C 704.899,227.516 706.233,229.183 708,230.5C 709.356,229.62 710.856,229.286 712.5,229.5C 710.074,232.769 707.407,235.935 704.5,239C 698.94,242.126 693.273,244.959 687.5,247.5C 682.309,245.833 677.809,243.833 674,241.5C 666.692,241.892 659.526,242.892 652.5,244.5C 652.5,243.5 652.5,242.5 652.5,241.5C 658.8,240.793 665.133,240.293 671.5,240C 670.207,239.51 668.873,239.343 667.5,239.5C 667.5,234.167 667.5,228.833 667.5,223.5C 668.833,223.5 670.167,223.5 671.5,223.5C 671.5,218.167 671.5,212.833 671.5,207.5C 670.167,207.5 668.833,207.5 667.5,207.5C 667.5,191.491 667.166,175.491 666.5,159.5C 665.5,159.5 664.5,159.5 663.5,159.5C 663.5,154.167 663.5,148.833 663.5,143.5C 666.167,143.5 668.833,143.5 671.5,143.5C 671.5,138.167 671.5,132.833 671.5,127.5C 650.208,127.496 650.208,126.829 671.5,125.5C 666.208,124.505 660.875,124.172 655.5,124.5 Z"/></g>
<g><path style="opacity:1" fill="#eea658" d="M 655.5,124.5 C 660.875,124.172 666.208,124.505 671.5,125.5C 650.208,126.829 650.208,127.496 671.5,127.5C 671.5,132.833 671.5,138.167 671.5,143.5C 668.833,143.5 666.167,143.5 663.5,143.5C 663.5,148.833 663.5,154.167 663.5,159.5C 664.5,159.5 665.5,159.5 666.5,159.5C 667.166,175.491 667.5,191.491 667.5,207.5C 668.833,207.5 670.167,207.5 671.5,207.5C 671.5,212.833 671.5,218.167 671.5,223.5C 670.167,223.5 668.833,223.5 667.5,223.5C 667.5,228.833 667.5,234.167 667.5,239.5C 668.873,239.343 670.207,239.51 671.5,240C 665.133,240.293 658.8,240.793 652.5,241.5C 652.5,242.5 652.5,243.5 652.5,244.5C 659.526,242.892 666.692,241.892 674,241.5C 677.809,243.833 682.309,245.833 687.5,247.5C 684.1,249.085 680.433,250.252 676.5,251C 662.181,253.003 648.515,251.003 635.5,245C 632.589,243.778 630.256,241.945 628.5,239.5C 627.712,236.379 625.712,234.712 622.5,234.5C 620.184,233.578 618.517,231.911 617.5,229.5C 620.537,231.186 621.87,230.186 621.5,226.5C 626.089,226.118 630.423,226.951 634.5,229C 636.476,232.21 637.142,235.543 636.5,239C 640.406,240.434 644.406,240.767 648.5,240C 646.19,239.503 643.857,239.337 641.5,239.5C 642.233,204.839 642.9,170.173 643.5,135.5C 642.448,135.649 641.448,135.483 640.5,135C 642.904,134.804 644.571,133.638 645.5,131.5C 645,131.167 644.5,130.833 644,130.5C 638.462,131.195 633.296,132.861 628.5,135.5C 636.19,128.828 645.19,125.161 655.5,124.5 Z"/></g>
<g><path style="opacity:1" fill="#eca055" d="M 617.5,229.5 C 600.297,208.416 596.797,185.082 607,159.5C 610.4,152.535 614.9,146.369 620.5,141C 622.767,138.563 625.434,136.729 628.5,135.5C 633.296,132.861 638.462,131.195 644,130.5C 644.5,130.833 645,131.167 645.5,131.5C 644.571,133.638 642.904,134.804 640.5,135C 641.448,135.483 642.448,135.649 643.5,135.5C 642.9,170.173 642.233,204.839 641.5,239.5C 643.857,239.337 646.19,239.503 648.5,240C 644.406,240.767 640.406,240.434 636.5,239C 637.142,235.543 636.476,232.21 634.5,229C 630.423,226.951 626.089,226.118 621.5,226.5C 621.87,230.186 620.537,231.186 617.5,229.5 Z"/></g>
<g><path style="opacity:1" fill="#f1b05a" d="M 699.5,133.5 C 714.721,143.565 724.221,157.565 728,175.5C 728.756,185.536 728.423,195.536 727,205.5C 725.229,210.5 722.896,215.167 720,219.5C 719.51,220.793 719.343,222.127 719.5,223.5C 716.588,224.74 714.254,226.74 712.5,229.5C 710.856,229.286 709.356,229.62 708,230.5C 706.233,229.183 704.899,227.516 704,225.5C 703.045,215.417 703.545,205.417 705.5,195.5C 703.319,182.229 702.985,168.895 704.5,155.5C 705.18,152.64 706.513,150.14 708.5,148C 707.095,146.731 705.429,146.231 703.5,146.5C 703.5,145.5 703.5,144.5 703.5,143.5C 704.5,143.5 705.5,143.5 706.5,143.5C 706.5,142.5 706.5,141.5 706.5,140.5C 704.857,140.48 703.524,141.147 702.5,142.5C 700.018,141.103 697.352,140.269 694.5,140C 695.364,138.303 696.697,137.137 698.5,136.5C 699.386,135.675 699.719,134.675 699.5,133.5 Z"/></g>
<g><path style="opacity:1" fill="#e1a773" d="M 622.5,234.5 C 625.712,234.712 627.712,236.379 628.5,239.5C 625.301,239.238 623.301,237.572 622.5,234.5 Z"/></g>
<g><path style="opacity:1" fill="#fcf4e2" d="M 783.5,255.5 C 774.754,250.958 765.42,249.291 755.5,250.5C 763.867,249.753 772.201,248.419 780.5,246.5C 781.5,246.833 782.5,247.167 783.5,247.5C 781.954,248.684 780.287,249.684 778.5,250.5C 780.47,251.961 782.137,253.627 783.5,255.5 Z"/></g>
<g><path style="opacity:1" fill="#4b2f29" d="M 431.5,426.5 C 423.321,447.083 427.987,464.25 445.5,478C 457.704,484.135 470.37,485.135 483.5,481C 488.335,479.086 492.669,476.419 496.5,473C 505.363,463.803 514.53,454.969 524,446.5C 557.98,481.313 592.146,515.98 626.5,550.5C 631.009,566.793 624.842,576.46 608,579.5C 605.079,579.136 602.246,578.469 599.5,577.5C 587.228,565.729 575.062,553.729 563,541.5C 562.333,542.167 562.333,542.833 563,543.5C 575.467,555.127 586.967,567.46 597.5,580.5C 601.589,595.485 596.256,605.651 581.5,611C 580,611.167 578.5,611.333 577,611.5C 572.574,610.864 568.407,609.531 564.5,607.5C 554.167,596.5 543.5,585.833 532.5,575.5C 528.158,569.977 523.158,565.477 517.5,562C 522.067,567.004 526.734,571.838 531.5,576.5C 538.429,584.932 545.929,592.932 554,600.5C 556.374,603.263 558.208,606.263 559.5,609.5C 560.008,626.825 551.674,635.325 534.5,635C 532.754,634.529 531.087,633.862 529.5,633C 524.965,628.297 520.298,623.797 515.5,619.5C 509.067,609.561 500.4,602.394 489.5,598C 486.183,597.502 482.85,597.335 479.5,597.5C 478.205,582.762 470.539,572.929 456.5,568C 452.249,566.805 447.915,566.305 443.5,566.5C 442.255,551.178 434.255,541.344 419.5,537C 409.43,534.949 400.263,536.782 392,542.5C 386.683,538.681 381.516,534.681 376.5,530.5C 340.318,496.491 306.818,460.158 276,421.5C 307.356,476.241 339.689,530.574 373,584.5C 382.544,602.009 381.21,618.676 369,634.5C 350.32,651.426 329.82,653.926 307.5,642C 306.619,641.292 305.953,640.458 305.5,639.5C 308.984,639.328 311.984,640.328 314.5,642.5C 315.167,642.333 315.833,642.167 316.5,642C 315.5,641.667 314.5,641.333 313.5,641C 315.25,639.681 317.25,639.181 319.5,639.5C 319.693,643.449 320.193,643.449 321,639.5C 322.324,640.88 323.657,641.214 325,640.5C 326.648,642.028 328.648,642.695 331,642.5C 335.695,642.272 340.195,641.439 344.5,640C 341.418,638.591 338.585,636.758 336,634.5C 335.517,633.552 335.351,632.552 335.5,631.5C 332.833,631.5 330.167,631.5 327.5,631.5C 327.5,628.833 327.5,626.167 327.5,623.5C 326.5,623.5 325.5,623.5 324.5,623.5C 324.5,618.167 324.5,612.833 324.5,607.5C 322.833,607.5 321.167,607.5 319.5,607.5C 320.444,586.174 320.611,564.84 320,543.5C 319.832,559.541 318.999,575.541 317.5,591.5C 316.52,588.914 316.187,586.247 316.5,583.5C 315.5,583.5 314.5,583.5 313.5,583.5C 313.5,580.833 313.5,578.167 313.5,575.5C 312.5,575.5 311.5,575.5 310.5,575.5C 310.5,580.833 310.5,586.167 310.5,591.5C 308.167,591.5 305.833,591.5 303.5,591.5C 302.833,570.167 302.167,570.167 301.5,591.5C 296.833,591.5 292.167,591.5 287.5,591.5C 287.666,583.493 287.5,575.493 287,567.5C 286.333,568.167 285.667,568.833 285,569.5C 284.502,566.183 284.335,562.85 284.5,559.5C 288.167,559.5 291.833,559.5 295.5,559.5C 295.5,556.833 295.5,554.167 295.5,551.5C 302.5,551.5 309.5,551.5 316.5,551.5C 316.5,548.833 316.5,546.167 316.5,543.5C 314.833,543.5 313.167,543.5 311.5,543.5C 311.5,538.167 311.5,532.833 311.5,527.5C 308.833,527.5 306.167,527.5 303.5,527.5C 303.5,532.833 303.5,538.167 303.5,543.5C 295.833,543.5 288.167,543.5 280.5,543.5C 280.5,538.167 280.5,532.833 280.5,527.5C 277.5,527.5 274.5,527.5 271.5,527.5C 271.665,523.818 271.499,520.152 271,516.5C 269.108,515.383 268.275,513.716 268.5,511.5C 271.167,511.5 273.833,511.5 276.5,511.5C 276.5,508.833 276.5,506.167 276.5,503.5C 275.5,503.5 274.5,503.5 273.5,503.5C 273.5,500.833 273.5,498.167 273.5,495.5C 267.5,495.5 261.5,495.5 255.5,495.5C 255.725,497.716 254.892,499.383 253,500.5C 251.508,497.338 250.008,494.171 248.5,491C 248.944,489.238 249.444,489.405 250,491.5C 252.097,488.933 253.43,485.933 254,482.5C 254.333,482.833 254.667,483.167 255,483.5C 255.667,479.5 255.667,475.5 255,471.5C 253.956,472.623 253.29,473.956 253,475.5C 252.5,463.505 252.333,451.505 252.5,439.5C 255.167,439.5 257.833,439.5 260.5,439.5C 260.5,436.833 260.5,434.167 260.5,431.5C 261.5,431.5 262.5,431.5 263.5,431.5C 263.5,428.833 263.5,426.167 263.5,423.5C 262.5,423.5 261.5,423.5 260.5,423.5C 260.5,420.833 260.5,418.167 260.5,415.5C 262.167,415.5 263.833,415.5 265.5,415.5C 265.828,410.125 265.495,404.792 264.5,399.5C 263.52,402.086 263.187,404.753 263.5,407.5C 262.5,407.5 261.5,407.5 260.5,407.5C 260.5,402.167 260.5,396.833 260.5,391.5C 259.5,391.5 258.5,391.5 257.5,391.5C 257.828,386.125 257.495,380.792 256.5,375.5C 255.502,383.472 255.169,391.472 255.5,399.5C 250.167,399.5 244.833,399.5 239.5,399.5C 239.5,394.167 239.5,388.833 239.5,383.5C 237.167,383.5 234.833,383.5 232.5,383.5C 232.5,378.167 232.5,372.833 232.5,367.5C 234.833,367.5 237.167,367.5 239.5,367.5C 239.5,365.167 239.5,362.833 239.5,360.5C 242.85,360.665 246.183,360.498 249.5,360C 242.508,359.5 235.508,359.334 228.5,359.5C 228.5,356.833 228.5,354.167 228.5,351.5C 227.5,351.5 226.5,351.5 225.5,351.5C 225.5,335.5 225.5,319.5 225.5,303.5C 226.5,303.5 227.5,303.5 228.5,303.5C 228.5,298.167 228.5,292.833 228.5,287.5C 229.5,287.5 230.5,287.5 231.5,287.5C 231.187,290.247 231.52,292.914 232.5,295.5C 233.495,290.208 233.828,284.875 233.5,279.5C 234.5,279.5 235.5,279.5 236.5,279.5C 236.5,276.833 236.5,274.167 236.5,271.5C 242.842,271.666 249.175,271.5 255.5,271C 249.493,271.021 243.66,270.188 238,268.5C 236.527,270.046 234.694,271.046 232.5,271.5C 230.004,271.303 228.004,270.303 226.5,268.5C 242.85,247.998 262.517,244.165 285.5,257C 289.333,260.833 293.167,264.667 297,268.5C 338.992,324.006 389.825,369.339 449.5,404.5C 444.848,409.652 440.015,414.652 435,419.5C 433.295,421.577 432.128,423.91 431.5,426.5 Z"/></g>
<g><path style="opacity:1" fill="#f1b15a" d="M 755.5,250.5 C 765.42,249.291 774.754,250.958 783.5,255.5C 797.954,264.754 805.954,278.088 807.5,295.5C 809.317,311.26 808.817,326.927 806,342.5C 805.667,342.833 805.333,343.167 805,343.5C 804.333,339.5 803.667,339.5 803,343.5C 801.908,348.525 801.742,353.525 802.5,358.5C 803.086,358.291 803.586,357.957 804,357.5C 804.76,353.181 805.427,348.848 806,344.5C 806.404,352.174 806.238,359.841 805.5,367.5C 798.43,412.778 787.763,457.112 773.5,500.5C 771.224,503.793 769.891,507.46 769.5,511.5C 768.229,518.091 766.229,524.424 763.5,530.5C 761.561,526.469 761.061,522.136 762,517.5C 763.599,515.944 765.099,514.277 766.5,512.5C 764.751,503.012 763.751,493.345 763.5,483.5C 763.14,481.392 762.473,479.392 761.5,477.5C 761.833,476.833 762.167,476.167 762.5,475.5C 763.584,476.665 764.417,477.998 765,479.5C 765.167,479 765.333,478.5 765.5,478C 763.979,473.3 763.146,468.466 763,463.5C 762.833,412.83 762.333,362.163 761.5,311.5C 760.813,292.673 758.813,274.006 755.5,255.5C 753.352,263.352 752.185,271.352 752,279.5C 751.503,276.854 751.336,274.187 751.5,271.5C 748.795,271.62 748.128,270.62 749.5,268.5C 748.975,267.808 748.308,267.308 747.5,267C 748.793,266.51 750.127,266.343 751.5,266.5C 751.826,262.116 751.492,257.783 750.5,253.5C 749.522,253.977 748.689,254.643 748,255.5C 747.833,255.167 747.667,254.833 747.5,254.5C 748.624,253.141 749.958,252.141 751.5,251.5C 752.568,250.566 753.901,250.232 755.5,250.5 Z"/></g>
<g><path style="opacity:1" fill="#efab59" d="M 751.5,251.5 C 749.958,252.141 748.624,253.141 747.5,254.5C 747.667,254.833 747.833,255.167 748,255.5C 748.689,254.643 749.522,253.977 750.5,253.5C 751.492,257.783 751.826,262.116 751.5,266.5C 750.127,266.343 748.793,266.51 747.5,267C 748.308,267.308 748.975,267.808 749.5,268.5C 748.128,270.62 748.795,271.62 751.5,271.5C 751.336,274.187 751.503,276.854 752,279.5C 752.185,271.352 753.352,263.352 755.5,255.5C 758.813,274.006 760.813,292.673 761.5,311.5C 762.333,362.163 762.833,412.83 763,463.5C 763.146,468.466 763.979,473.3 765.5,478C 765.333,478.5 765.167,479 765,479.5C 764.417,477.998 763.584,476.665 762.5,475.5C 762.167,476.167 761.833,476.833 761.5,477.5C 762.473,479.392 763.14,481.392 763.5,483.5C 763.751,493.345 764.751,503.012 766.5,512.5C 765.099,514.277 763.599,515.944 762,517.5C 761.061,522.136 761.561,526.469 763.5,530.5C 758.013,545.462 752.847,560.462 748,575.5C 745.196,580.773 742.696,586.107 740.5,591.5C 737.942,589.566 736.609,586.899 736.5,583.5C 735.5,583.5 734.5,583.5 733.5,583.5C 732.667,570.185 732.334,556.851 732.5,543.5C 730.833,543.5 729.167,543.5 727.5,543.5C 727.5,538.167 727.5,532.833 727.5,527.5C 726.167,527.5 724.833,527.5 723.5,527.5C 723.5,522.167 723.5,516.833 723.5,511.5C 722.167,511.5 720.833,511.5 719.5,511.5C 719.5,506.167 719.5,500.833 719.5,495.5C 720.5,495.5 721.5,495.5 722.5,495.5C 722.172,490.125 722.505,484.792 723.5,479.5C 726.239,475.48 729.905,474.48 734.5,476.5C 735.452,474.955 735.785,473.288 735.5,471.5C 734.5,471.5 733.5,471.5 732.5,471.5C 732.756,467.138 732.923,462.805 733,458.5C 731.915,460.373 730.582,462.04 729,463.5C 728.379,469.803 725.045,474.136 719,476.5C 718.153,473.51 719.32,472.176 722.5,472.5C 723.921,468.67 724.921,464.67 725.5,460.5C 731.719,447.519 739.052,435.186 747.5,423.5C 746.645,422.707 745.811,423.04 745,424.5C 740.659,430.668 735.825,436.334 730.5,441.5C 728.977,438.955 729.643,436.955 732.5,435.5C 732.167,435.167 731.833,434.833 731.5,434.5C 728.428,436.604 725.428,438.604 722.5,440.5C 722.5,438.833 722.5,437.167 722.5,435.5C 725.278,435.978 727.278,434.978 728.5,432.5C 726.955,431.548 725.288,431.215 723.5,431.5C 723.5,420.833 723.5,410.167 723.5,399.5C 722.167,399.5 720.833,399.5 719.5,399.5C 719.5,396.833 719.5,394.167 719.5,391.5C 720.5,391.5 721.5,391.5 722.5,391.5C 723.161,364.855 723.161,338.188 722.5,311.5C 723.5,311.5 724.5,311.5 725.5,311.5C 725.508,303.438 726.175,295.438 727.5,287.5C 729.167,287.5 730.833,287.5 732.5,287.5C 732.5,286.167 732.5,284.833 732.5,283.5C 730.571,283.769 728.905,283.269 727.5,282C 728.971,278.679 729.637,275.179 729.5,271.5C 730.234,270.292 730.567,268.959 730.5,267.5C 732.002,265.825 733.335,263.992 734.5,262C 738.74,261.744 740.74,259.578 740.5,255.5C 743.65,253.003 747.317,251.67 751.5,251.5 Z"/></g>
<g><path style="opacity:1" fill="#e2a973" d="M 740.5,255.5 C 740.74,259.578 738.74,261.744 734.5,262C 733.335,263.992 732.002,265.825 730.5,267.5C 728.821,268.916 727.154,270.25 725.5,271.5C 729.137,264.897 734.137,259.564 740.5,255.5 Z"/></g>
<g><path style="opacity:1" fill="#d9804e" d="M 730.5,267.5 C 730.567,268.959 730.234,270.292 729.5,271.5C 725.091,281.825 721.424,292.492 718.5,303.5C 702.926,353.187 691.093,403.854 683,455.5C 680.344,469.708 678.844,484.042 678.5,498.5C 664.668,512.769 650.335,526.602 635.5,540C 634.833,540.667 634.167,540.667 633.5,540C 631.963,538.293 630.296,536.793 628.5,535.5C 627.207,533.704 625.707,532.037 624,530.5C 623.517,529.552 623.351,528.552 623.5,527.5C 622.448,527.649 621.448,527.483 620.5,527C 617,522.167 612.833,518 608,514.5C 607.517,513.552 607.351,512.552 607.5,511.5C 606.448,511.649 605.448,511.483 604.5,511C 600.333,506.833 596.167,502.667 592,498.5C 591.517,497.552 591.351,496.552 591.5,495.5C 590.448,495.649 589.448,495.483 588.5,495C 584.709,490.509 580.543,486.342 576,482.5C 575.517,481.552 575.351,480.552 575.5,479.5C 574.448,479.649 573.448,479.483 572.5,479C 568.709,474.509 564.543,470.342 560,466.5C 559.517,465.552 559.351,464.552 559.5,463.5C 557.567,463.271 555.9,462.438 554.5,461C 551.376,457.175 547.876,453.675 544,450.5C 543.517,449.552 543.351,448.552 543.5,447.5C 542.448,447.649 541.448,447.483 540.5,447C 534.985,441.318 529.319,435.818 523.5,430.5C 512.345,441.488 501.011,452.321 489.5,463C 477.231,472.85 464.231,474.017 450.5,466.5C 439.969,457.386 436.802,446.053 441,432.5C 446.761,424.735 453.261,417.569 460.5,411C 472.396,399.6 484.396,388.433 496.5,377.5C 503.891,372.758 511.891,371.425 520.5,373.5C 522.757,373.962 524.757,374.962 526.5,376.5C 538.291,387.122 549.958,397.955 561.5,409C 562.448,409.483 563.448,409.649 564.5,409.5C 568.702,408.732 572.369,406.899 575.5,404C 577.134,403.506 578.801,403.34 580.5,403.5C 580.433,402.041 580.766,400.708 581.5,399.5C 623.546,373.984 661.38,342.984 695,306.5C 705.184,294.761 715.351,283.095 725.5,271.5C 727.154,270.25 728.821,268.916 730.5,267.5 Z"/></g>
<g><path style="opacity:1" fill="#f0bb6f" d="M 807.5,295.5 C 808.29,296.609 808.79,297.942 809,299.5C 810.392,322.463 809.225,345.129 805.5,367.5C 806.238,359.841 806.404,352.174 806,344.5C 805.427,348.848 804.76,353.181 804,357.5C 803.586,357.957 803.086,358.291 802.5,358.5C 801.742,353.525 801.908,348.525 803,343.5C 803.667,339.5 804.333,339.5 805,343.5C 805.333,343.167 805.667,342.833 806,342.5C 808.817,326.927 809.317,311.26 807.5,295.5 Z"/></g>
<g><path style="opacity:1" fill="#eda658" d="M 729.5,271.5 C 729.637,275.179 728.971,278.679 727.5,282C 728.905,283.269 730.571,283.769 732.5,283.5C 732.5,284.833 732.5,286.167 732.5,287.5C 730.833,287.5 729.167,287.5 727.5,287.5C 726.175,295.438 725.508,303.438 725.5,311.5C 724.5,311.5 723.5,311.5 722.5,311.5C 723.161,338.188 723.161,364.855 722.5,391.5C 721.5,391.5 720.5,391.5 719.5,391.5C 719.5,394.167 719.5,396.833 719.5,399.5C 720.833,399.5 722.167,399.5 723.5,399.5C 723.5,410.167 723.5,420.833 723.5,431.5C 725.288,431.215 726.955,431.548 728.5,432.5C 727.278,434.978 725.278,435.978 722.5,435.5C 722.5,437.167 722.5,438.833 722.5,440.5C 725.428,438.604 728.428,436.604 731.5,434.5C 731.833,434.833 732.167,435.167 732.5,435.5C 729.643,436.955 728.977,438.955 730.5,441.5C 722.88,451.455 714.546,460.788 705.5,469.5C 703.848,466.339 702.514,463.006 701.5,459.5C 701.974,454.373 702.974,454.373 704.5,459.5C 705.603,457.046 705.27,454.713 703.5,452.5C 704.037,451.259 704.704,450.092 705.5,449C 703.649,443.352 702.982,437.519 703.5,431.5C 701.5,431.5 699.5,431.5 697.5,431.5C 696.517,422.348 695.684,422.348 695,431.5C 695.101,426.477 694.934,421.81 694.5,417.5C 695.289,415.512 696.455,415.179 698,416.5C 702.676,431.345 704.509,431.012 703.5,415.5C 702.5,415.5 701.5,415.5 700.5,415.5C 700.5,410.167 700.5,404.833 700.5,399.5C 699.167,399.5 697.833,399.5 696.5,399.5C 697.432,392.382 698.932,385.382 701,378.5C 701.667,377.833 702.333,377.167 703,376.5C 703.497,378.81 703.663,381.143 703.5,383.5C 704.5,383.5 705.5,383.5 706.5,383.5C 706.195,373.938 707.529,364.605 710.5,355.5C 710.448,352.678 709.781,350.011 708.5,347.5C 709.938,342.276 710.938,336.943 711.5,331.5C 712.004,328.658 713.671,327.325 716.5,327.5C 716.5,330.167 716.5,332.833 716.5,335.5C 717.5,335.5 718.5,335.5 719.5,335.5C 718.42,329.287 717.42,322.954 716.5,316.5C 716.921,312.992 717.921,309.658 719.5,306.5C 719.48,305.274 719.147,304.274 718.5,303.5C 721.424,292.492 725.091,281.825 729.5,271.5 Z"/></g>
<g><path style="opacity:1" fill="#cf8f68" d="M 520.5,373.5 C 511.891,371.425 503.891,372.758 496.5,377.5C 499.44,373.576 503.44,371.409 508.5,371C 511.167,370.333 513.833,370.333 516.5,371C 518.32,371.2 519.653,372.034 520.5,373.5 Z"/></g>
<g><path style="opacity:1" fill="#c9865d" d="M 581.5,399.5 C 580.766,400.708 580.433,402.041 580.5,403.5C 578.801,403.34 577.134,403.506 575.5,404C 572.369,406.899 568.702,408.732 564.5,409.5C 569.665,405.414 575.332,402.08 581.5,399.5 Z"/></g>
<g><path style="opacity:1" fill="#eca258" d="M 718.5,303.5 C 719.147,304.274 719.48,305.274 719.5,306.5C 717.921,309.658 716.921,312.992 716.5,316.5C 717.42,322.954 718.42,329.287 719.5,335.5C 718.5,335.5 717.5,335.5 716.5,335.5C 716.5,332.833 716.5,330.167 716.5,327.5C 713.671,327.325 712.004,328.658 711.5,331.5C 710.938,336.943 709.938,342.276 708.5,347.5C 709.781,350.011 710.448,352.678 710.5,355.5C 707.529,364.605 706.195,373.938 706.5,383.5C 705.5,383.5 704.5,383.5 703.5,383.5C 703.663,381.143 703.497,378.81 703,376.5C 702.333,377.167 701.667,377.833 701,378.5C 698.932,385.382 697.432,392.382 696.5,399.5C 697.833,399.5 699.167,399.5 700.5,399.5C 700.5,404.833 700.5,410.167 700.5,415.5C 701.5,415.5 702.5,415.5 703.5,415.5C 704.509,431.012 702.676,431.345 698,416.5C 696.455,415.179 695.289,415.512 694.5,417.5C 694.934,421.81 695.101,426.477 695,431.5C 695.684,422.348 696.517,422.348 697.5,431.5C 699.5,431.5 701.5,431.5 703.5,431.5C 702.982,437.519 703.649,443.352 705.5,449C 704.704,450.092 704.037,451.259 703.5,452.5C 705.27,454.713 705.603,457.046 704.5,459.5C 702.974,454.373 701.974,454.373 701.5,459.5C 702.514,463.006 703.848,466.339 705.5,469.5C 697.833,478.167 690.167,486.833 682.5,495.5C 681.167,496.5 679.833,497.5 678.5,498.5C 678.844,484.042 680.344,469.708 683,455.5C 691.093,403.854 702.926,353.187 718.5,303.5 Z"/></g>
<g><path style="opacity:1" fill="#faf8f6" d="M 431.5,426.5 C 431.742,433.552 432.409,440.552 433.5,447.5C 433.744,451.104 433.078,454.437 431.5,457.5C 432.836,460.472 434.336,460.805 436,458.5C 438.465,460.055 438.965,462.055 437.5,464.5C 439.297,467.795 441.63,470.628 444.5,473C 444.167,473.333 443.833,473.667 443.5,474C 446.93,474.638 448.263,473.138 447.5,469.5C 448.5,469.5 449.5,469.5 450.5,469.5C 450.5,468.5 450.5,467.5 450.5,466.5C 464.231,474.017 477.231,472.85 489.5,463C 501.011,452.321 512.345,441.488 523.5,430.5C 529.319,435.818 534.985,441.318 540.5,447C 541.448,447.483 542.448,447.649 543.5,447.5C 543.351,448.552 543.517,449.552 544,450.5C 547.876,453.675 551.376,457.175 554.5,461C 555.9,462.438 557.567,463.271 559.5,463.5C 559.351,464.552 559.517,465.552 560,466.5C 564.543,470.342 568.709,474.509 572.5,479C 573.448,479.483 574.448,479.649 575.5,479.5C 575.351,480.552 575.517,481.552 576,482.5C 580.543,486.342 584.709,490.509 588.5,495C 589.448,495.483 590.448,495.649 591.5,495.5C 591.351,496.552 591.517,497.552 592,498.5C 596.167,502.667 600.333,506.833 604.5,511C 605.448,511.483 606.448,511.649 607.5,511.5C 607.351,512.552 607.517,513.552 608,514.5C 612.833,518 617,522.167 620.5,527C 621.448,527.483 622.448,527.649 623.5,527.5C 623.351,528.552 623.517,529.552 624,530.5C 625.707,532.037 627.207,533.704 628.5,535.5C 626.61,535.297 625.11,535.963 624,537.5C 623.779,534.057 622.779,533.724 621,536.5C 620.333,537.5 620.333,538.5 621,539.5C 621.718,538.549 622.551,538.383 623.5,539C 622.62,540.356 622.286,541.856 622.5,543.5C 624.827,543.753 626.827,543.086 628.5,541.5C 629.745,542.955 629.578,544.289 628,545.5C 626.703,544.216 625.536,544.383 624.5,546C 626.65,547.192 627.317,548.692 626.5,550.5C 592.146,515.98 557.98,481.313 524,446.5C 514.53,454.969 505.363,463.803 496.5,473C 492.669,476.419 488.335,479.086 483.5,481C 470.37,485.135 457.704,484.135 445.5,478C 427.987,464.25 423.321,447.083 431.5,426.5 Z"/></g>
<g><path style="opacity:1" fill="#fbf9f2" d="M 725.5,460.5 C 716.163,473.831 707.83,487.831 700.5,502.5C 699.833,502.833 699.167,503.167 698.5,503.5C 700.162,498.677 702.495,494.177 705.5,490C 705.049,486.662 704.049,486.162 702.5,488.5C 701.841,485.841 700.174,484.174 697.5,483.5C 694.953,484.934 692.619,486.6 690.5,488.5C 691.145,489.646 691.978,490.646 693,491.5C 693.941,489.939 695.108,488.605 696.5,487.5C 697.736,488.246 699.07,488.579 700.5,488.5C 700.5,490.167 700.5,491.833 700.5,493.5C 696.288,493.078 692.288,493.744 688.5,495.5C 687.833,494.833 687.167,494.167 686.5,493.5C 685.378,494.63 684.044,495.297 682.5,495.5C 690.167,486.833 697.833,478.167 705.5,469.5C 714.546,460.788 722.88,451.455 730.5,441.5C 735.825,436.334 740.659,430.668 745,424.5C 745.811,423.04 746.645,422.707 747.5,423.5C 739.052,435.186 731.719,447.519 725.5,460.5 Z"/></g>
<g><path style="opacity:1" fill="#eda659" d="M 740.5,591.5 C 734.168,607.834 727.002,623.834 719,639.5C 715.182,642.321 711.016,644.321 706.5,645.5C 708.529,643.409 710.862,641.742 713.5,640.5C 710.823,638.736 711.156,637.57 714.5,637C 712.561,636.092 711.561,634.592 711.5,632.5C 715.5,632.167 715.5,631.833 711.5,631.5C 710.567,607.509 709.9,583.509 709.5,559.5C 708.5,559.5 707.5,559.5 706.5,559.5C 706.333,546.163 706.5,532.829 707,519.5C 707.182,522.226 707.682,524.893 708.5,527.5C 708.833,526.167 709.167,524.833 709.5,523.5C 708.667,516.833 707.833,510.167 707,503.5C 706.121,509.346 704.787,515.013 703,520.5C 702.405,519.101 702.572,517.768 703.5,516.5C 700.845,512.123 700.845,507.79 703.5,503.5C 703.124,501.197 702.124,500.863 700.5,502.5C 707.83,487.831 716.163,473.831 725.5,460.5C 724.921,464.67 723.921,468.67 722.5,472.5C 719.32,472.176 718.153,473.51 719,476.5C 725.045,474.136 728.379,469.803 729,463.5C 730.582,462.04 731.915,460.373 733,458.5C 732.923,462.805 732.756,467.138 732.5,471.5C 733.5,471.5 734.5,471.5 735.5,471.5C 735.785,473.288 735.452,474.955 734.5,476.5C 729.905,474.48 726.239,475.48 723.5,479.5C 722.505,484.792 722.172,490.125 722.5,495.5C 721.5,495.5 720.5,495.5 719.5,495.5C 719.5,500.833 719.5,506.167 719.5,511.5C 720.833,511.5 722.167,511.5 723.5,511.5C 723.5,516.833 723.5,522.167 723.5,527.5C 724.833,527.5 726.167,527.5 727.5,527.5C 727.5,532.833 727.5,538.167 727.5,543.5C 729.167,543.5 730.833,543.5 732.5,543.5C 732.334,556.851 732.667,570.185 733.5,583.5C 734.5,583.5 735.5,583.5 736.5,583.5C 736.609,586.899 737.942,589.566 740.5,591.5 Z"/></g>
<g><path style="opacity:1" fill="#e2c086" d="M 773.5,500.5 C 772.935,504.537 771.601,508.203 769.5,511.5C 769.891,507.46 771.224,503.793 773.5,500.5 Z"/></g>
<g><path style="opacity:1" fill="#eca358" d="M 706.5,645.5 C 689.313,652.565 673.313,650.398 658.5,639C 656.946,636.713 655.279,634.546 653.5,632.5C 658.142,632.972 661.142,635.472 662.5,640C 664.167,640.667 665.833,640.667 667.5,640C 666.207,639.51 664.873,639.343 663.5,639.5C 665.579,632.314 662.912,628.981 655.5,629.5C 655.5,628.5 655.5,627.5 655.5,626.5C 665.503,626.163 669.837,630.83 668.5,640.5C 672.375,640.356 676.208,640.69 680,641.5C 687.073,639.864 694.239,639.197 701.5,639.5C 701.5,626.167 701.5,612.833 701.5,599.5C 700.5,599.5 699.5,599.5 698.5,599.5C 698.5,583.5 698.5,567.5 698.5,551.5C 699.5,551.5 700.5,551.5 701.5,551.5C 701.5,548.833 701.5,546.167 701.5,543.5C 700.5,543.5 699.5,543.5 698.5,543.5C 698.666,537.824 698.499,532.157 698,526.5C 695.977,524.231 695.144,521.564 695.5,518.5C 693.052,518.085 691.719,519.085 691.5,521.5C 693.376,523.048 694.376,525.048 694.5,527.5C 693.167,527.5 691.833,527.5 690.5,527.5C 690.5,526.5 690.5,525.5 690.5,524.5C 689.5,524.5 688.5,524.5 687.5,524.5C 687.715,526.179 687.048,527.179 685.5,527.5C 689.805,519.517 694.138,511.517 698.5,503.5C 699.167,503.167 699.833,502.833 700.5,502.5C 702.124,500.863 703.124,501.197 703.5,503.5C 700.845,507.79 700.845,512.123 703.5,516.5C 702.572,517.768 702.405,519.101 703,520.5C 704.787,515.013 706.121,509.346 707,503.5C 707.833,510.167 708.667,516.833 709.5,523.5C 709.167,524.833 708.833,526.167 708.5,527.5C 707.682,524.893 707.182,522.226 707,519.5C 706.5,532.829 706.333,546.163 706.5,559.5C 707.5,559.5 708.5,559.5 709.5,559.5C 709.9,583.509 710.567,607.509 711.5,631.5C 715.5,631.833 715.5,632.167 711.5,632.5C 711.561,634.592 712.561,636.092 714.5,637C 711.156,637.57 710.823,638.736 713.5,640.5C 710.862,641.742 708.529,643.409 706.5,645.5 Z"/></g>
<g><path style="opacity:1" fill="#ea9f56" d="M 653.5,632.5 C 650.214,629.195 648.214,625.195 647.5,620.5C 647.03,615.98 646.363,611.48 645.5,607C 646.223,602.498 646.889,597.998 647.5,593.5C 648.811,590.618 649.978,587.618 651,584.5C 657.596,573.64 663.929,562.64 670,551.5C 674.636,543.056 679.802,535.056 685.5,527.5C 687.048,527.179 687.715,526.179 687.5,524.5C 688.5,524.5 689.5,524.5 690.5,524.5C 690.5,525.5 690.5,526.5 690.5,527.5C 691.833,527.5 693.167,527.5 694.5,527.5C 694.376,525.048 693.376,523.048 691.5,521.5C 691.719,519.085 693.052,518.085 695.5,518.5C 695.144,521.564 695.977,524.231 698,526.5C 698.499,532.157 698.666,537.824 698.5,543.5C 699.5,543.5 700.5,543.5 701.5,543.5C 701.5,546.167 701.5,548.833 701.5,551.5C 700.5,551.5 699.5,551.5 698.5,551.5C 698.5,567.5 698.5,583.5 698.5,599.5C 699.5,599.5 700.5,599.5 701.5,599.5C 701.5,612.833 701.5,626.167 701.5,639.5C 694.239,639.197 687.073,639.864 680,641.5C 676.208,640.69 672.375,640.356 668.5,640.5C 669.837,630.83 665.503,626.163 655.5,626.5C 655.5,627.5 655.5,628.5 655.5,629.5C 662.912,628.981 665.579,632.314 663.5,639.5C 664.873,639.343 666.207,639.51 667.5,640C 665.833,640.667 664.167,640.667 662.5,640C 661.142,635.472 658.142,632.972 653.5,632.5 Z"/></g>
<g><path style="opacity:1" fill="#492e29" d="M 226.5,268.5 C 228.004,270.303 230.004,271.303 232.5,271.5C 234.694,271.046 236.527,270.046 238,268.5C 243.66,270.188 249.493,271.021 255.5,271C 249.175,271.5 242.842,271.666 236.5,271.5C 236.5,274.167 236.5,276.833 236.5,279.5C 235.5,279.5 234.5,279.5 233.5,279.5C 233.828,284.875 233.495,290.208 232.5,295.5C 231.52,292.914 231.187,290.247 231.5,287.5C 230.5,287.5 229.5,287.5 228.5,287.5C 228.5,292.833 228.5,298.167 228.5,303.5C 227.5,303.5 226.5,303.5 225.5,303.5C 225.5,319.5 225.5,335.5 225.5,351.5C 226.5,351.5 227.5,351.5 228.5,351.5C 228.5,354.167 228.5,356.833 228.5,359.5C 235.508,359.334 242.508,359.5 249.5,360C 246.183,360.498 242.85,360.665 239.5,360.5C 239.5,362.833 239.5,365.167 239.5,367.5C 237.167,367.5 234.833,367.5 232.5,367.5C 232.5,372.833 232.5,378.167 232.5,383.5C 234.833,383.5 237.167,383.5 239.5,383.5C 239.5,388.833 239.5,394.167 239.5,399.5C 244.833,399.5 250.167,399.5 255.5,399.5C 255.169,391.472 255.502,383.472 256.5,375.5C 257.495,380.792 257.828,386.125 257.5,391.5C 258.5,391.5 259.5,391.5 260.5,391.5C 260.5,396.833 260.5,402.167 260.5,407.5C 261.5,407.5 262.5,407.5 263.5,407.5C 263.187,404.753 263.52,402.086 264.5,399.5C 265.495,404.792 265.828,410.125 265.5,415.5C 263.833,415.5 262.167,415.5 260.5,415.5C 260.5,418.167 260.5,420.833 260.5,423.5C 261.5,423.5 262.5,423.5 263.5,423.5C 263.5,426.167 263.5,428.833 263.5,431.5C 262.5,431.5 261.5,431.5 260.5,431.5C 260.5,434.167 260.5,436.833 260.5,439.5C 257.833,439.5 255.167,439.5 252.5,439.5C 252.333,451.505 252.5,463.505 253,475.5C 253.29,473.956 253.956,472.623 255,471.5C 255.667,475.5 255.667,479.5 255,483.5C 254.667,483.167 254.333,482.833 254,482.5C 253.43,485.933 252.097,488.933 250,491.5C 249.444,489.405 248.944,489.238 248.5,491C 250.008,494.171 251.508,497.338 253,500.5C 254.892,499.383 255.725,497.716 255.5,495.5C 261.5,495.5 267.5,495.5 273.5,495.5C 273.5,498.167 273.5,500.833 273.5,503.5C 274.5,503.5 275.5,503.5 276.5,503.5C 276.5,506.167 276.5,508.833 276.5,511.5C 273.833,511.5 271.167,511.5 268.5,511.5C 268.275,513.716 269.108,515.383 271,516.5C 271.499,520.152 271.665,523.818 271.5,527.5C 274.5,527.5 277.5,527.5 280.5,527.5C 280.5,532.833 280.5,538.167 280.5,543.5C 288.167,543.5 295.833,543.5 303.5,543.5C 303.5,538.167 303.5,532.833 303.5,527.5C 306.167,527.5 308.833,527.5 311.5,527.5C 311.5,532.833 311.5,538.167 311.5,543.5C 313.167,543.5 314.833,543.5 316.5,543.5C 316.5,546.167 316.5,548.833 316.5,551.5C 309.5,551.5 302.5,551.5 295.5,551.5C 295.5,554.167 295.5,556.833 295.5,559.5C 291.833,559.5 288.167,559.5 284.5,559.5C 284.335,562.85 284.502,566.183 285,569.5C 285.667,568.833 286.333,568.167 287,567.5C 287.5,575.493 287.666,583.493 287.5,591.5C 292.167,591.5 296.833,591.5 301.5,591.5C 302.167,570.167 302.833,570.167 303.5,591.5C 305.833,591.5 308.167,591.5 310.5,591.5C 310.5,586.167 310.5,580.833 310.5,575.5C 311.5,575.5 312.5,575.5 313.5,575.5C 313.5,578.167 313.5,580.833 313.5,583.5C 314.5,583.5 315.5,583.5 316.5,583.5C 316.187,586.247 316.52,588.914 317.5,591.5C 318.999,575.541 319.832,559.541 320,543.5C 320.611,564.84 320.444,586.174 319.5,607.5C 321.167,607.5 322.833,607.5 324.5,607.5C 324.5,612.833 324.5,618.167 324.5,623.5C 325.5,623.5 326.5,623.5 327.5,623.5C 327.5,626.167 327.5,628.833 327.5,631.5C 330.167,631.5 332.833,631.5 335.5,631.5C 335.351,632.552 335.517,633.552 336,634.5C 338.585,636.758 341.418,638.591 344.5,640C 340.195,641.439 335.695,642.272 331,642.5C 328.648,642.695 326.648,642.028 325,640.5C 323.657,641.214 322.324,640.88 321,639.5C 320.193,643.449 319.693,643.449 319.5,639.5C 317.25,639.181 315.25,639.681 313.5,641C 314.5,641.333 315.5,641.667 316.5,642C 315.833,642.167 315.167,642.333 314.5,642.5C 311.984,640.328 308.984,639.328 305.5,639.5C 304.542,639.047 303.708,638.381 303,637.5C 267.694,561.915 241.36,483.248 224,401.5C 218.204,375.129 215.037,348.462 214.5,321.5C 213.311,307.086 215.144,293.086 220,279.5C 221.689,275.44 223.856,271.773 226.5,268.5 Z"/></g>
<g><path style="opacity:1" fill="#f1d2aa" d="M 418.5,548.5 C 413.009,548.15 407.676,548.816 402.5,550.5C 404.176,548.166 406.509,547.166 409.5,547.5C 411.92,547.708 414.253,547.374 416.5,546.5C 417.522,546.855 418.189,547.522 418.5,548.5 Z"/></g>
<g><path style="opacity:1" fill="#e2d2cc" d="M 599.5,577.5 C 597.952,577.821 597.285,578.821 597.5,580.5C 586.967,567.46 575.467,555.127 563,543.5C 562.333,542.833 562.333,542.167 563,541.5C 575.062,553.729 587.228,565.729 599.5,577.5 Z"/></g>
<g><path style="opacity:1" fill="#f1ae5a" d="M 418.5,548.5 C 423.686,550.843 427.852,554.509 431,559.5C 431.667,565.167 431.667,570.833 431,576.5C 429.053,580.276 426.553,583.61 423.5,586.5C 418.414,588.749 413.081,589.749 407.5,589.5C 399.341,588.167 394.174,583.5 392,575.5C 390.919,568.946 391.586,562.612 394,556.5C 396.301,553.612 399.134,551.612 402.5,550.5C 407.676,548.816 413.009,548.15 418.5,548.5 Z"/></g>
<g><path style="opacity:1" fill="#bfaca5" d="M 532.5,575.5 C 531.833,575.5 531.5,575.833 531.5,576.5C 526.734,571.838 522.067,567.004 517.5,562C 523.158,565.477 528.158,569.977 532.5,575.5 Z"/></g>
<g><path style="opacity:1" fill="#ede3de" d="M 532.5,575.5 C 543.5,585.833 554.167,596.5 564.5,607.5C 562.219,607.077 560.552,607.744 559.5,609.5C 558.208,606.263 556.374,603.263 554,600.5C 545.929,592.932 538.429,584.932 531.5,576.5C 531.5,575.833 531.833,575.5 532.5,575.5 Z"/></g>
<g><path style="opacity:1" fill="#f7ddb8" d="M 423.5,586.5 C 418.695,590.38 413.362,591.38 407.5,589.5C 413.081,589.749 418.414,588.749 423.5,586.5 Z"/></g>
<g><path style="opacity:1" fill="#f0af5c" d="M 457.5,618.5 C 455.421,618.971 453.421,619.637 451.5,620.5C 446.729,620.462 442.062,619.796 437.5,618.5C 430.012,614.542 426.346,608.208 426.5,599.5C 426.184,592.815 428.518,587.481 433.5,583.5C 446.157,575.336 456.99,577.336 466,589.5C 468.526,598.289 467.526,606.622 463,614.5C 460.833,615.488 459,616.821 457.5,618.5 Z"/></g>
<g><path style="opacity:1" fill="#f9f8f5" d="M 376.5,530.5 C 381.516,534.681 386.683,538.681 392,542.5C 400.263,536.782 409.43,534.949 419.5,537C 434.255,541.344 442.255,551.178 443.5,566.5C 447.915,566.305 452.249,566.805 456.5,568C 470.539,572.929 478.205,582.762 479.5,597.5C 482.85,597.335 486.183,597.502 489.5,598C 500.4,602.394 509.067,609.561 515.5,619.5C 514.279,620.028 513.113,620.695 512,621.5C 511.667,621.167 511.333,620.833 511,620.5C 510.02,621.981 508.853,623.315 507.5,624.5C 506.332,631.67 504.499,638.67 502,645.5C 499.383,648.985 495.883,650.652 491.5,650.5C 504.553,641.657 507.053,630.323 499,616.5C 497.385,615.614 495.885,614.614 494.5,613.5C 489.882,609.788 484.549,608.622 478.5,610C 477.584,610.278 476.918,610.778 476.5,611.5C 471.025,613.136 466.858,616.47 464,621.5C 463.501,627.491 463.334,633.491 463.5,639.5C 462.717,637.924 461.55,636.591 460,635.5C 459.333,632.5 459.333,629.5 460,626.5C 460.925,625.953 461.758,625.287 462.5,624.5C 460.567,624.007 458.234,623.507 455.5,623C 457.398,622.1 459.064,620.934 460.5,619.5C 459.675,618.614 458.675,618.281 457.5,618.5C 459,616.821 460.833,615.488 463,614.5C 467.526,606.622 468.526,598.289 466,589.5C 456.99,577.336 446.157,575.336 433.5,583.5C 433.5,582.5 433.5,581.5 433.5,580.5C 429.918,582.082 426.584,584.082 423.5,586.5C 426.553,583.61 429.053,580.276 431,576.5C 431.667,570.833 431.667,565.167 431,559.5C 427.852,554.509 423.686,550.843 418.5,548.5C 418.189,547.522 417.522,546.855 416.5,546.5C 414.253,547.374 411.92,547.708 409.5,547.5C 402.018,546.219 394.351,544.552 386.5,542.5C 385.469,541.3 384.635,539.966 384,538.5C 381.071,539.276 379.404,537.943 379,534.5C 378.097,533.299 376.931,532.465 375.5,532C 376.056,531.617 376.389,531.117 376.5,530.5 Z"/></g>
<g><path style="opacity:1" fill="#daa267" d="M 647.5,593.5 C 646.889,597.998 646.223,602.498 645.5,607C 646.363,611.48 647.03,615.98 647.5,620.5C 644.766,613.862 643.932,606.862 645,599.5C 645.566,597.277 646.4,595.277 647.5,593.5 Z"/></g>
<g><path style="opacity:1" fill="#d09479" d="M 494.5,613.5 C 490.636,612.601 486.803,611.601 483,610.5C 480.813,610.788 478.646,611.122 476.5,611.5C 476.918,610.778 477.584,610.278 478.5,610C 484.549,608.622 489.882,609.788 494.5,613.5 Z"/></g>
<g><path style="opacity:1" fill="#f1ce98" d="M 437.5,618.5 C 442.062,619.796 446.729,620.462 451.5,620.5C 446.592,621.969 441.926,621.302 437.5,618.5 Z"/></g>
<g><path style="opacity:1" fill="#db8350" d="M 494.5,613.5 C 495.885,614.614 497.385,615.614 499,616.5C 507.053,630.323 504.553,641.657 491.5,650.5C 483.448,653.883 476.115,652.716 469.5,647C 467.636,644.312 465.636,641.812 463.5,639.5C 463.334,633.491 463.501,627.491 464,621.5C 466.858,616.47 471.025,613.136 476.5,611.5C 478.646,611.122 480.813,610.788 483,610.5C 486.803,611.601 490.636,612.601 494.5,613.5 Z"/></g>
<g><path style="opacity:1" fill="#4d312b" d="M 342.5,737.5 C 342.377,739.208 342.044,741.041 341.5,743C 345.307,748.323 345.307,753.656 341.5,759C 341.833,759.333 342.167,759.667 342.5,760C 341.107,761.171 340.273,762.671 340,764.5C 337.879,760.284 336.379,755.951 335.5,751.5C 336.5,751.5 337.5,751.5 338.5,751.5C 338.851,746.243 337.518,741.576 334.5,737.5C 333.589,741.12 332.922,744.787 332.5,748.5C 332.709,749.994 333.376,751.161 334.5,752C 332.997,757.02 332.33,762.187 332.5,767.5C 330.712,767.215 329.045,767.548 327.5,768.5C 326.919,770.724 325.586,771.557 323.5,771C 324.773,768.807 325.106,766.64 324.5,764.5C 325.522,763.646 326.355,762.646 327,761.5C 327.667,756.5 327.667,751.5 327,746.5C 325.644,745.62 324.144,745.286 322.5,745.5C 321.5,744.833 320.5,744.167 319.5,743.5C 319.736,741.951 319.736,740.451 319.5,739C 318.234,738.691 317.067,738.191 316,737.5C 300.496,738.643 284.996,738.81 269.5,738C 268.975,738.692 268.308,739.192 267.5,739.5C 266.259,750.511 266.259,761.511 267.5,772.5C 283.529,772.804 299.529,772.47 315.5,771.5C 318.492,771.809 319.825,773.476 319.5,776.5C 303.509,777.166 287.509,777.5 271.5,777.5C 271.281,778.675 271.614,779.675 272.5,780.5C 275.11,779.884 277.777,779.551 280.5,779.5C 289.827,780.111 299.16,780.611 308.5,781C 311.923,782.904 315.59,783.737 319.5,783.5C 319.5,784.5 319.5,785.5 319.5,786.5C 325.053,787.648 330.553,787.648 336,786.5C 336.465,787.931 337.299,789.097 338.5,790C 337.747,791.487 336.914,791.654 336,790.5C 335.814,792.9 335.314,795.234 334.5,797.5C 330.547,794.69 326.213,792.69 321.5,791.5C 320.914,791.709 320.414,792.043 320,792.5C 302.696,790.618 285.196,789.785 267.5,790C 266.672,790.915 265.672,791.581 264.5,792C 264.13,796.022 264.796,800.022 266.5,804C 266.456,805.764 266.122,807.431 265.5,809C 266.094,809.464 266.761,809.631 267.5,809.5C 265.786,814.362 262.286,816.696 257,816.5C 251.485,815.987 248.151,812.987 247,807.5C 246.333,780.833 246.333,754.167 247,727.5C 248.061,724.438 249.894,721.938 252.5,720C 273.077,718.357 293.744,718.024 314.5,719C 326.695,720.925 336.029,727.092 342.5,737.5 Z"/></g>
<g><path style="opacity:1" fill="#4b302a" d="M 591.5,746.5 C 584.685,749.058 577.685,751.391 570.5,753.5C 562.825,746.665 553.825,742.498 543.5,741C 526.833,740.667 510.167,740.333 493.5,740C 485.038,732.219 485.704,725.219 495.5,719C 511.5,718.333 527.5,718.333 543.5,719C 563.378,721.761 579.378,730.928 591.5,746.5 Z"/></g>
<g><path style="opacity:1" fill="#492f2b" d="M 625.5,718.5 C 633.256,717.467 638.756,720.467 642,727.5C 641.289,741.445 634.455,745.612 621.5,740C 615.342,731.446 616.676,724.279 625.5,718.5 Z"/></g>
<g><path style="opacity:1" fill="#4a2f29" d="M 367.5,718.5 C 372.503,718.085 376.67,719.752 380,723.5C 391.583,742.336 403.417,761.002 415.5,779.5C 428.291,760.085 440.958,740.585 453.5,721C 465.423,716.936 470.923,721.102 470,733.5C 456.062,756.434 441.728,779.1 427,801.5C 426.667,815.167 426.333,828.833 426,842.5C 422.855,849.128 417.688,851.295 410.5,849C 408.291,847.127 406.458,844.96 405,842.5C 404.667,828.833 404.333,815.167 404,801.5C 389.667,778.833 375.333,756.167 361,733.5C 360.333,730.833 360.333,728.167 361,725.5C 362.694,722.642 364.861,720.309 367.5,718.5 Z"/></g>
<g><path style="opacity:1" fill="#efab5c" d="M 761.5,799.5 C 760.5,799.5 759.5,799.5 758.5,799.5C 758.5,800.833 758.5,802.167 758.5,803.5C 757.167,803.5 755.833,803.5 754.5,803.5C 754.5,802.167 754.5,800.833 754.5,799.5C 755.5,799.5 756.5,799.5 757.5,799.5C 757.937,796.193 757.27,793.193 755.5,790.5C 754.815,792.781 754.649,795.114 755,797.5C 753.829,798.893 752.329,799.727 750.5,800C 751.517,801.049 751.684,802.216 751,803.5C 750.549,801.071 749.715,800.904 748.5,803C 749.554,804.388 749.72,805.888 749,807.5C 747.283,805.127 745.783,802.627 744.5,800C 745.449,799.383 746.282,799.549 747,800.5C 747.925,799.953 748.758,799.287 749.5,798.5C 747.958,790.097 743.125,786.097 735,786.5C 734.506,788.134 734.34,789.801 734.5,791.5C 738.959,791.919 741.959,794.252 743.5,798.5C 743.167,799.167 742.833,799.833 742.5,800.5C 744.142,803.819 745.809,807.153 747.5,810.5C 746.453,812.056 745.786,813.723 745.5,815.5C 743.048,809.937 740.048,804.604 736.5,799.5C 732.349,788.17 727.015,777.503 720.5,767.5C 719.686,765.234 719.186,762.9 719,760.5C 714.71,752.86 710.377,745.193 706,737.5C 701.889,723.957 706.722,718.124 720.5,720C 722,721.5 723.5,723 725,724.5C 737.82,749.094 749.987,774.094 761.5,799.5 Z"/></g>
<g><path style="opacity:1" fill="#4b2e2a" d="M 640.5,841.5 C 637.609,848.652 632.276,851.152 624.5,849C 622.235,847.242 620.568,845.075 619.5,842.5C 620.498,814.338 620.831,786.005 620.5,757.5C 626.833,757.5 633.167,757.5 639.5,757.5C 639.169,785.672 639.502,813.672 640.5,841.5 Z"/></g>
<g><path style="opacity:1" fill="#4b312b" d="M 493.5,751.5 C 500.648,749.705 505.815,752.039 509,758.5C 509.667,786.5 509.667,814.5 509,842.5C 505.716,848.887 500.549,851.053 493.5,849C 490.865,847.039 489.031,844.539 488,841.5C 487.333,813.833 487.333,786.167 488,758.5C 489.371,755.734 491.204,753.401 493.5,751.5 Z"/></g>
<g><path style="opacity:1" fill="#311d1a" d="M 640.5,756.5 C 640.5,784.833 640.5,813.167 640.5,841.5C 639.502,813.672 639.169,785.672 639.5,757.5C 633.167,757.5 626.833,757.5 620.5,757.5C 620.831,786.005 620.498,814.338 619.5,842.5C 619.5,842.167 619.5,841.833 619.5,841.5C 619.5,813.167 619.5,784.833 619.5,756.5C 626.5,756.5 633.5,756.5 640.5,756.5 Z"/></g>
<g><path style="opacity:1" fill="#968b87" d="M 640.5,756.5 C 633.5,756.5 626.5,756.5 619.5,756.5C 619.5,784.833 619.5,813.167 619.5,841.5C 618.502,813.005 618.169,784.338 618.5,755.5C 626.019,755.175 633.352,755.508 640.5,756.5 Z"/></g>
<g><path style="opacity:1" fill="#efac5d" d="M 693.5,757.5 C 705.599,756.428 710.433,761.761 708,773.5C 695.761,798.31 683.261,822.977 670.5,847.5C 658.578,852.805 652.412,849.138 652,836.5C 661.727,815.185 671.727,794.185 682,773.5C 685.34,770.163 687.34,766.163 688,761.5C 690.015,760.303 691.849,758.97 693.5,757.5 Z"/></g>
<g><path style="opacity:1" fill="#efa95b" d="M 591.5,746.5 C 600.712,758.486 604.712,772.152 603.5,787.5C 601.306,818.03 585.639,838.03 556.5,847.5C 546.925,849.617 537.258,849.95 527.5,848.5C 520.428,844.494 518.761,838.827 522.5,831.5C 523.749,829.864 525.416,828.697 527.5,828C 546.985,830.408 562.818,824.241 575,809.5C 583.811,792.352 583.644,775.352 574.5,758.5C 572.389,757.395 571.055,755.729 570.5,753.5C 577.685,751.391 584.685,749.058 591.5,746.5 Z"/></g>
<g><path style="opacity:1" fill="#f2ac57" d="M 761.5,799.5 C 761.833,799.5 762.167,799.5 762.5,799.5C 762.208,802.765 762.875,805.765 764.5,808.5C 764.182,809.647 763.516,810.481 762.5,811C 764.134,811.494 765.801,811.66 767.5,811.5C 768.589,815.011 768.589,818.511 767.5,822C 768.291,826.337 769.457,830.504 771,834.5C 771.761,831.569 773.594,829.903 776.5,829.5C 778.088,833.346 779.088,837.346 779.5,841.5C 779.396,843.703 778.73,845.703 777.5,847.5C 774.179,847.464 771.012,848.131 768,849.5C 766.061,849.046 764.228,848.379 762.5,847.5C 755.63,837.588 749.964,826.922 745.5,815.5C 745.786,813.723 746.453,812.056 747.5,810.5C 745.809,807.153 744.142,803.819 742.5,800.5C 742.833,799.833 743.167,799.167 743.5,798.5C 741.959,794.252 738.959,791.919 734.5,791.5C 734.34,789.801 734.506,788.134 735,786.5C 743.125,786.097 747.958,790.097 749.5,798.5C 748.758,799.287 747.925,799.953 747,800.5C 746.282,799.549 745.449,799.383 744.5,800C 745.783,802.627 747.283,805.127 749,807.5C 749.72,805.888 749.554,804.388 748.5,803C 749.715,800.904 750.549,801.071 751,803.5C 751.684,802.216 751.517,801.049 750.5,800C 752.329,799.727 753.829,798.893 755,797.5C 754.649,795.114 754.815,792.781 755.5,790.5C 757.27,793.193 757.937,796.193 757.5,799.5C 756.5,799.5 755.5,799.5 754.5,799.5C 754.5,800.833 754.5,802.167 754.5,803.5C 755.833,803.5 757.167,803.5 758.5,803.5C 758.5,802.167 758.5,800.833 758.5,799.5C 759.5,799.5 760.5,799.5 761.5,799.5 Z"/></g>
<g><path style="opacity:1" fill="#edb065" d="M 762.5,799.5 C 767.65,810.538 773.15,821.538 779,832.5C 780.534,835.595 780.701,838.595 779.5,841.5C 779.088,837.346 778.088,833.346 776.5,829.5C 773.594,829.903 771.761,831.569 771,834.5C 769.457,830.504 768.291,826.337 767.5,822C 768.589,818.511 768.589,815.011 767.5,811.5C 765.801,811.66 764.134,811.494 762.5,811C 763.516,810.481 764.182,809.647 764.5,808.5C 762.875,805.765 762.208,802.765 762.5,799.5 Z"/></g>
<g><path style="opacity:1" fill="#4a2f2b" d="M 319.5,743.5 C 317.86,742.68 316.193,741.847 314.5,741C 299.17,740.5 283.837,740.333 268.5,740.5C 268.5,750.5 268.5,760.5 268.5,770.5C 284.17,770.667 299.837,770.5 315.5,770C 325.83,764.173 328.163,756.006 322.5,745.5C 324.144,745.286 325.644,745.62 327,746.5C 327.667,751.5 327.667,756.5 327,761.5C 326.355,762.646 325.522,763.646 324.5,764.5C 325.106,766.64 324.773,768.807 323.5,771C 325.586,771.557 326.919,770.724 327.5,768.5C 329.045,767.548 330.712,767.215 332.5,767.5C 332.33,762.187 332.997,757.02 334.5,752C 333.376,751.161 332.709,749.994 332.5,748.5C 332.922,744.787 333.589,741.12 334.5,737.5C 337.518,741.576 338.851,746.243 338.5,751.5C 337.5,751.5 336.5,751.5 335.5,751.5C 336.379,755.951 337.879,760.284 340,764.5C 340.273,762.671 341.107,761.171 342.5,760C 342.167,759.667 341.833,759.333 341.5,759C 345.307,753.656 345.307,748.323 341.5,743C 342.044,741.041 342.377,739.208 342.5,737.5C 349.552,753.177 347.219,767.343 335.5,780C 351.717,792.995 355.883,809.161 348,828.5C 341.846,839.84 332.346,846.674 319.5,849C 297.078,849.978 274.745,849.645 252.5,848C 245.033,839.93 246.033,833.263 255.5,828C 275.833,827.667 296.167,827.333 316.5,827C 327.424,824.004 331.924,816.838 330,805.5C 327.333,798.903 322.5,794.737 315.5,793C 299.837,792.5 284.17,792.333 268.5,792.5C 268.786,798.259 268.452,803.925 267.5,809.5C 266.761,809.631 266.094,809.464 265.5,809C 266.122,807.431 266.456,805.764 266.5,804C 264.796,800.022 264.13,796.022 264.5,792C 265.672,791.581 266.672,790.915 267.5,790C 285.196,789.785 302.696,790.618 320,792.5C 320.414,792.043 320.914,791.709 321.5,791.5C 326.213,792.69 330.547,794.69 334.5,797.5C 335.314,795.234 335.814,792.9 336,790.5C 336.914,791.654 337.747,791.487 338.5,790C 337.299,789.097 336.465,787.931 336,786.5C 330.553,787.648 325.053,787.648 319.5,786.5C 319.5,785.5 319.5,784.5 319.5,783.5C 315.59,783.737 311.923,782.904 308.5,781C 299.16,780.611 289.827,780.111 280.5,779.5C 277.777,779.551 275.11,779.884 272.5,780.5C 271.614,779.675 271.281,778.675 271.5,777.5C 287.509,777.5 303.509,777.166 319.5,776.5C 319.825,773.476 318.492,771.809 315.5,771.5C 299.529,772.47 283.529,772.804 267.5,772.5C 266.259,761.511 266.259,750.511 267.5,739.5C 268.308,739.192 268.975,738.692 269.5,738C 284.996,738.81 300.496,738.643 316,737.5C 317.067,738.191 318.234,738.691 319.5,739C 319.736,740.451 319.736,741.951 319.5,743.5 Z"/></g>
<g><path style="opacity:1" fill="#f9f8f8" d="M 319.5,743.5 C 320.5,744.167 321.5,744.833 322.5,745.5C 328.163,756.006 325.83,764.173 315.5,770C 299.837,770.5 284.17,770.667 268.5,770.5C 268.5,760.5 268.5,750.5 268.5,740.5C 283.837,740.333 299.17,740.5 314.5,741C 316.193,741.847 317.86,742.68 319.5,743.5 Z"/></g>
<g><path style="opacity:1" fill="#edc394" d="M 762.5,847.5 C 764.228,848.379 766.061,849.046 768,849.5C 771.012,848.131 774.179,847.464 777.5,847.5C 775.241,849.755 772.408,850.755 769,850.5C 766.04,850.959 763.874,849.959 762.5,847.5 Z"/></g>
<g><path style="opacity:1" fill="#fdf5e2" d="M 522.5,831.5 C 518.761,838.827 520.428,844.494 527.5,848.5C 537.258,849.95 546.925,849.617 556.5,847.5C 554.974,849.13 552.974,849.963 550.5,850C 541.68,850.188 533.013,850.855 524.5,852C 521.876,851.424 521.209,850.09 522.5,848C 517.262,842.305 517.262,836.805 522.5,831.5 Z"/></g>
<g><path style="opacity:1" fill="#97847e" d="M 646.5,880.5 C 641.489,880.334 636.489,880.501 631.5,881C 633.708,881.191 635.708,881.691 637.5,882.5C 635.167,882.5 632.833,882.5 630.5,882.5C 630.5,881.5 630.5,880.5 630.5,879.5C 636.026,879.179 641.36,879.512 646.5,880.5 Z"/></g>
<g><path style="opacity:1" fill="#bfa7a4" d="M 686.5,880.5 C 691.64,879.512 696.974,879.179 702.5,879.5C 702.737,880.791 702.404,881.791 701.5,882.5C 696.944,880.558 691.944,879.892 686.5,880.5 Z"/></g>
<g><path style="opacity:1" fill="#462a27" d="M 686.5,880.5 C 691.944,879.892 696.944,880.558 701.5,882.5C 699.5,882.5 697.5,882.5 695.5,882.5C 695.144,888.077 694.144,893.41 692.5,898.5C 692.5,893.167 692.5,887.833 692.5,882.5C 689.918,882.975 687.918,882.308 686.5,880.5 Z"/></g>
<g><path style="opacity:1" fill="#9b8485" d="M 262.5,880.5 C 262.5,880.167 262.5,879.833 262.5,879.5C 263.5,879.5 264.5,879.5 265.5,879.5C 265.5,884.5 265.5,889.5 265.5,894.5C 265.138,889.579 264.138,884.913 262.5,880.5 Z"/></g>
<g><path style="opacity:1" fill="#83736a" d="M 507.5,880.5 C 511.634,879.515 515.968,879.182 520.5,879.5C 520.5,880.5 520.5,881.5 520.5,882.5C 517.167,882.5 513.833,882.5 510.5,882.5C 513.305,881.681 516.305,881.181 519.5,881C 515.514,880.501 511.514,880.334 507.5,880.5 Z"/></g>
<g><path style="opacity:1" fill="#442f2e" d="M 301.5,879.5 C 312.915,879.413 316.749,884.746 313,895.5C 307.942,900.383 302.609,900.716 297,896.5C 292.762,889.228 294.262,883.561 301.5,879.5 Z"/></g>
<g><path style="opacity:1" fill="#442f2c" d="M 379.5,879.5 C 390.176,879.328 394.343,884.328 392,894.5C 385.508,901.425 379.508,901.092 374,893.5C 373.333,891.167 373.333,888.833 374,886.5C 375.666,884.004 377.5,881.671 379.5,879.5 Z"/></g>
<g><path style="opacity:1" fill="#462e2c" d="M 487.5,880.5 C 484.663,882.402 481.329,883.069 477.5,882.5C 477.5,884.5 477.5,886.5 477.5,888.5C 489.5,889.167 489.5,889.833 477.5,890.5C 477.5,892.5 477.5,894.5 477.5,896.5C 481.012,895.945 484.012,896.612 486.5,898.5C 482.833,898.5 479.167,898.5 475.5,898.5C 475.5,892.5 475.5,886.5 475.5,880.5C 479.5,880.5 483.5,880.5 487.5,880.5 Z"/></g>
<g><path style="opacity:1" fill="#452e2d" d="M 330.5,891.5 C 329.391,890.71 328.058,890.21 326.5,890C 328.81,889.503 331.143,889.337 333.5,889.5C 332.597,892.391 332.264,895.391 332.5,898.5C 319.861,902.026 314.695,897.36 317,884.5C 321.328,878.858 326.162,878.191 331.5,882.5C 328.667,882.582 325.667,882.748 322.5,883C 317.574,886.912 317.241,891.245 321.5,896C 324.167,896.667 326.833,896.667 329.5,896C 330.38,894.644 330.714,893.144 330.5,891.5 Z"/></g>
<g><path style="opacity:1" fill="#503531" d="M 428.5,880.5 C 428.5,881.167 428.5,881.833 428.5,882.5C 426.5,882.5 424.5,882.5 422.5,882.5C 421.833,887.681 421.167,893.015 420.5,898.5C 419.833,893.015 419.167,887.681 418.5,882.5C 416.396,882.799 414.396,882.466 412.5,881.5C 412.709,880.914 413.043,880.414 413.5,880C 418.684,879.184 423.684,879.35 428.5,880.5 Z"/></g>
<g><path style="opacity:1" fill="#483531" d="M 541.5,879.5 C 552.195,879.345 556.362,884.345 554,894.5C 547.461,901.416 541.461,901.083 536,893.5C 535.333,890.833 535.333,888.167 536,885.5C 537.36,882.977 539.193,880.977 541.5,879.5 Z"/></g>
<g><path style="opacity:1" fill="#3c2b28" d="M 779.5,880.5 C 779.5,880.833 779.5,881.167 779.5,881.5C 776.167,881.5 772.833,881.5 769.5,881.5C 769.5,883.833 769.5,886.167 769.5,888.5C 773.012,887.945 776.012,888.612 778.5,890.5C 775.5,890.5 772.5,890.5 769.5,890.5C 769.5,892.5 769.5,894.5 769.5,896.5C 773.329,895.931 776.663,896.598 779.5,898.5C 775.5,898.5 771.5,898.5 767.5,898.5C 767.5,892.5 767.5,886.5 767.5,880.5C 771.5,880.5 775.5,880.5 779.5,880.5 Z"/></g>
<g><path style="opacity:1" fill="#7b6662" d="M 487.5,880.5 C 483.5,880.5 479.5,880.5 475.5,880.5C 475.5,886.5 475.5,892.5 475.5,898.5C 479.167,898.5 482.833,898.5 486.5,898.5C 482.702,899.483 478.702,899.817 474.5,899.5C 474.5,892.833 474.5,886.167 474.5,879.5C 479.032,879.182 483.366,879.515 487.5,880.5 Z"/></g>
<g><path style="opacity:1" fill="#e9e2de" d="M 254.5,882.5 C 256.273,883.314 256.773,884.648 256,886.5C 254.211,888.229 252.044,888.896 249.5,888.5C 248.539,886.735 248.205,884.735 248.5,882.5C 250.5,882.5 252.5,882.5 254.5,882.5 Z"/></g>
<g><path style="opacity:1" fill="#9f8d8c" d="M 625.5,898.5 C 626.5,898.5 627.5,898.5 628.5,898.5C 628.829,892.463 628.496,886.463 627.5,880.5C 626.672,885.132 626.172,889.798 626,894.5C 625.283,893.956 624.783,893.289 624.5,892.5C 625.485,888.366 625.818,884.032 625.5,879.5C 626.833,879.5 628.167,879.5 629.5,879.5C 629.5,886.167 629.5,892.833 629.5,899.5C 627.901,899.768 626.568,899.434 625.5,898.5 Z"/></g>
<g><path style="opacity:1" fill="#483230" d="M 281.5,898.5 C 279.871,896.804 280.204,895.804 282.5,895.5C 287.881,898.931 290.214,897.597 289.5,891.5C 286.126,891.203 283.293,889.87 281,887.5C 280.825,881.022 283.991,878.522 290.5,880C 291.357,880.689 292.023,881.522 292.5,882.5C 289.627,882.876 286.627,882.876 283.5,882.5C 283.343,883.873 283.51,885.207 284,886.5C 286.557,888.189 289.391,889.356 292.5,890C 294.444,894.035 293.444,897.035 289.5,899C 286.779,899.602 284.113,899.435 281.5,898.5 Z"/></g>
<g><path style="opacity:1" fill="#f5f3f1" d="M 381.5,881.5 C 389.658,882.477 392.158,886.811 389,894.5C 382.43,899.137 378.264,897.47 376.5,889.5C 376.672,885.807 378.339,883.141 381.5,881.5 Z"/></g>
<g><path style="opacity:1" fill="#a48e8b" d="M 410.5,880.5 C 408.862,884.913 407.862,889.579 407.5,894.5C 407.5,889.5 407.5,884.5 407.5,879.5C 408.791,879.263 409.791,879.596 410.5,880.5 Z"/></g>
<g><path style="opacity:1" fill="#f8f5f3" d="M 541.5,882.5 C 549.494,881.329 552.994,884.663 552,892.5C 550.471,895.516 547.971,896.849 544.5,896.5C 542.9,896.449 541.4,896.116 540,895.5C 537.57,890.696 538.07,886.363 541.5,882.5 Z"/></g>
<g><path style="opacity:1" fill="#402325" d="M 745.5,880.5 C 745.5,886.5 745.5,892.5 745.5,898.5C 744.184,895.913 743.517,892.913 743.5,889.5C 743.517,886.087 744.184,883.087 745.5,880.5 Z"/></g>
<g><path style="opacity:1" fill="#593e37" d="M 524.5,880.5 C 525.488,885.64 525.821,890.974 525.5,896.5C 528.5,896.5 531.5,896.5 534.5,896.5C 534.5,897.5 534.5,898.5 534.5,899.5C 530.298,899.817 526.298,899.483 522.5,898.5C 521.88,892.074 522.547,886.074 524.5,880.5 Z"/></g>
<g><path style="opacity:1" fill="#402320" d="M 646.5,880.5 C 645.082,882.308 643.082,882.975 640.5,882.5C 639.673,887.651 639.173,892.984 639,898.5C 638.827,892.984 638.327,887.651 637.5,882.5C 635.708,881.691 633.708,881.191 631.5,881C 636.489,880.501 641.489,880.334 646.5,880.5 Z"/></g>
<g><path style="opacity:1" fill="#8a7973" d="M 664.5,880.5 C 663.5,880.5 662.5,880.5 661.5,880.5C 660.88,886.926 661.547,892.926 663.5,898.5C 662.791,899.404 661.791,899.737 660.5,899.5C 660.5,892.833 660.5,886.167 660.5,879.5C 662.099,879.232 663.432,879.566 664.5,880.5 Z"/></g>
<g><path style="opacity:1" fill="#391f14" d="M 681.5,880.5 C 682.818,883.258 683.485,886.424 683.5,890C 683.167,893.167 682.833,896.333 682.5,899.5C 681.504,893.202 681.17,886.868 681.5,880.5 Z"/></g>
<g><path style="opacity:1" fill="#584542" d="M 724.5,879.5 C 729.833,879.5 735.167,879.5 740.5,879.5C 740.5,880.5 740.5,881.5 740.5,882.5C 738.5,882.5 736.5,882.5 734.5,882.5C 734.5,888.167 734.5,893.833 734.5,899.5C 733.5,899.5 732.5,899.5 731.5,899.5C 731.5,893.833 731.5,888.167 731.5,882.5C 729.167,882.5 726.833,882.5 724.5,882.5C 724.5,881.5 724.5,880.5 724.5,879.5 Z"/></g>
<g><path style="opacity:1" fill="#7e6a68" d="M 745.5,880.5 C 744.184,883.087 743.517,886.087 743.5,889.5C 743.517,892.913 744.184,895.913 745.5,898.5C 744.791,899.404 743.791,899.737 742.5,899.5C 742.5,892.833 742.5,886.167 742.5,879.5C 743.791,879.263 744.791,879.596 745.5,880.5 Z"/></g>
<g><path style="opacity:1" fill="#ada29f" d="M 779.5,881.5 C 776.713,882.477 773.713,882.81 770.5,882.5C 770.5,884.167 770.5,885.833 770.5,887.5C 773.5,887.5 776.5,887.5 779.5,887.5C 779.737,888.791 779.404,889.791 778.5,890.5C 776.012,888.612 773.012,887.945 769.5,888.5C 769.5,886.167 769.5,883.833 769.5,881.5C 772.833,881.5 776.167,881.5 779.5,881.5 Z"/></g>
<g><path style="opacity:1" fill="#624a47" d="M 256.5,880.5 C 253.102,880.18 249.768,880.513 246.5,881.5C 249.093,881.308 251.76,881.641 254.5,882.5C 252.5,882.5 250.5,882.5 248.5,882.5C 248.205,884.735 248.539,886.735 249.5,888.5C 249.5,889.167 249.5,889.833 249.5,890.5C 248.539,892.265 248.205,894.265 248.5,896.5C 250.833,896.5 253.167,896.5 255.5,896.5C 252.695,897.319 249.695,897.819 246.5,898C 250.152,898.499 253.818,898.665 257.5,898.5C 253.702,899.483 249.702,899.817 245.5,899.5C 245.5,892.833 245.5,886.167 245.5,879.5C 249.371,879.185 253.038,879.518 256.5,880.5 Z"/></g>
<g><path style="opacity:1" fill="#3d2623" d="M 256.5,880.5 C 257.5,880.833 258.167,881.5 258.5,882.5C 258.682,884.591 258.348,886.591 257.5,888.5C 259.854,890.246 260.854,892.579 260.5,895.5C 259.833,896.833 258.833,897.833 257.5,898.5C 253.818,898.665 250.152,898.499 246.5,898C 249.695,897.819 252.695,897.319 255.5,896.5C 256.649,896.209 257.316,895.376 257.5,894C 257.167,893.167 256.833,892.333 256.5,891.5C 254.253,890.626 251.92,890.292 249.5,890.5C 249.5,889.833 249.5,889.167 249.5,888.5C 252.044,888.896 254.211,888.229 256,886.5C 256.773,884.648 256.273,883.314 254.5,882.5C 251.76,881.641 249.093,881.308 246.5,881.5C 249.768,880.513 253.102,880.18 256.5,880.5 Z"/></g>
<g><path style="opacity:1" fill="#d4c9c3" d="M 262.5,879.5 C 262.5,879.833 262.5,880.167 262.5,880.5C 262.5,885.167 262.5,889.833 262.5,894.5C 261.833,894.833 261.167,895.167 260.5,895.5C 260.854,892.579 259.854,890.246 257.5,888.5C 258.348,886.591 258.682,884.591 258.5,882.5C 259.165,884.369 259.831,886.369 260.5,888.5C 261.167,885.358 261.834,882.358 262.5,879.5 Z"/></g>
<g><path style="opacity:1" fill="#a38e8b" d="M 333.5,889.5 C 331.143,889.337 328.81,889.503 326.5,890C 328.058,890.21 329.391,890.71 330.5,891.5C 328.833,891.5 327.167,891.5 325.5,891.5C 325.5,890.5 325.5,889.5 325.5,888.5C 328.385,888.194 331.052,888.527 333.5,889.5 Z"/></g>
<g><path style="opacity:1" fill="#533939" d="M 455.5,879.5 C 462.298,878.263 467.798,880.263 472,885.5C 473.637,891.957 471.47,896.457 465.5,899C 462.183,899.498 458.85,899.665 455.5,899.5C 455.5,892.833 455.5,886.167 455.5,879.5 Z"/></g>
<g><path style="opacity:1" fill="#faf7f6" d="M 458.5,882.5 C 468.525,881.731 471.525,885.898 467.5,895C 464.649,896.289 461.649,896.789 458.5,896.5C 458.5,891.833 458.5,887.167 458.5,882.5 Z"/></g>
<g><path style="opacity:1" fill="#4b312e" d="M 600.5,896.5 C 603.305,897.319 606.305,897.819 609.5,898C 605.514,898.499 601.514,898.666 597.5,898.5C 597.5,892.5 597.5,886.5 597.5,880.5C 601.884,880.174 606.217,880.508 610.5,881.5C 607.232,882.487 603.898,882.82 600.5,882.5C 600.5,884.5 600.5,886.5 600.5,888.5C 611.167,889.167 611.167,889.833 600.5,890.5C 600.5,892.5 600.5,894.5 600.5,896.5 Z"/></g>
<g><path style="opacity:1" fill="#796360" d="M 695.5,882.5 C 695.5,888.167 695.5,893.833 695.5,899.5C 694.209,899.737 693.209,899.404 692.5,898.5C 694.144,893.41 695.144,888.077 695.5,882.5 Z"/></g>
<g><path style="opacity:1" fill="#795953" d="M 703.5,881.5 C 703.854,887.406 704.854,893.073 706.5,898.5C 705.791,899.404 704.791,899.737 703.5,899.5C 703.5,893.5 703.5,887.5 703.5,881.5 Z"/></g>
<g><path style="opacity:1" fill="#4a3830" d="M 357.5,881.5 C 358.251,880.427 359.251,880.26 360.5,881C 362.291,883.414 363.957,885.914 365.5,888.5C 367.4,886.381 369.066,884.047 370.5,881.5C 371.5,880.167 372.5,880.167 373.5,881.5C 369.201,886.758 367.201,892.758 367.5,899.5C 366.5,899.5 365.5,899.5 364.5,899.5C 364.923,892.359 362.59,886.359 357.5,881.5 Z"/></g>
<g><path style="opacity:1" fill="#c8b9ad" d="M 524.5,880.5 C 522.547,886.074 521.88,892.074 522.5,898.5C 521.51,892.355 521.177,886.022 521.5,879.5C 522.791,879.263 523.791,879.596 524.5,880.5 Z"/></g>
<g><path style="opacity:1" fill="#3e2520" d="M 703.5,881.5 C 704.209,880.596 705.209,880.263 706.5,880.5C 706.5,886.5 706.5,892.5 706.5,898.5C 704.854,893.073 703.854,887.406 703.5,881.5 Z"/></g>
<g><path style="opacity:1" fill="#756d6b" d="M 779.5,880.5 C 775.5,880.5 771.5,880.5 767.5,880.5C 767.5,886.5 767.5,892.5 767.5,898.5C 771.5,898.5 775.5,898.5 779.5,898.5C 775.366,899.485 771.032,899.818 766.5,899.5C 766.5,892.833 766.5,886.167 766.5,879.5C 771.032,879.182 775.366,879.515 779.5,880.5 Z"/></g>
<g><path style="opacity:1" fill="#59463d" d="M 654.5,879.5 C 655.5,879.5 656.5,879.5 657.5,879.5C 657.5,886.167 657.5,892.833 657.5,899.5C 656.5,899.5 655.5,899.5 654.5,899.5C 654.5,892.833 654.5,886.167 654.5,879.5 Z"/></g>
<g><path style="opacity:1" fill="#44322f" d="M 747.5,879.5 C 748.822,879.33 749.989,879.663 751,880.5C 752.682,885.566 754.515,890.566 756.5,895.5C 758.429,890.882 760.262,886.216 762,881.5C 763.156,880.007 763.99,880.174 764.5,882C 762.193,887.756 760.193,893.59 758.5,899.5C 757.178,899.67 756.011,899.337 755,898.5C 752.004,892.341 749.504,886.008 747.5,879.5 Z"/></g>
<g><path style="opacity:1" fill="#f8f5f4" d="M 301.5,882.5 C 311.581,882.362 314.248,886.862 309.5,896C 300.844,898.677 297.011,895.511 298,886.5C 299.376,885.295 300.542,883.962 301.5,882.5 Z"/></g>
<g><path style="opacity:1" fill="#583531" d="M 577.5,887.5 C 577.44,886.957 577.107,886.624 576.5,886.5C 576.118,890.916 575.118,894.916 573.5,898.5C 573.5,892.5 573.5,886.5 573.5,880.5C 574.833,880.5 576.167,880.5 577.5,880.5C 578.845,885.525 581.012,890.192 584,894.5C 585.726,890.047 587.726,885.714 590,881.5C 591.356,880.62 592.856,880.286 594.5,880.5C 594.5,886.833 594.5,893.167 594.5,899.5C 593.5,899.5 592.5,899.5 591.5,899.5C 591.666,894.821 591.499,890.155 591,885.5C 588.738,890.36 586.238,895.027 583.5,899.5C 580.995,895.822 578.995,891.822 577.5,887.5 Z"/></g>
<g><path style="opacity:1" fill="#5d504d" d="M 637.5,882.5 C 638.327,887.651 638.827,892.984 639,898.5C 639.173,892.984 639.673,887.651 640.5,882.5C 640.5,888.167 640.5,893.833 640.5,899.5C 639.5,899.5 638.5,899.5 637.5,899.5C 637.5,893.833 637.5,888.167 637.5,882.5 Z"/></g>
<g><path style="opacity:1" fill="#49332c" d="M 664.5,880.5 C 667.409,885.311 670.576,889.978 674,894.5C 674.499,889.845 674.666,885.179 674.5,880.5C 675.5,880.5 676.5,880.5 677.5,880.5C 677.5,886.833 677.5,893.167 677.5,899.5C 676.022,899.762 674.689,899.429 673.5,898.5C 670.086,894.006 666.919,889.34 664,884.5C 663.501,889.155 663.334,893.821 663.5,898.5C 661.547,892.926 660.88,886.926 661.5,880.5C 662.5,880.5 663.5,880.5 664.5,880.5 Z"/></g>
<g><path style="opacity:1" fill="#4c312f" d="M 341.5,880.5 C 342.978,880.238 344.311,880.571 345.5,881.5C 348.408,887.309 350.741,893.309 352.5,899.5C 351.325,899.719 350.325,899.386 349.5,898.5C 349.298,894.629 347.298,892.963 343.5,893.5C 339.299,893.207 337.299,895.207 337.5,899.5C 336.325,899.719 335.325,899.386 334.5,898.5C 336.846,892.479 339.18,886.479 341.5,880.5 Z"/></g>
<g><path style="opacity:1" fill="#efe9e2" d="M 342.5,883.5 C 344.555,885.234 345.888,887.567 346.5,890.5C 344.604,891.466 342.604,891.799 340.5,891.5C 341.167,888.833 341.833,886.167 342.5,883.5 Z"/></g>
<g><path style="opacity:1" fill="#402420" d="M 557.5,880.5 C 561.182,880.335 564.848,880.501 568.5,881C 571.167,884.333 571.167,887.667 568.5,891C 565.518,891.498 562.518,891.665 559.5,891.5C 559.813,894.247 559.48,896.914 558.5,899.5C 557.504,893.202 557.17,886.868 557.5,880.5 Z"/></g>
<g><path style="opacity:1" fill="#a39991" d="M 560.5,882.5 C 560.5,884.5 560.5,886.5 560.5,888.5C 562.5,888.5 564.5,888.5 566.5,888.5C 564.393,889.468 562.059,889.802 559.5,889.5C 559.198,886.941 559.532,884.607 560.5,882.5 Z"/></g>
<g><path style="opacity:1" fill="#f8f2eb" d="M 560.5,882.5 C 562.857,882.337 565.19,882.503 567.5,883C 568.98,885.235 568.647,887.068 566.5,888.5C 564.5,888.5 562.5,888.5 560.5,888.5C 560.5,886.5 560.5,884.5 560.5,882.5 Z"/></g>
<g><path style="opacity:1" fill="#47302f" d="M 624.5,892.5 C 624.783,893.289 625.283,893.956 626,894.5C 626.172,889.798 626.672,885.132 627.5,880.5C 628.496,886.463 628.829,892.463 628.5,898.5C 627.5,898.5 626.5,898.5 625.5,898.5C 622.555,893.714 619.388,889.048 616,884.5C 615.501,889.489 615.334,894.489 615.5,899.5C 614.5,899.5 613.5,899.5 612.5,899.5C 612.5,892.833 612.5,886.167 612.5,879.5C 614.39,879.297 615.89,879.963 617,881.5C 619.51,885.195 622.01,888.862 624.5,892.5 Z"/></g>
<g><path style="opacity:1" fill="#483331" d="M 715.5,880.5 C 717.144,880.286 718.644,880.62 720,881.5C 722.363,886.921 724.529,892.421 726.5,898C 726.15,899.257 725.483,899.591 724.5,899C 723.74,897.559 723.074,896.059 722.5,894.5C 719.554,893.345 716.554,893.179 713.5,894C 712.139,895.584 711.472,897.418 711.5,899.5C 710.325,899.719 709.325,899.386 708.5,898.5C 710.853,892.468 713.186,886.468 715.5,880.5 Z"/></g>
<g><path style="opacity:1" fill="#ece3e0" d="M 717.5,883.5 C 719.267,885.792 720.267,888.458 720.5,891.5C 718.396,891.799 716.396,891.466 714.5,890.5C 715.788,888.261 716.788,885.928 717.5,883.5 Z"/></g>
<g><path style="opacity:1" fill="#f6f2f0" d="M 249.5,890.5 C 251.92,890.292 254.253,890.626 256.5,891.5C 256.833,892.333 257.167,893.167 257.5,894C 257.316,895.376 256.649,896.209 255.5,896.5C 253.167,896.5 250.833,896.5 248.5,896.5C 248.205,894.265 248.539,892.265 249.5,890.5 Z"/></g>
<g><path style="opacity:1" fill="#442525" d="M 507.5,880.5 C 511.514,880.334 515.514,880.501 519.5,881C 516.305,881.181 513.305,881.681 510.5,882.5C 509.513,887.305 509.179,892.305 509.5,897.5C 512.833,897.5 516.167,897.5 519.5,897.5C 515.971,899.423 511.971,900.089 507.5,899.5C 507.5,893.167 507.5,886.833 507.5,880.5 Z"/></g>
<g><path style="opacity:1" fill="#d7c9ca" d="M 277.5,880.5 C 278.325,884.647 278.825,888.981 279,893.5C 280.302,894.085 281.469,894.751 282.5,895.5C 280.204,895.804 279.871,896.804 281.5,898.5C 281.565,898.938 281.399,899.272 281,899.5C 279.67,898.418 278.17,897.751 276.5,897.5C 277.407,891.894 277.74,886.227 277.5,880.5 Z"/></g>
<g><path style="opacity:1" fill="#49322e" d="M 407.5,894.5 C 407.862,889.579 408.862,884.913 410.5,880.5C 410.666,885.511 410.499,890.511 410,895.5C 408.607,898.366 406.274,899.699 403,899.5C 398.69,899.68 396.024,897.68 395,893.5C 394.501,889.179 394.334,884.846 394.5,880.5C 395.5,880.5 396.5,880.5 397.5,880.5C 397.334,885.179 397.501,889.845 398,894.5C 401.296,898.457 404.463,898.457 407.5,894.5 Z"/></g>
<g><path style="opacity:1" fill="#888781" d="M 577.5,887.5 C 576.517,891.298 576.183,895.298 576.5,899.5C 575.209,899.737 574.209,899.404 573.5,898.5C 575.118,894.916 576.118,890.916 576.5,886.5C 577.107,886.624 577.44,886.957 577.5,887.5 Z"/></g>
<g><path style="opacity:1" fill="#412422" d="M 262.5,880.5 C 264.138,884.913 265.138,889.579 265.5,894.5C 268.54,898.473 271.706,898.473 275,894.5C 274.886,889.394 275.72,884.727 277.5,880.5C 277.74,886.227 277.407,891.894 276.5,897.5C 272.608,899.843 268.608,900.009 264.5,898C 263.177,897.184 262.511,896.017 262.5,894.5C 262.5,889.833 262.5,885.167 262.5,880.5 Z"/></g>
<g><path style="opacity:1" fill="#ad9b99" d="M 418.5,882.5 C 419.167,887.681 419.833,893.015 420.5,898.5C 421.167,893.015 421.833,887.681 422.5,882.5C 422.5,888.167 422.5,893.833 422.5,899.5C 421.167,899.5 419.833,899.5 418.5,899.5C 418.5,893.833 418.5,888.167 418.5,882.5 Z"/></g>
<g><path style="opacity:1" fill="#b8a9a7" d="M 443.5,880.5 C 444.209,879.596 445.209,879.263 446.5,879.5C 446.5,886.167 446.5,892.833 446.5,899.5C 445.167,899.5 443.833,899.5 442.5,899.5C 442.5,896.833 442.5,894.167 442.5,891.5C 439.5,891.5 436.5,891.5 433.5,891.5C 433.5,894.167 433.5,896.833 433.5,899.5C 432.167,899.5 430.833,899.5 429.5,899.5C 429.822,893.642 429.489,887.975 428.5,882.5C 428.5,881.833 428.5,881.167 428.5,880.5C 430.042,879.699 431.708,879.366 433.5,879.5C 433.5,882.167 433.5,884.833 433.5,887.5C 436.5,887.5 439.5,887.5 442.5,887.5C 442.198,884.941 442.532,882.607 443.5,880.5 Z"/></g>
<g><path style="opacity:1" fill="#3f2321" d="M 443.5,880.5 C 444.816,883.087 445.483,886.087 445.5,889.5C 445.167,892.5 444.833,895.5 444.5,898.5C 443.52,895.914 443.187,893.247 443.5,890.5C 439.833,890.5 436.167,890.5 432.5,890.5C 432.813,893.247 432.48,895.914 431.5,898.5C 430.167,892.5 430.167,886.5 431.5,880.5C 432.48,883.086 432.813,885.753 432.5,888.5C 436.167,888.5 439.833,888.5 443.5,888.5C 443.5,885.833 443.5,883.167 443.5,880.5 Z"/></g>
<g><path style="opacity:1" fill="#735c56" d="M 510.5,882.5 C 510.5,884.167 510.5,885.833 510.5,887.5C 513.5,887.5 516.5,887.5 519.5,887.5C 519.5,888.5 519.5,889.5 519.5,890.5C 516.5,890.5 513.5,890.5 510.5,890.5C 510.5,892.5 510.5,894.5 510.5,896.5C 513.713,896.19 516.713,896.523 519.5,897.5C 516.167,897.5 512.833,897.5 509.5,897.5C 509.179,892.305 509.513,887.305 510.5,882.5 Z"/></g>
<g><path style="opacity:1" fill="#502d2d" d="M 488.5,881.5 C 489.386,880.224 490.386,880.224 491.5,881.5C 493.166,886.161 494.832,890.828 496.5,895.5C 498.692,890.925 500.692,886.258 502.5,881.5C 503.365,880.417 504.365,880.251 505.5,881C 503.038,887.419 500.204,893.586 497,899.5C 496.228,899.355 495.561,899.022 495,898.5C 492.9,892.684 490.733,887.017 488.5,881.5 Z"/></g>
<g><path style="opacity:1" fill="#736460" d="M 600.5,896.5 C 603.833,896.5 607.167,896.5 610.5,896.5C 610.5,897.5 610.5,898.5 610.5,899.5C 605.968,899.818 601.634,899.485 597.5,898.5C 601.514,898.666 605.514,898.499 609.5,898C 606.305,897.819 603.305,897.319 600.5,896.5 Z"/></g>
</svg>
