<?xml version="1.0" encoding="UTF-8"?>
<!DOCTYPE svg PUBLIC "-//W3C//DTD SVG 1.1//EN" "http://www.w3.org/Graphics/SVG/1.1/DTD/svg11.dtd">
<svg xmlns="http://www.w3.org/2000/svg" version="1.1" width="1024px" height="1024px" style="shape-rendering:geometricPrecision; text-rendering:geometricPrecision; image-rendering:optimizeQuality; fill-rule:evenodd; clip-rule:evenodd" xmlns:xlink="http://www.w3.org/1999/xlink">
<g><path style="opacity:0.086" fill="#e8e2e0" d="M 632.5,718.5 C 638.695,718.363 642.028,721.363 642.5,727.5C 640.004,723.583 636.67,720.583 632.5,718.5 Z"/></g>
<g><path style="opacity:1" fill="#4d312b" d="M 254.5,718.5 C 274.5,718.5 294.5,718.5 314.5,718.5C 327.994,720.751 337.66,728.084 343.5,740.5C 343.565,740.938 343.399,741.272 343,741.5C 342.237,738.937 341.737,738.937 341.5,741.5C 344.127,745.845 344.96,750.512 344,755.5C 342.137,757.893 340.804,760.56 340,763.5C 337.973,760.779 336.473,757.779 335.5,754.5C 336.967,750.968 337.634,747.302 337.5,743.5C 336.167,743.5 334.833,743.5 333.5,743.5C 333.689,751.467 333.356,759.467 332.5,767.5C 330.712,767.215 329.045,767.548 327.5,768.5C 326.919,770.724 325.586,771.557 323.5,771C 324.833,769.333 324.833,767.667 323.5,766C 326.172,763.887 327.839,761.054 328.5,757.5C 327.844,755.547 327.511,753.547 327.5,751.5C 328.675,751.719 329.675,751.386 330.5,750.5C 327.435,746.931 323.935,743.931 320,741.5C 319.691,740.234 319.191,739.067 318.5,738C 302.167,737.333 285.833,737.333 269.5,738C 269,738.5 268.5,739 268,739.5C 268.107,749.354 267.274,759.02 265.5,768.5C 266.782,768.088 267.782,768.754 268.5,770.5C 284.995,771.332 301.662,771.832 318.5,772C 319.337,773.011 319.67,774.178 319.5,775.5C 303.568,777.23 287.568,777.896 271.5,777.5C 271.238,778.978 271.571,780.311 272.5,781.5C 274.962,780.284 277.629,779.618 280.5,779.5C 285.489,780.249 290.489,780.915 295.5,781.5C 298.7,781.399 301.7,780.732 304.5,779.5C 305.5,780.5 306.5,781.5 307.5,782.5C 295.5,783.167 283.5,783.833 271.5,784.5C 292.855,785.279 314.188,786.279 335.5,787.5C 335.238,786.022 335.571,784.689 336.5,783.5C 336.833,783.667 337.167,783.833 337.5,784C 338.92,788.841 341.586,792.841 345.5,796C 344.185,797.395 344.519,798.395 346.5,799C 344.19,799.497 341.857,799.663 339.5,799.5C 340.11,794.683 339.777,792.683 338.5,793.5C 337.5,793.5 336.5,793.5 335.5,793.5C 335.762,794.978 335.429,796.311 334.5,797.5C 331.129,795.087 327.463,793.254 323.5,792C 304.833,791.333 286.167,791.333 267.5,792C 266.833,797.667 266.167,803.333 265.5,809C 266.094,809.464 266.761,809.631 267.5,809.5C 266.135,812.865 263.801,815.199 260.5,816.5C 258.167,816.5 255.833,816.5 253.5,816.5C 250.377,814.279 248.211,811.279 247,807.5C 246.5,797.839 246.334,788.172 246.5,778.5C 246.5,777.167 246.5,775.833 246.5,774.5C 246.333,758.83 246.5,743.163 247,727.5C 248.642,723.7 251.142,720.7 254.5,718.5 Z M 268.5,742.5 C 283.848,742.167 299.181,742.501 314.5,743.5C 318.614,746.939 321.947,750.939 324.5,755.5C 320.803,761.526 316.137,766.526 310.5,770.5C 297.833,770.5 285.167,770.5 272.5,770.5C 271.833,768.5 270.5,767.167 268.5,766.5C 268.5,758.5 268.5,750.5 268.5,742.5 Z"/></g>
<g><path style="opacity:1" fill="#4b302a" d="M 495.5,718.5 C 511.5,718.5 527.5,718.5 543.5,718.5C 557.906,721.033 570.906,726.867 582.5,736C 585.738,739.728 588.738,743.561 591.5,747.5C 584.166,749.5 576.833,751.5 569.5,753.5C 562.214,746.776 553.547,742.609 543.5,741C 526.833,740.667 510.167,740.333 493.5,740C 485.084,732.063 485.751,724.896 495.5,718.5 Z"/></g>
<g><path style="opacity:0.188" fill="#f3eeeb" d="M 426.5,804.5 C 426.351,803.448 426.517,802.448 427,801.5C 441.728,779.1 456.062,756.434 470,733.5C 471.333,722.502 466.5,718.002 455.5,720C 453.714,720.785 452.214,721.951 451,723.5C 439.759,742.568 427.926,761.234 415.5,779.5C 403.417,761.002 391.583,742.336 380,723.5C 374,718.167 368,718.167 362,723.5C 359.853,728.327 360.186,732.994 363,737.5C 376.333,758.167 389.667,778.833 403,799.5C 404.009,801.025 404.509,802.692 404.5,804.5C 403.265,804.279 402.265,803.612 401.5,802.5C 387.5,780.5 373.5,758.5 359.5,736.5C 358.167,731.833 358.167,727.167 359.5,722.5C 360.5,721.5 361.5,720.5 362.5,719.5C 365.5,719.167 368.5,718.833 371.5,718.5C 375.028,718.589 378.362,719.256 381.5,720.5C 392.333,738.837 403.667,756.837 415.5,774.5C 427.416,756.336 439.083,738.003 450.5,719.5C 470.337,714.663 476.67,721.663 469.5,740.5C 456.043,759.966 443.377,779.966 431.5,800.5C 430.083,802.261 428.417,803.594 426.5,804.5 Z"/></g>
<g><path style="opacity:0.999" fill="#49302b" d="M 627.5,718.5 C 629.167,718.5 630.833,718.5 632.5,718.5C 636.67,720.583 640.004,723.583 642.5,727.5C 642.5,729.5 642.5,731.5 642.5,733.5C 637.844,742.793 630.844,744.96 621.5,740C 614.912,730.36 616.912,723.194 627.5,718.5 Z"/></g>
<g><path style="opacity:0.155" fill="#f4eeec" d="M 314.5,718.5 C 325.051,718.941 334.051,722.941 341.5,730.5C 344.617,735.056 346.284,740.056 346.5,745.5C 345.313,743.928 344.313,742.261 343.5,740.5C 337.66,728.084 327.994,720.751 314.5,718.5 Z"/></g>
<g><path style="opacity:1" fill="#4a2f2a" d="M 426.5,804.5 C 426.5,817.167 426.5,829.833 426.5,842.5C 425.03,844.151 423.697,845.985 422.5,848C 414.726,851.413 408.726,849.58 404.5,842.5C 404.5,829.833 404.5,817.167 404.5,804.5C 404.509,802.692 404.009,801.025 403,799.5C 389.667,778.833 376.333,758.167 363,737.5C 360.186,732.994 359.853,728.327 362,723.5C 368,718.167 374,718.167 380,723.5C 391.583,742.336 403.417,761.002 415.5,779.5C 427.926,761.234 439.759,742.568 451,723.5C 452.214,721.951 453.714,720.785 455.5,720C 466.5,718.002 471.333,722.502 470,733.5C 456.062,756.434 441.728,779.1 427,801.5C 426.517,802.448 426.351,803.448 426.5,804.5 Z"/></g>
<g><path style="opacity:0.5" fill="#fcf9f5" d="M 254.5,718.5 C 251.142,720.7 248.642,723.7 247,727.5C 246.5,743.163 246.333,758.83 246.5,774.5C 245.169,766.528 244.502,758.194 244.5,749.5C 244.833,741.167 245.167,732.833 245.5,724.5C 246.677,719.773 249.677,717.773 254.5,718.5 Z"/></g>
<g><path style="opacity:0.086" fill="#f3eeec" d="M 627.5,718.5 C 616.912,723.194 614.912,730.36 621.5,740C 630.844,744.96 637.844,742.793 642.5,733.5C 642.89,736.466 642.223,739.132 640.5,741.5C 631.913,746.272 624.246,745.272 617.5,738.5C 616.167,733.167 616.167,727.833 617.5,722.5C 620.049,719.292 623.383,717.959 627.5,718.5 Z"/></g>
<g><path style="opacity:0.107" fill="#f9f3ec" d="M 543.5,718.5 C 547.884,718.174 552.217,718.508 556.5,719.5C 577.904,726.241 592.904,739.908 601.5,760.5C 602.474,762.743 602.808,765.076 602.5,767.5C 600.193,762.679 598.026,757.679 596,752.5C 594.634,750.638 593.134,748.972 591.5,747.5C 588.738,743.561 585.738,739.728 582.5,736C 570.906,726.867 557.906,721.033 543.5,718.5 Z"/></g>
<g><path style="opacity:0.229" fill="#ede7e5" d="M 495.5,718.5 C 485.751,724.896 485.084,732.063 493.5,740C 510.167,740.333 526.833,740.667 543.5,741C 553.547,742.609 562.214,746.776 569.5,753.5C 569.5,754.167 569.833,754.5 570.5,754.5C 570.5,755.833 570.5,757.167 570.5,758.5C 566.908,755.915 563.575,752.915 560.5,749.5C 556.065,746.949 551.399,744.949 546.5,743.5C 527.833,742.833 509.167,742.167 490.5,741.5C 489.5,740.5 488.5,739.5 487.5,738.5C 486.167,733.167 486.167,727.833 487.5,722.5C 489.407,719.605 492.074,718.272 495.5,718.5 Z"/></g>
<g><path style="opacity:0.999" fill="#4a302b" d="M 343.5,740.5 C 344.313,742.261 345.313,743.928 346.5,745.5C 346.5,750.5 346.5,755.5 346.5,760.5C 344.554,767.883 340.888,774.383 335.5,780C 352.382,793.78 356.215,810.614 347,830.5C 340.513,840.504 331.346,846.671 319.5,849C 297.833,849.667 276.167,849.667 254.5,849C 248.939,845.71 246.773,840.877 248,834.5C 249.5,831.667 251.667,829.5 254.5,828C 275.337,827.832 296.004,827.332 316.5,826.5C 325.72,825.274 330.386,819.941 330.5,810.5C 329.889,800.937 324.889,795.27 315.5,793.5C 300.009,792.504 284.342,792.17 268.5,792.5C 268.786,798.259 268.452,803.925 267.5,809.5C 266.761,809.631 266.094,809.464 265.5,809C 266.167,803.333 266.833,797.667 267.5,792C 286.167,791.333 304.833,791.333 323.5,792C 327.463,793.254 331.129,795.087 334.5,797.5C 335.429,796.311 335.762,794.978 335.5,793.5C 336.5,793.5 337.5,793.5 338.5,793.5C 339.777,792.683 340.11,794.683 339.5,799.5C 341.857,799.663 344.19,799.497 346.5,799C 344.519,798.395 344.185,797.395 345.5,796C 341.586,792.841 338.92,788.841 337.5,784C 337.167,783.833 336.833,783.667 336.5,783.5C 335.571,784.689 335.238,786.022 335.5,787.5C 314.188,786.279 292.855,785.279 271.5,784.5C 283.5,783.833 295.5,783.167 307.5,782.5C 306.5,781.5 305.5,780.5 304.5,779.5C 301.7,780.732 298.7,781.399 295.5,781.5C 290.489,780.915 285.489,780.249 280.5,779.5C 277.629,779.618 274.962,780.284 272.5,781.5C 271.571,780.311 271.238,778.978 271.5,777.5C 287.568,777.896 303.568,777.23 319.5,775.5C 319.67,774.178 319.337,773.011 318.5,772C 301.662,771.832 284.995,771.332 268.5,770.5C 267.782,768.754 266.782,768.088 265.5,768.5C 267.274,759.02 268.107,749.354 268,739.5C 268.5,739 269,738.5 269.5,738C 285.833,737.333 302.167,737.333 318.5,738C 319.191,739.067 319.691,740.234 320,741.5C 323.935,743.931 327.435,746.931 330.5,750.5C 329.675,751.386 328.675,751.719 327.5,751.5C 327.511,753.547 327.844,755.547 328.5,757.5C 327.839,761.054 326.172,763.887 323.5,766C 324.833,767.667 324.833,769.333 323.5,771C 325.586,771.557 326.919,770.724 327.5,768.5C 329.045,767.548 330.712,767.215 332.5,767.5C 333.356,759.467 333.689,751.467 333.5,743.5C 334.833,743.5 336.167,743.5 337.5,743.5C 337.634,747.302 336.967,750.968 335.5,754.5C 336.473,757.779 337.973,760.779 340,763.5C 340.804,760.56 342.137,757.893 344,755.5C 344.96,750.512 344.127,745.845 341.5,741.5C 341.737,738.937 342.237,738.937 343,741.5C 343.399,741.272 343.565,740.938 343.5,740.5 Z M 268.5,742.5 C 283.848,742.167 299.181,742.501 314.5,743.5C 318.614,746.939 321.947,750.939 324.5,755.5C 320.803,761.526 316.137,766.526 310.5,770.5C 297.833,770.5 285.167,770.5 272.5,770.5C 271.833,768.5 270.5,767.167 268.5,766.5C 268.5,758.5 268.5,750.5 268.5,742.5 Z"/></g>
<g><path style="opacity:0.204" fill="#ede7e4" d="M 310.5,770.5 C 316.137,766.526 320.803,761.526 324.5,755.5C 321.947,750.939 318.614,746.939 314.5,743.5C 299.181,742.501 283.848,742.167 268.5,742.5C 275.803,741.169 283.47,740.502 291.5,740.5C 299.167,740.667 306.833,740.833 314.5,741C 324.425,745.091 327.592,752.258 324,762.5C 321.104,767.865 316.604,770.532 310.5,770.5 Z"/></g>
<g><path style="opacity:1" fill="#efa95a" d="M 591.5,747.5 C 593.134,748.972 594.634,750.638 596,752.5C 598.026,757.679 600.193,762.679 602.5,767.5C 602.5,767.833 602.5,768.167 602.5,768.5C 607.818,799.667 597.485,823.833 571.5,841C 556.744,849.775 541.077,851.775 524.5,847C 523.023,845.188 521.69,843.355 520.5,841.5C 520.5,839.5 520.5,837.5 520.5,835.5C 522.274,832.584 524.607,830.084 527.5,828C 547.093,830.677 562.927,824.51 575,809.5C 581.102,798.339 583.102,786.339 581,773.5C 579.027,766.212 575.527,759.879 570.5,754.5C 569.833,754.5 569.5,754.167 569.5,753.5C 576.833,751.5 584.166,749.5 591.5,747.5 Z"/></g>
<g><path style="opacity:1" fill="#4b2e2a" d="M 640.5,841.5 C 637.609,848.652 632.276,851.152 624.5,849C 622.235,847.242 620.568,845.075 619.5,842.5C 620.498,814.338 620.831,786.005 620.5,757.5C 626.833,757.5 633.167,757.5 639.5,757.5C 639.169,785.672 639.502,813.672 640.5,841.5 Z"/></g>
<g><path style="opacity:0.431" fill="#faf0ed" d="M 268.5,766.5 C 270.5,767.167 271.833,768.5 272.5,770.5C 271.167,770.5 269.833,770.5 268.5,770.5C 268.5,769.167 268.5,767.833 268.5,766.5 Z"/></g>
<g><path style="opacity:0.251" fill="#ebe4e2" d="M 618.5,755.5 C 626.316,754.508 634.316,754.174 642.5,754.5C 642.833,785.174 642.5,815.841 641.5,846.5C 640.5,847.5 639.5,848.5 638.5,849.5C 632.5,850.833 626.5,850.833 620.5,849.5C 618.777,847.132 618.11,844.466 618.5,841.5C 618.833,841.5 619.167,841.5 619.5,841.5C 619.5,841.833 619.5,842.167 619.5,842.5C 620.568,845.075 622.235,847.242 624.5,849C 632.276,851.152 637.609,848.652 640.5,841.5C 640.5,813.167 640.5,784.833 640.5,756.5C 633.352,755.508 626.019,755.175 618.5,755.5 Z"/></g>
<g><path style="opacity:0.11" fill="#faf3e6" d="M 708.5,763.5 C 702.301,756.463 695.468,755.797 688,761.5C 683.881,771.071 679.215,780.404 674,789.5C 670.745,798.678 666.411,807.344 661,815.5C 657.827,823.177 654.66,830.844 651.5,838.5C 652.324,848.516 657.658,852.016 667.5,849C 668.759,848.077 670.092,847.243 671.5,846.5C 683.148,822.536 694.815,798.536 706.5,774.5C 706.957,773.702 707.624,773.369 708.5,773.5C 708.785,775.288 708.452,776.955 707.5,778.5C 695.266,802.299 683.6,826.299 672.5,850.5C 665.833,850.5 659.167,850.5 652.5,850.5C 650.565,844.609 650.232,838.609 651.5,832.5C 663.871,808.076 675.871,783.41 687.5,758.5C 690.638,757.256 693.972,756.589 697.5,756.5C 700.5,756.833 703.5,757.167 706.5,757.5C 708.104,759.179 708.771,761.179 708.5,763.5 Z"/></g>
<g><path style="opacity:0.749" fill="#301d1a" d="M 640.5,756.5 C 640.5,784.833 640.5,813.167 640.5,841.5C 639.502,813.672 639.169,785.672 639.5,757.5C 633.167,757.5 626.833,757.5 620.5,757.5C 620.831,786.005 620.498,814.338 619.5,842.5C 619.5,842.167 619.5,841.833 619.5,841.5C 619.5,813.167 619.5,784.833 619.5,756.5C 626.5,756.5 633.5,756.5 640.5,756.5 Z"/></g>
<g><path style="opacity:0.421" fill="#fcf9f8" d="M 246.5,778.5 C 246.334,788.172 246.5,797.839 247,807.5C 248.211,811.279 250.377,814.279 253.5,816.5C 249.147,816.821 246.481,814.821 245.5,810.5C 244.817,803.277 244.151,796.11 243.5,789C 243.829,785.108 244.829,781.608 246.5,778.5 Z"/></g>
<g><path style="opacity:1" fill="#f0ac5a" d="M 780.5,835.5 C 780.5,838.167 780.5,840.833 780.5,843.5C 778.631,845.319 776.631,847.152 774.5,849C 770.833,849.667 767.167,849.667 763.5,849C 762.5,848.167 761.5,847.333 760.5,846.5C 742.951,811.402 725.451,776.402 708,741.5C 704.79,736.146 703.956,730.479 705.5,724.5C 713.352,717.21 720.352,717.876 726.5,726.5C 743.646,763.126 761.646,799.459 780.5,835.5 Z"/></g>
<g><path style="opacity:0.153" fill="#ede8e5" d="M 346.5,760.5 C 347.407,768.351 344.74,774.685 338.5,779.5C 344.367,784.029 348.7,789.695 351.5,796.5C 352.833,805.833 352.833,815.167 351.5,824.5C 350.558,827.993 349.225,831.326 347.5,834.5C 343.833,838.167 340.167,841.833 336.5,845.5C 333.326,847.225 329.993,848.558 326.5,849.5C 301.167,850.833 275.833,850.833 250.5,849.5C 249.5,848.5 248.5,847.5 247.5,846.5C 246.167,841.167 246.167,835.833 247.5,830.5C 248.5,829.5 249.5,828.5 250.5,827.5C 272.49,826.5 294.49,826.167 316.5,826.5C 296.004,827.332 275.337,827.832 254.5,828C 251.667,829.5 249.5,831.667 248,834.5C 246.773,840.877 248.939,845.71 254.5,849C 276.167,849.667 297.833,849.667 319.5,849C 331.346,846.671 340.513,840.504 347,830.5C 356.215,810.614 352.382,793.78 335.5,780C 340.888,774.383 344.554,767.883 346.5,760.5 Z"/></g>
<g><path style="opacity:0.251" fill="#968a86" d="M 618.5,755.5 C 626.019,755.175 633.352,755.508 640.5,756.5C 633.5,756.5 626.5,756.5 619.5,756.5C 619.5,784.833 619.5,813.167 619.5,841.5C 619.167,841.5 618.833,841.5 618.5,841.5C 618.5,812.833 618.5,784.167 618.5,755.5 Z"/></g>
<g><path style="opacity:0.998" fill="#f0ac5c" d="M 708.5,763.5 C 708.5,766.833 708.5,770.167 708.5,773.5C 707.624,773.369 706.957,773.702 706.5,774.5C 694.815,798.536 683.148,822.536 671.5,846.5C 670.092,847.243 668.759,848.077 667.5,849C 657.658,852.016 652.324,848.516 651.5,838.5C 654.66,830.844 657.827,823.177 661,815.5C 666.411,807.344 670.745,798.678 674,789.5C 679.215,780.404 683.881,771.071 688,761.5C 695.468,755.797 702.301,756.463 708.5,763.5 Z"/></g>
<g><path style="opacity:0.245" fill="#e1d7d4" d="M 315.5,793.5 C 303.167,793.5 290.833,793.5 278.5,793.5C 276.5,793.5 274.5,793.5 272.5,793.5C 270.962,800.467 269.295,807.467 267.5,814.5C 265.477,816.173 263.144,816.84 260.5,816.5C 263.801,815.199 266.135,812.865 267.5,809.5C 268.452,803.925 268.786,798.259 268.5,792.5C 284.342,792.17 300.009,792.504 315.5,793.5 Z"/></g>
<g><path style="opacity:0.251" fill="#f6f1ee" d="M 278.5,793.5 C 290.833,793.5 303.167,793.5 315.5,793.5C 324.889,795.27 329.889,800.937 330.5,810.5C 330.386,819.941 325.72,825.274 316.5,826.5C 320.374,823.637 324.041,820.304 327.5,816.5C 328.833,812.5 328.833,808.5 327.5,804.5C 324.414,800.743 320.748,797.743 316.5,795.5C 303.673,794.833 291.006,794.167 278.5,793.5 Z"/></g>
<g><path style="opacity:0.167" fill="#faf4e8" d="M 602.5,768.5 C 609.071,795.14 602.405,818.14 582.5,837.5C 569.665,846.628 555.332,850.961 539.5,850.5C 533.065,850.317 526.732,849.651 520.5,848.5C 520.5,846.167 520.5,843.833 520.5,841.5C 521.69,843.355 523.023,845.188 524.5,847C 541.077,851.775 556.744,849.775 571.5,841C 597.485,823.833 607.818,799.667 602.5,768.5 Z"/></g>
<g><path style="opacity:0.204" fill="#fcf3e5" d="M 570.5,754.5 C 575.527,759.879 579.027,766.212 581,773.5C 583.102,786.339 581.102,798.339 575,809.5C 562.927,824.51 547.093,830.677 527.5,828C 524.607,830.084 522.274,832.584 520.5,835.5C 520.11,832.534 520.777,829.868 522.5,827.5C 534.867,827.472 546.867,825.472 558.5,821.5C 562.718,819.218 566.384,816.218 569.5,812.5C 572.833,807.167 576.167,801.833 579.5,796.5C 582.434,782.326 579.434,769.66 570.5,758.5C 570.5,757.167 570.5,755.833 570.5,754.5 Z"/></g>
<g><path style="opacity:0.149" fill="#fcf6ec" d="M 780.5,835.5 C 761.646,799.459 743.646,763.126 726.5,726.5C 720.352,717.876 713.352,717.21 705.5,724.5C 703.956,730.479 704.79,736.146 708,741.5C 725.451,776.402 742.951,811.402 760.5,846.5C 761.5,847.333 762.5,848.167 763.5,849C 767.167,849.667 770.833,849.667 774.5,849C 776.631,847.152 778.631,845.319 780.5,843.5C 780.771,845.821 780.104,847.821 778.5,849.5C 772.5,850.833 766.5,850.833 760.5,849.5C 759.5,848.5 758.5,847.5 757.5,846.5C 740.044,809.588 722.044,772.921 703.5,736.5C 701.807,730.325 702.807,724.658 706.5,719.5C 709.5,719.167 712.5,718.833 715.5,718.5C 719.028,718.589 722.362,719.256 725.5,720.5C 743.5,756.5 761.5,792.5 779.5,828.5C 780.474,830.743 780.808,833.076 780.5,835.5 Z"/></g>
<g><path style="opacity:0.153" fill="#f4eceb" d="M 490.5,750.5 C 495.875,750.172 501.208,750.505 506.5,751.5C 507.5,752.5 508.5,753.5 509.5,754.5C 510.833,785.167 510.833,815.833 509.5,846.5C 506.553,849.514 502.887,850.848 498.5,850.5C 494.113,850.848 490.447,849.514 487.5,846.5C 486.167,815.833 486.167,785.167 487.5,754.5C 488.934,753.412 489.934,752.078 490.5,750.5 Z"/></g>
<g><path style="opacity:1" fill="#4c312b" d="M 493.5,751.5 C 500.648,749.705 505.815,752.039 509,758.5C 509.667,786.5 509.667,814.5 509,842.5C 505.855,849.128 500.688,851.295 493.5,849C 490.865,847.039 489.031,844.539 488,841.5C 487.333,813.833 487.333,786.167 488,758.5C 489.666,756.004 491.5,753.671 493.5,751.5 Z"/></g>
<g><path style="opacity:0.18" fill="#efeae6" d="M 404.5,842.5 C 408.726,849.58 414.726,851.413 422.5,848C 423.697,845.985 425.03,844.151 426.5,842.5C 426.84,845.144 426.173,847.477 424.5,849.5C 418.5,850.833 412.5,850.833 406.5,849.5C 404.827,847.477 404.16,845.144 404.5,842.5 Z"/></g>
</svg>
