<?xml version="1.0" encoding="UTF-8"?>
<!DOCTYPE svg PUBLIC "-//W3C//DTD SVG 1.1//EN" "http://www.w3.org/Graphics/SVG/1.1/DTD/svg11.dtd">
<svg xmlns="http://www.w3.org/2000/svg" version="1.1" width="1024px" height="1024px" style="shape-rendering:geometricPrecision; text-rendering:geometricPrecision; image-rendering:optimizeQuality; fill-rule:evenodd; clip-rule:evenodd" xmlns:xlink="http://www.w3.org/1999/xlink">
<g><path style="opacity:1" fill="#4a2f2a" d="M 422.5,180.5 C 422.5,185.167 422.5,189.833 422.5,194.5C 417.144,224.694 399.478,243.528 369.5,251C 341.787,254.662 319.954,245.162 304,222.5C 292.967,202.106 291.634,181.106 300,159.5C 309.424,142.574 323.257,130.907 341.5,124.5C 341.833,124.5 342.167,124.5 342.5,124.5C 386.018,119.561 412.685,138.227 422.5,180.5 Z"/></g>
<g><path style="opacity:1" fill="#efab5a" d="M 671.5,123.5 C 683.578,124.632 694.245,128.965 703.5,136.5C 703.5,137.5 703.5,138.5 703.5,139.5C 706.008,140.741 708.342,142.407 710.5,144.5C 709.675,145.386 708.675,145.719 707.5,145.5C 707.091,148.991 706.091,152.325 704.5,155.5C 702.985,168.895 703.319,182.229 705.5,195.5C 702.839,206.871 702.839,218.205 705.5,229.5C 708.167,229.5 710.833,229.5 713.5,229.5C 706.394,238.943 697.061,245.443 685.5,249C 683.527,249.495 681.527,249.662 679.5,249.5C 671.381,249.886 663.381,249.219 655.5,247.5C 655.5,246.167 655.5,244.833 655.5,243.5C 658.898,243.82 662.232,243.487 665.5,242.5C 663.076,240.286 663.743,239.286 667.5,239.5C 667.5,234.167 667.5,228.833 667.5,223.5C 668.833,223.5 670.167,223.5 671.5,223.5C 671.5,218.167 671.5,212.833 671.5,207.5C 670.167,207.5 668.833,207.5 667.5,207.5C 667.5,191.491 667.166,175.491 666.5,159.5C 665.5,159.5 664.5,159.5 663.5,159.5C 663.5,154.167 663.5,148.833 663.5,143.5C 666.167,143.5 668.833,143.5 671.5,143.5C 671.5,138.167 671.5,132.833 671.5,127.5C 668.102,127.82 664.768,127.487 661.5,126.5C 665.263,126.104 668.597,125.104 671.5,123.5 Z"/></g>
<g><path style="opacity:1" fill="#eea657" d="M 671.5,123.5 C 668.597,125.104 665.263,126.104 661.5,126.5C 664.768,127.487 668.102,127.82 671.5,127.5C 671.5,132.833 671.5,138.167 671.5,143.5C 668.833,143.5 666.167,143.5 663.5,143.5C 663.5,148.833 663.5,154.167 663.5,159.5C 664.5,159.5 665.5,159.5 666.5,159.5C 667.166,175.491 667.5,191.491 667.5,207.5C 668.833,207.5 670.167,207.5 671.5,207.5C 671.5,212.833 671.5,218.167 671.5,223.5C 670.167,223.5 668.833,223.5 667.5,223.5C 667.5,228.833 667.5,234.167 667.5,239.5C 663.743,239.286 663.076,240.286 665.5,242.5C 662.232,243.487 658.898,243.82 655.5,243.5C 655.5,244.833 655.5,246.167 655.5,247.5C 663.381,249.219 671.381,249.886 679.5,249.5C 678.737,250.268 677.737,250.768 676.5,251C 662.894,252.307 649.894,250.473 637.5,245.5C 637.461,244.417 637.127,243.417 636.5,242.5C 637.5,241.833 638.5,241.167 639.5,240.5C 638.456,239.377 637.79,238.044 637.5,236.5C 640.689,210.96 642.023,185.293 641.5,159.5C 639.5,159.5 637.5,159.5 635.5,159.5C 635.5,154.167 635.5,148.833 635.5,143.5C 636.833,143.5 638.167,143.5 639.5,143.5C 639.5,142.167 639.5,140.833 639.5,139.5C 638.5,139.5 637.5,139.5 636.5,139.5C 636.5,138.167 636.5,136.833 636.5,135.5C 634.712,135.785 633.045,135.452 631.5,134.5C 633.5,133.5 635.5,132.5 637.5,131.5C 640.778,132.203 644.111,132.203 647.5,131.5C 647.614,129.282 648.28,127.282 649.5,125.5C 656.737,124.013 664.07,123.346 671.5,123.5 Z"/></g>
<g><path style="opacity:0.115" fill="#f2eeea" d="M 422.5,180.5 C 412.685,138.227 386.018,119.561 342.5,124.5C 372.972,117.217 397.306,126.55 415.5,152.5C 417.5,157.833 419.5,163.167 421.5,168.5C 422.491,172.445 422.824,176.445 422.5,180.5 Z"/></g>
<g><path style="opacity:1" fill="#eca055" d="M 649.5,125.5 C 648.28,127.282 647.614,129.282 647.5,131.5C 644.111,132.203 640.778,132.203 637.5,131.5C 635.5,132.5 633.5,133.5 631.5,134.5C 633.045,135.452 634.712,135.785 636.5,135.5C 636.5,136.833 636.5,138.167 636.5,139.5C 637.5,139.5 638.5,139.5 639.5,139.5C 639.5,140.833 639.5,142.167 639.5,143.5C 638.167,143.5 636.833,143.5 635.5,143.5C 635.5,148.833 635.5,154.167 635.5,159.5C 637.5,159.5 639.5,159.5 641.5,159.5C 642.023,185.293 640.689,210.96 637.5,236.5C 637.79,238.044 638.456,239.377 639.5,240.5C 638.5,241.167 637.5,241.833 636.5,242.5C 637.127,243.417 637.461,244.417 637.5,245.5C 622.761,238.255 612.261,226.922 606,211.5C 601.615,198.804 600.448,185.804 602.5,172.5C 602.5,172.167 602.5,171.833 602.5,171.5C 607.694,155.127 617.361,141.96 631.5,132C 637.22,128.97 643.22,126.803 649.5,125.5 Z"/></g>
<g><path style="opacity:0.999" fill="#f1b05a" d="M 703.5,136.5 C 704.473,136.987 705.473,137.487 706.5,138C 729.465,160.386 734.798,186.552 722.5,216.5C 720.231,221.383 717.231,225.716 713.5,229.5C 710.833,229.5 708.167,229.5 705.5,229.5C 702.839,218.205 702.839,206.871 705.5,195.5C 703.319,182.229 702.985,168.895 704.5,155.5C 706.091,152.325 707.091,148.991 707.5,145.5C 708.675,145.719 709.675,145.386 710.5,144.5C 708.342,142.407 706.008,140.741 703.5,139.5C 703.5,138.5 703.5,137.5 703.5,136.5 Z"/></g>
<g><path style="opacity:0.071" fill="#fbf5eb" d="M 602.5,172.5 C 600.448,185.804 601.615,198.804 606,211.5C 612.261,226.922 622.761,238.255 637.5,245.5C 649.894,250.473 662.894,252.307 676.5,251C 677.737,250.768 678.737,250.268 679.5,249.5C 681.527,249.662 683.527,249.495 685.5,249C 697.061,245.443 706.394,238.943 713.5,229.5C 717.231,225.716 720.231,221.383 722.5,216.5C 734.798,186.552 729.465,160.386 706.5,138C 705.473,137.487 704.473,136.987 703.5,136.5C 694.245,128.965 683.578,124.632 671.5,123.5C 664.07,123.346 656.737,124.013 649.5,125.5C 643.22,126.803 637.22,128.97 631.5,132C 617.361,141.96 607.694,155.127 602.5,171.5C 607.525,145.805 622.858,129.805 648.5,123.5C 662.633,121.822 676.633,122.488 690.5,125.5C 724.905,144.004 737.238,172.337 727.5,210.5C 722.848,222.475 715.848,232.808 706.5,241.5C 698.939,245.949 690.939,249.283 682.5,251.5C 668.367,253.178 654.367,252.512 640.5,249.5C 613.486,237.792 600.153,217.126 600.5,187.5C 600.506,182.119 601.172,177.119 602.5,172.5 Z"/></g>
<g><path style="opacity:0.094" fill="#f2edea" d="M 341.5,124.5 C 323.257,130.907 309.424,142.574 300,159.5C 291.634,181.106 292.967,202.106 304,222.5C 319.954,245.162 341.787,254.662 369.5,251C 399.478,243.528 417.144,224.694 422.5,194.5C 422.827,199.214 422.493,203.88 421.5,208.5C 410.805,238.522 389.472,253.189 357.5,252.5C 344.273,253.203 331.94,250.203 320.5,243.5C 293.99,221.134 286.324,193.468 297.5,160.5C 303.632,147.699 312.632,137.366 324.5,129.5C 329.832,126.611 335.498,124.944 341.5,124.5 Z"/></g>
<g><path style="opacity:1" fill="#4b2f29" d="M 272.5,250.5 C 276.896,252.366 281.229,254.533 285.5,257C 289.333,260.833 293.167,264.667 297,268.5C 338.992,324.006 389.825,369.339 449.5,404.5C 444.848,409.652 440.015,414.652 435,419.5C 427.892,428.944 425.725,439.277 428.5,450.5C 431.236,467.408 440.902,478.241 457.5,483C 464.014,483.82 470.347,483.653 476.5,482.5C 481.893,481.807 486.893,479.973 491.5,477C 502.365,466.967 513.032,456.8 523.5,446.5C 523.833,446.5 524.167,446.5 524.5,446.5C 558.75,482.085 593.417,517.418 628.5,552.5C 628.5,555.5 628.5,558.5 628.5,561.5C 625.464,574.024 617.464,579.858 604.5,579C 600,577.253 596,574.753 592.5,571.5C 582.869,561.368 573.036,551.368 563,541.5C 562.333,542.167 562.333,542.833 563,543.5C 572.729,553.062 582.229,562.728 591.5,572.5C 602.084,583.565 602.084,594.732 591.5,606C 582.728,612.827 573.728,613.161 564.5,607C 553.965,596.298 543.298,585.798 532.5,575.5C 528.158,569.977 523.158,565.477 517.5,562C 522.067,567.004 526.734,571.838 531.5,576.5C 538.429,584.932 545.929,592.932 554,600.5C 562.433,612.394 560.933,622.894 549.5,632C 543.032,636.237 536.365,636.57 529.5,633C 519.5,621.667 508.833,611 497.5,601C 494.978,599.659 492.311,598.826 489.5,598.5C 486.375,597.521 483.042,597.187 479.5,597.5C 479.806,594.615 479.473,591.948 478.5,589.5C 472.417,573.609 460.75,565.943 443.5,566.5C 442.526,553.023 435.859,543.523 423.5,538C 421.187,537.338 418.854,536.838 416.5,536.5C 413.833,536.5 411.167,536.5 408.5,536.5C 405.393,536.351 402.393,536.851 399.5,538C 397.067,539.632 394.567,541.132 392,542.5C 390.775,542.138 389.609,541.638 388.5,541C 347.845,504.015 310.345,464.182 276,421.5C 307.356,476.241 339.689,530.574 373,584.5C 383.675,605.314 380.508,623.814 363.5,640C 359.419,642.707 355.086,644.874 350.5,646.5C 348.866,645.839 347.033,645.506 345,645.5C 338.022,648.093 331.189,647.927 324.5,645C 325.815,643.605 325.481,642.605 323.5,642C 330.011,642.007 336.678,641.507 343.5,640.5C 341.144,638.31 338.644,636.31 336,634.5C 335.517,633.552 335.351,632.552 335.5,631.5C 332.833,631.5 330.167,631.5 327.5,631.5C 327.5,628.833 327.5,626.167 327.5,623.5C 326.5,623.5 325.5,623.5 324.5,623.5C 324.5,618.167 324.5,612.833 324.5,607.5C 322.833,607.5 321.167,607.5 319.5,607.5C 319.5,602.167 319.5,596.833 319.5,591.5C 318.5,591.5 317.5,591.5 316.5,591.5C 316.5,588.833 316.5,586.167 316.5,583.5C 315.5,583.5 314.5,583.5 313.5,583.5C 313.813,580.753 313.48,578.086 312.5,575.5C 311.505,580.792 311.172,586.125 311.5,591.5C 308.833,591.5 306.167,591.5 303.5,591.5C 302.833,570.167 302.167,570.167 301.5,591.5C 296.833,591.5 292.167,591.5 287.5,591.5C 287.5,583.5 287.5,575.5 287.5,567.5C 286.5,567.5 285.5,567.5 284.5,567.5C 284.5,564.833 284.5,562.167 284.5,559.5C 288.167,559.5 291.833,559.5 295.5,559.5C 295.5,556.833 295.5,554.167 295.5,551.5C 302.5,551.5 309.5,551.5 316.5,551.5C 316.5,548.833 316.5,546.167 316.5,543.5C 314.833,543.5 313.167,543.5 311.5,543.5C 311.5,538.167 311.5,532.833 311.5,527.5C 308.833,527.5 306.167,527.5 303.5,527.5C 303.5,532.833 303.5,538.167 303.5,543.5C 295.5,543.5 287.5,543.5 279.5,543.5C 279.5,538.167 279.5,532.833 279.5,527.5C 276.833,527.5 274.167,527.5 271.5,527.5C 271.824,523.445 271.491,519.445 270.5,515.5C 269.5,514.5 268.5,513.5 267.5,512.5C 270.428,511.516 273.428,511.183 276.5,511.5C 276.5,508.833 276.5,506.167 276.5,503.5C 275.5,503.5 274.5,503.5 273.5,503.5C 273.5,500.833 273.5,498.167 273.5,495.5C 267.5,495.5 261.5,495.5 255.5,495.5C 255.5,496.833 255.5,498.167 255.5,499.5C 253.058,499.881 252.391,499.214 253.5,497.5C 250.929,496.695 249.262,494.528 248.5,491C 248.78,489.605 249.447,488.438 250.5,487.5C 253.261,488.35 253.928,487.35 252.5,484.5C 253.325,483.614 254.325,483.281 255.5,483.5C 255.824,479.445 255.491,475.445 254.5,471.5C 253.692,473.423 253.192,475.423 253,477.5C 252.5,464.838 252.333,452.171 252.5,439.5C 255.167,439.5 257.833,439.5 260.5,439.5C 260.5,436.833 260.5,434.167 260.5,431.5C 261.5,431.5 262.5,431.5 263.5,431.5C 263.5,428.833 263.5,426.167 263.5,423.5C 262.5,423.5 261.5,423.5 260.5,423.5C 260.5,420.833 260.5,418.167 260.5,415.5C 262.167,415.5 263.833,415.5 265.5,415.5C 265.828,410.125 265.495,404.792 264.5,399.5C 263.52,402.086 263.187,404.753 263.5,407.5C 262.5,407.5 261.5,407.5 260.5,407.5C 260.5,402.167 260.5,396.833 260.5,391.5C 259.5,391.5 258.5,391.5 257.5,391.5C 257.828,386.125 257.495,380.792 256.5,375.5C 255.502,383.472 255.169,391.472 255.5,399.5C 250.167,399.5 244.833,399.5 239.5,399.5C 239.5,394.167 239.5,388.833 239.5,383.5C 236.833,383.5 234.167,383.5 231.5,383.5C 231.5,378.167 231.5,372.833 231.5,367.5C 234.167,367.5 236.833,367.5 239.5,367.5C 239.5,364.833 239.5,362.167 239.5,359.5C 235.833,359.5 232.167,359.5 228.5,359.5C 228.5,356.833 228.5,354.167 228.5,351.5C 227.5,351.5 226.5,351.5 225.5,351.5C 225.5,335.5 225.5,319.5 225.5,303.5C 226.5,303.5 227.5,303.5 228.5,303.5C 228.5,298.167 228.5,292.833 228.5,287.5C 229.5,287.5 230.5,287.5 231.5,287.5C 231.187,290.247 231.52,292.914 232.5,295.5C 233.495,290.208 233.828,284.875 233.5,279.5C 234.5,279.5 235.5,279.5 236.5,279.5C 236.5,276.833 236.5,274.167 236.5,271.5C 242.842,271.666 249.175,271.5 255.5,271C 249.47,270.748 243.47,270.248 237.5,269.5C 233.345,271.225 229.011,271.891 224.5,271.5C 235.776,254.205 251.776,247.205 272.5,250.5 Z M 298.5,454.5 C 296.663,454.361 296.33,453.694 297.5,452.5C 298.298,452.957 298.631,453.624 298.5,454.5 Z M 462.5,618.5 C 462.639,616.663 463.306,616.33 464.5,617.5C 464.043,618.298 463.376,618.631 462.5,618.5 Z M 432.5,580.5 C 432.361,582.337 431.694,582.67 430.5,581.5C 430.957,580.702 431.624,580.369 432.5,580.5 Z"/></g>
<g><path style="opacity:1" fill="#f2b15a" d="M 770.5,251.5 C 771.167,251.5 771.833,251.5 772.5,251.5C 776.011,252.773 779.678,253.773 783.5,254.5C 788.833,259.833 794.167,265.167 799.5,270.5C 804.688,280.919 807.855,291.919 809,303.5C 809.785,318.532 809.618,333.532 808.5,348.5C 808.5,349.5 808.5,350.5 808.5,351.5C 807.776,354.083 806.943,356.749 806,359.5C 804.153,374.22 801.986,388.887 799.5,403.5C 796.886,406.968 795.886,410.968 796.5,415.5C 789.569,443.152 782.236,470.818 774.5,498.5C 774.5,498.833 774.5,499.167 774.5,499.5C 770.257,509.313 766.59,519.313 763.5,529.5C 761.532,525.983 760.532,521.983 760.5,517.5C 759.5,517.5 758.5,517.5 757.5,517.5C 757.437,522.203 757.771,526.87 758.5,531.5C 757.167,531.5 755.833,531.5 754.5,531.5C 754.33,529.152 753.997,526.818 753.5,524.5C 754.337,522.162 755.17,519.828 756,517.5C 757.401,515.808 759.234,515.141 761.5,515.5C 761.5,514.167 761.5,512.833 761.5,511.5C 762.5,511.5 763.5,511.5 764.5,511.5C 764.666,503.493 764.5,495.493 764,487.5C 763.792,484.002 762.959,480.669 761.5,477.5C 761.833,476.833 762.167,476.167 762.5,475.5C 763.584,476.665 764.417,477.998 765,479.5C 765.635,477.365 765.301,475.365 764,473.5C 762.961,419.506 762.127,365.506 761.5,311.5C 760.813,292.673 758.813,274.006 755.5,255.5C 753.352,263.352 752.185,271.352 752,279.5C 751.503,276.854 751.336,274.187 751.5,271.5C 750.5,271.5 749.5,271.5 748.5,271.5C 748.5,270.167 748.5,268.833 748.5,267.5C 749.5,267.5 750.5,267.5 751.5,267.5C 751.5,262.833 751.5,258.167 751.5,253.5C 754.722,253.108 757.722,253.608 760.5,255C 759.527,260.407 759.193,265.907 759.5,271.5C 760.833,271.5 762.167,271.5 763.5,271.5C 763.5,266.167 763.5,260.833 763.5,255.5C 765.924,255.808 768.257,255.474 770.5,254.5C 771.791,253.473 771.791,252.473 770.5,251.5 Z"/></g>
<g><path style="opacity:1" fill="#efab59" d="M 751.5,251.5 C 757.833,251.5 764.167,251.5 770.5,251.5C 771.791,252.473 771.791,253.473 770.5,254.5C 768.257,255.474 765.924,255.808 763.5,255.5C 763.5,260.833 763.5,266.167 763.5,271.5C 762.167,271.5 760.833,271.5 759.5,271.5C 759.193,265.907 759.527,260.407 760.5,255C 757.722,253.608 754.722,253.108 751.5,253.5C 751.5,258.167 751.5,262.833 751.5,267.5C 750.5,267.5 749.5,267.5 748.5,267.5C 748.5,268.833 748.5,270.167 748.5,271.5C 749.5,271.5 750.5,271.5 751.5,271.5C 751.336,274.187 751.503,276.854 752,279.5C 752.185,271.352 753.352,263.352 755.5,255.5C 758.813,274.006 760.813,292.673 761.5,311.5C 762.127,365.506 762.961,419.506 764,473.5C 765.301,475.365 765.635,477.365 765,479.5C 764.417,477.998 763.584,476.665 762.5,475.5C 762.167,476.167 761.833,476.833 761.5,477.5C 762.959,480.669 763.792,484.002 764,487.5C 764.5,495.493 764.666,503.493 764.5,511.5C 763.5,511.5 762.5,511.5 761.5,511.5C 761.5,512.833 761.5,514.167 761.5,515.5C 759.234,515.141 757.401,515.808 756,517.5C 755.17,519.828 754.337,522.162 753.5,524.5C 753.997,526.818 754.33,529.152 754.5,531.5C 755.833,531.5 757.167,531.5 758.5,531.5C 757.771,526.87 757.437,522.203 757.5,517.5C 758.5,517.5 759.5,517.5 760.5,517.5C 760.532,521.983 761.532,525.983 763.5,529.5C 757.352,550.779 749.685,571.445 740.5,591.5C 739.5,591.5 738.5,591.5 737.5,591.5C 737.876,588.293 736.876,585.627 734.5,583.5C 733.958,589.311 733.124,594.978 732,600.5C 732.216,581.51 732.383,562.51 732.5,543.5C 730.833,543.5 729.167,543.5 727.5,543.5C 727.5,538.167 727.5,532.833 727.5,527.5C 726.167,527.5 724.833,527.5 723.5,527.5C 723.5,522.167 723.5,516.833 723.5,511.5C 722.167,511.5 720.833,511.5 719.5,511.5C 719.5,506.167 719.5,500.833 719.5,495.5C 720.5,495.5 721.5,495.5 722.5,495.5C 722.5,490.167 722.5,484.833 722.5,479.5C 724.958,479.773 726.625,478.773 727.5,476.5C 730.086,475.52 732.753,475.187 735.5,475.5C 735.5,474.167 735.5,472.833 735.5,471.5C 734.5,471.5 733.5,471.5 732.5,471.5C 733.505,467.479 733.505,463.479 732.5,459.5C 730.167,463.455 727.833,467.455 725.5,471.5C 724.914,471.291 724.414,470.957 724,470.5C 723.874,467.937 723.707,465.604 723.5,463.5C 728.721,452.965 734.721,442.965 741.5,433.5C 743.115,431.626 745.115,430.292 747.5,429.5C 747.203,426.276 747.87,423.276 749.5,420.5C 745.799,423.228 742.466,426.894 739.5,431.5C 736.812,435.521 733.479,438.855 729.5,441.5C 729.5,440.167 729.5,438.833 729.5,437.5C 728.167,437.5 726.833,437.5 725.5,437.5C 725.5,438.833 725.5,440.167 725.5,441.5C 724.167,441.5 722.833,441.5 721.5,441.5C 721.5,439.5 721.5,437.5 721.5,435.5C 723.5,435.5 725.5,435.5 727.5,435.5C 727.5,434.167 727.5,432.833 727.5,431.5C 726.167,431.5 724.833,431.5 723.5,431.5C 723.5,420.833 723.5,410.167 723.5,399.5C 722.167,399.5 720.833,399.5 719.5,399.5C 719.5,396.833 719.5,394.167 719.5,391.5C 720.5,391.5 721.5,391.5 722.5,391.5C 723.161,364.855 723.161,338.188 722.5,311.5C 723.5,311.5 724.5,311.5 725.5,311.5C 725.511,303.439 726.177,295.439 727.5,287.5C 729.604,287.799 731.604,287.466 733.5,286.5C 731.236,284.553 728.902,282.886 726.5,281.5C 726.681,276.935 728.014,272.769 730.5,269C 730.333,268.5 730.167,268 730,267.5C 729.583,268.756 728.75,269.423 727.5,269.5C 732.626,259.712 740.626,253.712 751.5,251.5 Z"/></g>
<g><path style="opacity:0.125" fill="#f0e9e7" d="M 272.5,250.5 C 251.776,247.205 235.776,254.205 224.5,271.5C 222.231,275.038 220.231,278.705 218.5,282.5C 223.513,260.16 237.513,248.827 260.5,248.5C 264.893,248.509 268.893,249.176 272.5,250.5 Z"/></g>
<g><path style="opacity:0.152" fill="#fbf6f4" d="M 218.5,282.5 C 217.294,288.317 215.961,293.984 214.5,299.5C 214.177,295.774 214.511,292.107 215.5,288.5C 215.964,286.025 216.964,284.025 218.5,282.5 Z"/></g>
<g><path style="opacity:1" fill="#d9804e" d="M 726.5,281.5 C 722.74,288.428 719.74,295.761 717.5,303.5C 698.895,367.724 685.561,433.057 677.5,499.5C 668.648,508.852 659.648,518.019 650.5,527C 645.205,530.96 640.205,535.293 635.5,540C 633.229,539.618 631.229,538.451 629.5,536.5C 627.851,534.35 626.018,532.35 624,530.5C 623.517,529.552 623.351,528.552 623.5,527.5C 622.448,527.649 621.448,527.483 620.5,527C 617,522.167 612.833,518 608,514.5C 607.517,513.552 607.351,512.552 607.5,511.5C 601.63,508.141 596.464,503.808 592,498.5C 591.517,497.552 591.351,496.552 591.5,495.5C 589.567,495.271 587.9,494.438 586.5,493C 583.376,489.175 579.876,485.675 576,482.5C 575.517,481.552 575.351,480.552 575.5,479.5C 574.325,479.719 573.325,479.386 572.5,478.5C 563.708,468.516 554.208,459.183 544,450.5C 543.517,449.552 543.351,448.552 543.5,447.5C 541.567,447.271 539.9,446.438 538.5,445C 533.705,440.04 528.705,435.207 523.5,430.5C 512.087,441.061 500.754,451.895 489.5,463C 474.796,474.495 460.296,474.329 446,462.5C 437.791,450.682 437.458,438.682 445,426.5C 462.53,408.969 480.363,391.803 498.5,375C 508.003,370.094 517.336,370.427 526.5,376C 538.14,386.972 549.807,397.972 561.5,409C 562.5,409.667 563.5,409.667 564.5,409C 595.007,392.106 623.673,372.439 650.5,350C 678.111,324.892 703.777,298.059 727.5,269.5C 728.75,269.423 729.583,268.756 730,267.5C 730.167,268 730.333,268.5 730.5,269C 728.014,272.769 726.681,276.935 726.5,281.5 Z"/></g>
<g><path style="opacity:0.209" fill="#dfd5d4" d="M 214.5,335.5 C 215.451,342.995 216.118,350.661 216.5,358.5C 214.535,351.24 213.868,343.573 214.5,335.5 Z"/></g>
<g><path style="opacity:1" fill="#eda558" d="M 726.5,281.5 C 728.902,282.886 731.236,284.553 733.5,286.5C 731.604,287.466 729.604,287.799 727.5,287.5C 726.177,295.439 725.511,303.439 725.5,311.5C 724.5,311.5 723.5,311.5 722.5,311.5C 723.161,338.188 723.161,364.855 722.5,391.5C 721.5,391.5 720.5,391.5 719.5,391.5C 719.5,394.167 719.5,396.833 719.5,399.5C 720.833,399.5 722.167,399.5 723.5,399.5C 723.5,410.167 723.5,420.833 723.5,431.5C 724.833,431.5 726.167,431.5 727.5,431.5C 727.5,432.833 727.5,434.167 727.5,435.5C 725.5,435.5 723.5,435.5 721.5,435.5C 721.5,437.5 721.5,439.5 721.5,441.5C 722.833,441.5 724.167,441.5 725.5,441.5C 725.5,440.167 725.5,438.833 725.5,437.5C 726.833,437.5 728.167,437.5 729.5,437.5C 729.5,438.833 729.5,440.167 729.5,441.5C 729.291,442.922 728.791,444.255 728,445.5C 722.961,450.537 718.294,455.871 714,461.5C 712.89,463.037 711.39,463.703 709.5,463.5C 709.649,464.552 709.483,465.552 709,466.5C 702.769,473.391 696.602,480.225 690.5,487C 689.552,487.483 688.552,487.649 687.5,487.5C 687.649,488.552 687.483,489.552 687,490.5C 683.855,493.632 680.688,496.632 677.5,499.5C 685.561,433.057 698.895,367.724 717.5,303.5C 719.74,295.761 722.74,288.428 726.5,281.5 Z"/></g>
<g><path style="opacity:0.125" fill="#e5dfdd" d="M 216.5,359.5 C 218.054,363.567 218.72,367.9 218.5,372.5C 216.57,368.627 215.903,364.294 216.5,359.5 Z"/></g>
<g><path style="opacity:0.141" fill="#f4efed" d="M 272.5,250.5 C 278.349,250.42 283.682,252.086 288.5,255.5C 295.267,263.356 302.267,271.023 309.5,278.5C 314.659,287.668 321.326,295.668 329.5,302.5C 330.167,303.833 330.833,305.167 331.5,306.5C 347.893,323.562 364.893,339.895 382.5,355.5C 385.833,357.5 389.167,359.5 392.5,361.5C 399.833,367.5 407.167,373.5 414.5,379.5C 424.37,384.711 433.704,390.711 442.5,397.5C 444.99,399.083 447.657,400.083 450.5,400.5C 450.813,403.247 450.48,405.914 449.5,408.5C 441.987,414.672 435.987,422.005 431.5,430.5C 429.102,436.951 428.102,443.618 428.5,450.5C 425.725,439.277 427.892,428.944 435,419.5C 440.015,414.652 444.848,409.652 449.5,404.5C 389.825,369.339 338.992,324.006 297,268.5C 293.167,264.667 289.333,260.833 285.5,257C 281.229,254.533 276.896,252.366 272.5,250.5 Z"/></g>
<g><path style="opacity:0.749" fill="#e7c485" d="M 799.5,403.5 C 798.492,407.596 797.492,411.596 796.5,415.5C 795.886,410.968 796.886,406.968 799.5,403.5 Z"/></g>
<g><path style="opacity:1" fill="#eebe84" d="M 741.5,433.5 C 741.5,432.167 740.833,431.5 739.5,431.5C 742.466,426.894 745.799,423.228 749.5,420.5C 747.87,423.276 747.203,426.276 747.5,429.5C 745.115,430.292 743.115,431.626 741.5,433.5 Z"/></g>
<g><path style="opacity:0.204" fill="#f4eeed" d="M 428.5,450.5 C 433.951,464.955 443.951,475.288 458.5,481.5C 464.463,482.496 470.463,482.829 476.5,482.5C 470.347,483.653 464.014,483.82 457.5,483C 440.902,478.241 431.236,467.408 428.5,450.5 Z"/></g>
<g><path style="opacity:0.055" fill="#fbf5ed" d="M 808.5,348.5 C 809.618,333.532 809.785,318.532 809,303.5C 807.855,291.919 804.688,280.919 799.5,270.5C 794.167,265.167 788.833,259.833 783.5,254.5C 779.678,253.773 776.011,252.773 772.5,251.5C 768.426,250.046 764.093,249.379 759.5,249.5C 756.41,249.522 753.743,250.188 751.5,251.5C 740.626,253.712 732.626,259.712 727.5,269.5C 703.777,298.059 678.111,324.892 650.5,350C 623.673,372.439 595.007,392.106 564.5,409C 563.5,409.667 562.5,409.667 561.5,409C 549.807,397.972 538.14,386.972 526.5,376C 517.336,370.427 508.003,370.094 498.5,375C 480.363,391.803 462.53,408.969 445,426.5C 437.458,438.682 437.791,450.682 446,462.5C 460.296,474.329 474.796,474.495 489.5,463C 500.754,451.895 512.087,441.061 523.5,430.5C 528.705,435.207 533.705,440.04 538.5,445C 539.9,446.438 541.567,447.271 543.5,447.5C 543.351,448.552 543.517,449.552 544,450.5C 554.208,459.183 563.708,468.516 572.5,478.5C 573.325,479.386 574.325,479.719 575.5,479.5C 575.351,480.552 575.517,481.552 576,482.5C 579.876,485.675 583.376,489.175 586.5,493C 587.9,494.438 589.567,495.271 591.5,495.5C 591.351,496.552 591.517,497.552 592,498.5C 596.464,503.808 601.63,508.141 607.5,511.5C 607.351,512.552 607.517,513.552 608,514.5C 612.833,518 617,522.167 620.5,527C 621.448,527.483 622.448,527.649 623.5,527.5C 623.351,528.552 623.517,529.552 624,530.5C 626.018,532.35 627.851,534.35 629.5,536.5C 631.229,538.451 633.229,539.618 635.5,540C 640.205,535.293 645.205,530.96 650.5,527C 659.648,518.019 668.648,508.852 677.5,499.5C 680.688,496.632 683.855,493.632 687,490.5C 687.483,489.552 687.649,488.552 687.5,487.5C 688.552,487.649 689.552,487.483 690.5,487C 696.602,480.225 702.769,473.391 709,466.5C 709.483,465.552 709.649,464.552 709.5,463.5C 711.39,463.703 712.89,463.037 714,461.5C 718.294,455.871 722.961,450.537 728,445.5C 728.791,444.255 729.291,442.922 729.5,441.5C 733.479,438.855 736.812,435.521 739.5,431.5C 740.833,431.5 741.5,432.167 741.5,433.5C 734.721,442.965 728.721,452.965 723.5,463.5C 711.829,480.832 701.162,498.832 691.5,517.5C 690.542,517.953 689.708,518.619 689,519.5C 678.065,538.61 666.898,557.61 655.5,576.5C 651.508,584.146 647.841,591.813 644.5,599.5C 644.944,593.498 646.611,587.832 649.5,582.5C 667.5,551.833 685.5,521.167 703.5,490.5C 709.5,481.167 715.5,471.833 721.5,462.5C 723.083,460.01 724.083,457.343 724.5,454.5C 721.912,456.08 719.578,458.08 717.5,460.5C 711.5,467.833 705.5,475.167 699.5,482.5C 679.774,502.894 659.441,522.56 638.5,541.5C 635.833,542.833 633.167,542.833 630.5,541.5C 594.833,505.833 559.167,470.167 523.5,434.5C 511.229,444.768 499.563,455.768 488.5,467.5C 485.833,468.833 483.167,470.167 480.5,471.5C 470.321,473.151 460.321,472.485 450.5,469.5C 446.082,465.753 442.416,461.42 439.5,456.5C 437.849,446.321 438.515,436.321 441.5,426.5C 455.833,412.167 470.167,397.833 484.5,383.5C 489.833,379.5 495.167,375.5 500.5,371.5C 508.5,370.167 516.5,370.167 524.5,371.5C 535.77,380.767 546.436,390.767 556.5,401.5C 559.362,402.43 561.695,404.097 563.5,406.5C 567.674,403.912 572.007,401.579 576.5,399.5C 587.167,392.833 597.833,386.167 608.5,379.5C 652.012,347.99 690.345,310.99 723.5,268.5C 728.5,263.5 733.5,258.5 738.5,253.5C 754.447,246.928 770.447,246.928 786.5,253.5C 800.2,264.565 807.867,278.898 809.5,296.5C 809.833,305.167 810.167,313.833 810.5,322.5C 810.498,331.527 809.831,340.193 808.5,348.5 Z M 724.5,454.5 C 724.639,452.663 725.306,452.33 726.5,453.5C 726.043,454.298 725.376,454.631 724.5,454.5 Z"/></g>
<g><path style="opacity:1" fill="#e5be82" d="M 772.5,251.5 C 771.833,251.5 771.167,251.5 770.5,251.5C 764.167,251.5 757.833,251.5 751.5,251.5C 753.743,250.188 756.41,249.522 759.5,249.5C 764.093,249.379 768.426,250.046 772.5,251.5 Z"/></g>
<g><path style="opacity:0.204" fill="#f0ecec" d="M 523.5,446.5 C 513.032,456.8 502.365,466.967 491.5,477C 486.893,479.973 481.893,481.807 476.5,482.5C 481.968,480.09 487.301,477.09 492.5,473.5C 501.167,464.833 509.833,456.167 518.5,447.5C 520.045,446.548 521.712,446.215 523.5,446.5 Z"/></g>
<g><path style="opacity:0.125" fill="#fbf1e5" d="M 808.5,351.5 C 807.101,368.624 804.768,385.624 801.5,402.5C 794.312,433.394 786.312,464.061 777.5,494.5C 776.943,496.332 775.943,497.665 774.5,498.5C 782.236,470.818 789.569,443.152 796.5,415.5C 797.492,411.596 798.492,407.596 799.5,403.5C 801.986,388.887 804.153,374.22 806,359.5C 806.943,356.749 807.776,354.083 808.5,351.5 Z"/></g>
<g><path style="opacity:0.142" fill="#f3edeb" d="M 218.5,372.5 C 234.546,459.14 260.379,542.807 296,623.5C 298.579,628.992 301.412,634.325 304.5,639.5C 318.603,649.628 333.937,651.961 350.5,646.5C 355.086,644.874 359.419,642.707 363.5,640C 380.508,623.814 383.675,605.314 373,584.5C 339.689,530.574 307.356,476.241 276,421.5C 310.345,464.182 347.845,504.015 388.5,541C 389.609,541.638 390.775,542.138 392,542.5C 394.567,541.132 397.067,539.632 399.5,538C 402.393,536.851 405.393,536.351 408.5,536.5C 404.364,538.25 400.364,540.583 396.5,543.5C 393.167,544.833 389.833,544.833 386.5,543.5C 356.709,514.043 327.375,484.377 298.5,454.5C 298.238,455.978 298.571,457.311 299.5,458.5C 324.167,499.167 348.833,539.833 373.5,580.5C 382.131,596.747 382.798,613.414 375.5,630.5C 373.218,634.718 370.218,638.384 366.5,641.5C 347.838,651.833 328.504,653.166 308.5,645.5C 305.638,644.57 303.305,642.903 301.5,640.5C 265.235,562.371 238.568,481.038 221.5,396.5C 219.844,388.568 218.844,380.568 218.5,372.5 Z M 298.5,454.5 C 298.631,453.624 298.298,452.957 297.5,452.5C 296.33,453.694 296.663,454.361 298.5,454.5 Z"/></g>
<g><path style="opacity:0.999" fill="#eda558" d="M 740.5,591.5 C 734.729,608.049 727.562,624.049 719,639.5C 714.256,642.796 709.089,644.796 703.5,645.5C 700.428,645.817 697.428,645.484 694.5,644.5C 697.399,642.94 700.399,641.607 703.5,640.5C 701.542,627.011 700.876,613.344 701.5,599.5C 700.5,599.5 699.5,599.5 698.5,599.5C 698.5,583.5 698.5,567.5 698.5,551.5C 699.5,551.5 700.5,551.5 701.5,551.5C 701.5,548.833 701.5,546.167 701.5,543.5C 700.5,543.5 699.5,543.5 698.5,543.5C 698.666,538.156 698.499,532.823 698,527.5C 696.443,524.334 695.61,521 695.5,517.5C 694.167,517.5 692.833,517.5 691.5,517.5C 701.162,498.832 711.829,480.832 723.5,463.5C 723.707,465.604 723.874,467.937 724,470.5C 724.414,470.957 724.914,471.291 725.5,471.5C 727.833,467.455 730.167,463.455 732.5,459.5C 733.505,463.479 733.505,467.479 732.5,471.5C 733.5,471.5 734.5,471.5 735.5,471.5C 735.5,472.833 735.5,474.167 735.5,475.5C 732.753,475.187 730.086,475.52 727.5,476.5C 726.625,478.773 724.958,479.773 722.5,479.5C 722.5,484.833 722.5,490.167 722.5,495.5C 721.5,495.5 720.5,495.5 719.5,495.5C 719.5,500.833 719.5,506.167 719.5,511.5C 720.833,511.5 722.167,511.5 723.5,511.5C 723.5,516.833 723.5,522.167 723.5,527.5C 724.833,527.5 726.167,527.5 727.5,527.5C 727.5,532.833 727.5,538.167 727.5,543.5C 729.167,543.5 730.833,543.5 732.5,543.5C 732.383,562.51 732.216,581.51 732,600.5C 733.124,594.978 733.958,589.311 734.5,583.5C 736.876,585.627 737.876,588.293 737.5,591.5C 738.5,591.5 739.5,591.5 740.5,591.5 Z"/></g>
<g><path style="opacity:0.154" fill="#f6f2f0" d="M 524.5,446.5 C 525.978,446.238 527.311,446.571 528.5,447.5C 561.5,480.5 594.5,513.5 627.5,546.5C 628.466,548.396 628.799,550.396 628.5,552.5C 593.417,517.418 558.75,482.085 524.5,446.5 Z"/></g>
<g><path style="opacity:1" fill="#ea9f56" d="M 691.5,517.5 C 692.833,517.5 694.167,517.5 695.5,517.5C 695.61,521 696.443,524.334 698,527.5C 698.499,532.823 698.666,538.156 698.5,543.5C 699.5,543.5 700.5,543.5 701.5,543.5C 701.5,546.167 701.5,548.833 701.5,551.5C 700.5,551.5 699.5,551.5 698.5,551.5C 698.5,567.5 698.5,583.5 698.5,599.5C 699.5,599.5 700.5,599.5 701.5,599.5C 700.876,613.344 701.542,627.011 703.5,640.5C 700.399,641.607 697.399,642.94 694.5,644.5C 697.428,645.484 700.428,645.817 703.5,645.5C 699.307,648.944 694.307,650.278 688.5,649.5C 665.979,648.31 651.312,636.977 644.5,615.5C 644.5,610.167 644.5,604.833 644.5,599.5C 647.841,591.813 651.508,584.146 655.5,576.5C 666.898,557.61 678.065,538.61 689,519.5C 689.708,518.619 690.542,517.953 691.5,517.5 Z"/></g>
<g><path style="opacity:0.166" fill="#f3efed" d="M 416.5,536.5 C 418.854,536.838 421.187,537.338 423.5,538C 435.859,543.523 442.526,553.023 443.5,566.5C 460.75,565.943 472.417,573.609 478.5,589.5C 478.5,590.5 478.5,591.5 478.5,592.5C 473.782,584.753 467.782,577.753 460.5,571.5C 454.715,569.202 448.715,568.202 442.5,568.5C 441.766,558.037 437.099,549.704 428.5,543.5C 424.636,540.583 420.636,538.25 416.5,536.5 Z"/></g>
<g><path style="opacity:0.953" fill="#e7b778" d="M 404.5,547.5 C 410.711,547.016 416.711,547.849 422.5,550C 423.71,551.039 424.71,552.206 425.5,553.5C 421.213,551.589 416.713,550.256 412,549.5C 408.162,550.283 404.329,550.95 400.5,551.5C 401.833,550.5 403.167,549.5 404.5,548.5C 404.5,548.167 404.5,547.833 404.5,547.5 Z"/></g>
<g><path style="opacity:0.439" fill="#e1cdc8" d="M 592.5,571.5 C 591.833,571.5 591.5,571.833 591.5,572.5C 582.229,562.728 572.729,553.062 563,543.5C 562.333,542.833 562.333,542.167 563,541.5C 573.036,551.368 582.869,561.368 592.5,571.5 Z"/></g>
<g><path style="opacity:0.439" fill="#bfaca5" d="M 532.5,575.5 C 531.833,575.5 531.5,575.833 531.5,576.5C 526.734,571.838 522.067,567.004 517.5,562C 523.158,565.477 528.158,569.977 532.5,575.5 Z"/></g>
<g><path style="opacity:0.084" fill="#fcf4e7" d="M 774.5,499.5 C 773.983,504.572 772.983,509.572 771.5,514.5C 759.166,551.83 745.166,588.496 729.5,624.5C 726.784,630.262 723.784,635.929 720.5,641.5C 704.015,650.717 686.681,652.717 668.5,647.5C 654.317,641.335 646.317,630.669 644.5,615.5C 651.312,636.977 665.979,648.31 688.5,649.5C 694.307,650.278 699.307,648.944 703.5,645.5C 709.089,644.796 714.256,642.796 719,639.5C 727.562,624.049 734.729,608.049 740.5,591.5C 749.685,571.445 757.352,550.779 763.5,529.5C 766.59,519.313 770.257,509.313 774.5,499.5 Z"/></g>
<g><path style="opacity:1" fill="#492e29" d="M 350.5,646.5 C 333.937,651.961 318.603,649.628 304.5,639.5C 301.412,634.325 298.579,628.992 296,623.5C 260.379,542.807 234.546,459.14 218.5,372.5C 218.72,367.9 218.054,363.567 216.5,359.5C 216.5,359.167 216.5,358.833 216.5,358.5C 216.118,350.661 215.451,342.995 214.5,335.5C 214.5,323.5 214.5,311.5 214.5,299.5C 215.961,293.984 217.294,288.317 218.5,282.5C 220.231,278.705 222.231,275.038 224.5,271.5C 229.011,271.891 233.345,271.225 237.5,269.5C 243.47,270.248 249.47,270.748 255.5,271C 249.175,271.5 242.842,271.666 236.5,271.5C 236.5,274.167 236.5,276.833 236.5,279.5C 235.5,279.5 234.5,279.5 233.5,279.5C 233.828,284.875 233.495,290.208 232.5,295.5C 231.52,292.914 231.187,290.247 231.5,287.5C 230.5,287.5 229.5,287.5 228.5,287.5C 228.5,292.833 228.5,298.167 228.5,303.5C 227.5,303.5 226.5,303.5 225.5,303.5C 225.5,319.5 225.5,335.5 225.5,351.5C 226.5,351.5 227.5,351.5 228.5,351.5C 228.5,354.167 228.5,356.833 228.5,359.5C 232.167,359.5 235.833,359.5 239.5,359.5C 239.5,362.167 239.5,364.833 239.5,367.5C 236.833,367.5 234.167,367.5 231.5,367.5C 231.5,372.833 231.5,378.167 231.5,383.5C 234.167,383.5 236.833,383.5 239.5,383.5C 239.5,388.833 239.5,394.167 239.5,399.5C 244.833,399.5 250.167,399.5 255.5,399.5C 255.169,391.472 255.502,383.472 256.5,375.5C 257.495,380.792 257.828,386.125 257.5,391.5C 258.5,391.5 259.5,391.5 260.5,391.5C 260.5,396.833 260.5,402.167 260.5,407.5C 261.5,407.5 262.5,407.5 263.5,407.5C 263.187,404.753 263.52,402.086 264.5,399.5C 265.495,404.792 265.828,410.125 265.5,415.5C 263.833,415.5 262.167,415.5 260.5,415.5C 260.5,418.167 260.5,420.833 260.5,423.5C 261.5,423.5 262.5,423.5 263.5,423.5C 263.5,426.167 263.5,428.833 263.5,431.5C 262.5,431.5 261.5,431.5 260.5,431.5C 260.5,434.167 260.5,436.833 260.5,439.5C 257.833,439.5 255.167,439.5 252.5,439.5C 252.333,452.171 252.5,464.838 253,477.5C 253.192,475.423 253.692,473.423 254.5,471.5C 255.491,475.445 255.824,479.445 255.5,483.5C 254.325,483.281 253.325,483.614 252.5,484.5C 253.928,487.35 253.261,488.35 250.5,487.5C 249.447,488.438 248.78,489.605 248.5,491C 249.262,494.528 250.929,496.695 253.5,497.5C 252.391,499.214 253.058,499.881 255.5,499.5C 255.5,498.167 255.5,496.833 255.5,495.5C 261.5,495.5 267.5,495.5 273.5,495.5C 273.5,498.167 273.5,500.833 273.5,503.5C 274.5,503.5 275.5,503.5 276.5,503.5C 276.5,506.167 276.5,508.833 276.5,511.5C 273.428,511.183 270.428,511.516 267.5,512.5C 268.5,513.5 269.5,514.5 270.5,515.5C 271.491,519.445 271.824,523.445 271.5,527.5C 274.167,527.5 276.833,527.5 279.5,527.5C 279.5,532.833 279.5,538.167 279.5,543.5C 287.5,543.5 295.5,543.5 303.5,543.5C 303.5,538.167 303.5,532.833 303.5,527.5C 306.167,527.5 308.833,527.5 311.5,527.5C 311.5,532.833 311.5,538.167 311.5,543.5C 313.167,543.5 314.833,543.5 316.5,543.5C 316.5,546.167 316.5,548.833 316.5,551.5C 309.5,551.5 302.5,551.5 295.5,551.5C 295.5,554.167 295.5,556.833 295.5,559.5C 291.833,559.5 288.167,559.5 284.5,559.5C 284.5,562.167 284.5,564.833 284.5,567.5C 285.5,567.5 286.5,567.5 287.5,567.5C 287.5,575.5 287.5,583.5 287.5,591.5C 292.167,591.5 296.833,591.5 301.5,591.5C 302.167,570.167 302.833,570.167 303.5,591.5C 306.167,591.5 308.833,591.5 311.5,591.5C 311.172,586.125 311.505,580.792 312.5,575.5C 313.48,578.086 313.813,580.753 313.5,583.5C 314.5,583.5 315.5,583.5 316.5,583.5C 316.5,586.167 316.5,588.833 316.5,591.5C 317.5,591.5 318.5,591.5 319.5,591.5C 319.5,596.833 319.5,602.167 319.5,607.5C 321.167,607.5 322.833,607.5 324.5,607.5C 324.5,612.833 324.5,618.167 324.5,623.5C 325.5,623.5 326.5,623.5 327.5,623.5C 327.5,626.167 327.5,628.833 327.5,631.5C 330.167,631.5 332.833,631.5 335.5,631.5C 335.351,632.552 335.517,633.552 336,634.5C 338.644,636.31 341.144,638.31 343.5,640.5C 336.678,641.507 330.011,642.007 323.5,642C 325.481,642.605 325.815,643.605 324.5,645C 331.189,647.927 338.022,648.093 345,645.5C 347.033,645.506 348.866,645.839 350.5,646.5 Z"/></g>
<g><path style="opacity:1" fill="#f0af5c" d="M 426.5,605.5 C 426.5,600.833 426.5,596.167 426.5,591.5C 427.391,590.739 428.058,589.739 428.5,588.5C 429.325,587.614 430.325,587.281 431.5,587.5C 431.33,586.178 431.663,585.011 432.5,584C 440.755,578.791 449.421,578.124 458.5,582C 466.822,588.572 469.489,597.072 466.5,607.5C 465.896,610.263 464.562,612.597 462.5,614.5C 452.144,623.681 441.811,623.681 431.5,614.5C 430.059,611.276 428.392,608.276 426.5,605.5 Z"/></g>
<g><path style="opacity:0.251" fill="#bcb4b1" d="M 478.5,589.5 C 479.473,591.948 479.806,594.615 479.5,597.5C 483.042,597.187 486.375,597.521 489.5,598.5C 489.167,598.5 488.833,598.5 488.5,598.5C 485.167,598.5 481.833,598.5 478.5,598.5C 478.5,596.5 478.5,594.5 478.5,592.5C 478.5,591.5 478.5,590.5 478.5,589.5 Z"/></g>
<g><path style="opacity:0.259" fill="#f4efec" d="M 628.5,561.5 C 629.452,570.956 625.452,576.956 616.5,579.5C 611.208,580.495 605.875,580.828 600.5,580.5C 603.647,594.529 598.98,604.863 586.5,611.5C 580.5,612.833 574.5,612.833 568.5,611.5C 566.01,609.917 563.343,608.917 560.5,608.5C 561.856,631.466 551.189,640.466 528.5,635.5C 517.833,624.833 507.167,614.167 496.5,603.5C 493.367,602.284 490.7,600.617 488.5,598.5C 488.833,598.5 489.167,598.5 489.5,598.5C 492.311,598.826 494.978,599.659 497.5,601C 508.833,611 519.5,621.667 529.5,633C 536.365,636.57 543.032,636.237 549.5,632C 560.933,622.894 562.433,612.394 554,600.5C 545.929,592.932 538.429,584.932 531.5,576.5C 531.5,575.833 531.833,575.5 532.5,575.5C 543.298,585.798 553.965,596.298 564.5,607C 573.728,613.161 582.728,612.827 591.5,606C 602.084,594.732 602.084,583.565 591.5,572.5C 591.5,571.833 591.833,571.5 592.5,571.5C 596,574.753 600,577.253 604.5,579C 617.464,579.858 625.464,574.024 628.5,561.5 Z M 600.5,580.5 C 598.663,580.361 598.33,579.694 599.5,578.5C 600.298,578.957 600.631,579.624 600.5,580.5 Z"/></g>
<g><path style="opacity:0.031" fill="#faf2e7" d="M 404.5,547.5 C 411.87,545.999 419.203,546.666 426.5,549.5C 428.903,551.305 430.57,553.638 431.5,556.5C 432.498,564.472 432.831,572.472 432.5,580.5C 441.06,578.421 449.726,578.088 458.5,579.5C 466.575,583.649 469.908,590.316 468.5,599.5C 468.429,603.687 467.762,607.687 466.5,611.5C 467.167,611.833 467.833,612.167 468.5,612.5C 476.098,608.655 484.098,607.655 492.5,609.5C 501.71,613.916 505.71,621.249 504.5,631.5C 505.5,646.5 498.5,653.5 483.5,652.5C 474.316,653.908 467.649,650.575 463.5,642.5C 462.502,634.528 462.169,626.528 462.5,618.5C 451.159,624.242 440.159,623.575 429.5,616.5C 427.348,613.135 426.348,609.468 426.5,605.5C 428.392,608.276 430.059,611.276 431.5,614.5C 441.811,623.681 452.144,623.681 462.5,614.5C 464.562,612.597 465.896,610.263 466.5,607.5C 469.489,597.072 466.822,588.572 458.5,582C 449.421,578.124 440.755,578.791 432.5,584C 431.663,585.011 431.33,586.178 431.5,587.5C 430.325,587.281 429.325,587.614 428.5,588.5C 428.058,589.739 427.391,590.739 426.5,591.5C 426.5,590.5 426.5,589.5 426.5,588.5C 397.254,596.919 385.588,586.252 391.5,556.5C 393.833,554.167 396.167,551.833 398.5,549.5C 400.396,548.534 402.396,548.201 404.5,548.5C 403.167,549.5 401.833,550.5 400.5,551.5C 394.413,554.999 391.413,560.333 391.5,567.5C 391.423,572.316 392.089,576.982 393.5,581.5C 394.675,581.281 395.675,581.614 396.5,582.5C 400.042,587.769 405.042,590.102 411.5,589.5C 421.223,589.133 427.723,584.467 431,575.5C 431.667,570.167 431.667,564.833 431,559.5C 429.669,557.004 427.836,555.004 425.5,553.5C 424.71,552.206 423.71,551.039 422.5,550C 416.711,547.849 410.711,547.016 404.5,547.5 Z M 462.5,618.5 C 463.376,618.631 464.043,618.298 464.5,617.5C 463.306,616.33 462.639,616.663 462.5,618.5 Z M 432.5,580.5 C 431.624,580.369 430.957,580.702 430.5,581.5C 431.694,582.67 432.361,582.337 432.5,580.5 Z"/></g>
<g><path style="opacity:0.969" fill="#d28a67" d="M 494.5,613.5 C 490.817,613.053 487.15,612.387 483.5,611.5C 477.931,612.954 472.598,614.954 467.5,617.5C 475.441,608.582 484.441,607.249 494.5,613.5 Z"/></g>
<g><path style="opacity:1" fill="#f1af59" d="M 425.5,553.5 C 427.836,555.004 429.669,557.004 431,559.5C 431.667,564.833 431.667,570.167 431,575.5C 427.723,584.467 421.223,589.133 411.5,589.5C 405.042,590.102 400.042,587.769 396.5,582.5C 395.675,581.614 394.675,581.281 393.5,581.5C 392.089,576.982 391.423,572.316 391.5,567.5C 391.413,560.333 394.413,554.999 400.5,551.5C 404.329,550.95 408.162,550.283 412,549.5C 416.713,550.256 421.213,551.589 425.5,553.5 Z"/></g>
<g><path style="opacity:0.999" fill="#db824f" d="M 494.5,613.5 C 503.076,619.231 505.909,627.231 503,637.5C 497.618,649.419 488.451,653.919 475.5,651C 464.161,645.139 460.328,635.973 464,623.5C 464.421,620.98 465.588,618.98 467.5,617.5C 472.598,614.954 477.931,612.954 483.5,611.5C 487.15,612.387 490.817,613.053 494.5,613.5 Z"/></g>
</svg>
