<?xml version="1.0" encoding="UTF-8"?>
<!DOCTYPE svg PUBLIC "-//W3C//DTD SVG 1.1//EN" "http://www.w3.org/Graphics/SVG/1.1/DTD/svg11.dtd">
<svg xmlns="http://www.w3.org/2000/svg" version="1.1" width="1024px" height="1024px" style="shape-rendering:geometricPrecision; text-rendering:geometricPrecision; image-rendering:optimizeQuality; fill-rule:evenodd; clip-rule:evenodd" xmlns:xlink="http://www.w3.org/1999/xlink">
<g><path style="opacity:1" fill="#fcfcfc" d="M 143.5,76.5 C 391.5,76.5 639.5,76.5 887.5,76.5C 887.5,282.5 887.5,488.5 887.5,694.5C 639.5,694.5 391.5,694.5 143.5,694.5C 143.5,488.5 143.5,282.5 143.5,76.5 Z"/></g>
<g><path style="opacity:1" fill="#4a2f2a" d="M 345.5,123.5 C 385.547,120.579 411.047,138.246 422,176.5C 424.753,215.729 407.253,240.562 369.5,251C 341.65,254.985 319.816,245.485 304,222.5C 291.387,199.089 291.387,175.755 304,152.5C 314.419,137.909 328.252,128.243 345.5,123.5 Z"/></g>
<g><path style="opacity:1" fill="#efab5a" d="M 671.5,123.5 C 683.578,124.632 694.245,128.965 703.5,136.5C 703.5,137.5 703.5,138.5 703.5,139.5C 706.008,140.741 708.342,142.407 710.5,144.5C 707.721,147.723 705.721,151.39 704.5,155.5C 702.985,168.895 703.319,182.229 705.5,195.5C 702.839,206.871 702.839,218.205 705.5,229.5C 708.167,229.5 710.833,229.5 713.5,229.5C 706.394,238.943 697.061,245.443 685.5,249C 683.527,249.495 681.527,249.662 679.5,249.5C 671.381,249.886 663.381,249.219 655.5,247.5C 655.5,246.167 655.5,244.833 655.5,243.5C 658.898,243.82 662.232,243.487 665.5,242.5C 663.076,240.286 663.743,239.286 667.5,239.5C 667.5,234.167 667.5,228.833 667.5,223.5C 668.833,223.5 670.167,223.5 671.5,223.5C 671.5,218.167 671.5,212.833 671.5,207.5C 670.167,207.5 668.833,207.5 667.5,207.5C 667.5,191.491 667.166,175.491 666.5,159.5C 665.5,159.5 664.5,159.5 663.5,159.5C 663.5,154.167 663.5,148.833 663.5,143.5C 666.167,143.5 668.833,143.5 671.5,143.5C 671.5,138.167 671.5,132.833 671.5,127.5C 673.924,127.808 676.257,127.474 678.5,126.5C 675.705,126.062 673.372,125.062 671.5,123.5 Z"/></g>
<g><path style="opacity:1" fill="#eea657" d="M 671.5,123.5 C 673.372,125.062 675.705,126.062 678.5,126.5C 676.257,127.474 673.924,127.808 671.5,127.5C 671.5,132.833 671.5,138.167 671.5,143.5C 668.833,143.5 666.167,143.5 663.5,143.5C 663.5,148.833 663.5,154.167 663.5,159.5C 664.5,159.5 665.5,159.5 666.5,159.5C 667.166,175.491 667.5,191.491 667.5,207.5C 668.833,207.5 670.167,207.5 671.5,207.5C 671.5,212.833 671.5,218.167 671.5,223.5C 670.167,223.5 668.833,223.5 667.5,223.5C 667.5,228.833 667.5,234.167 667.5,239.5C 663.743,239.286 663.076,240.286 665.5,242.5C 662.232,243.487 658.898,243.82 655.5,243.5C 655.5,244.833 655.5,246.167 655.5,247.5C 663.381,249.219 671.381,249.886 679.5,249.5C 678.737,250.268 677.737,250.768 676.5,251C 662.247,252.344 648.58,250.344 635.5,245C 633.907,244.051 632.574,242.885 631.5,241.5C 639.363,242.804 642.863,239.471 642,231.5C 642.3,199.494 642.8,167.494 643.5,135.5C 639.551,135.307 639.551,134.807 643.5,134C 642.167,133.667 640.833,133.333 639.5,133C 642.063,131.921 644.729,131.421 647.5,131.5C 647.614,129.282 648.28,127.282 649.5,125.5C 649.611,124.883 649.944,124.383 650.5,124C 657.492,123.5 664.492,123.334 671.5,123.5 Z"/></g>
<g><path style="opacity:1" fill="#eca055" d="M 649.5,125.5 C 648.28,127.282 647.614,129.282 647.5,131.5C 644.729,131.421 642.063,131.921 639.5,133C 640.833,133.333 642.167,133.667 643.5,134C 639.551,134.807 639.551,135.307 643.5,135.5C 642.8,167.494 642.3,199.494 642,231.5C 642.863,239.471 639.363,242.804 631.5,241.5C 625.834,239.249 621.167,235.582 617.5,230.5C 600.483,208.765 597.15,185.098 607.5,159.5C 616.192,141.502 630.192,130.169 649.5,125.5 Z"/></g>
<g><path style="opacity:1" fill="#f1b05a" d="M 703.5,136.5 C 709.479,140.479 714.479,145.479 718.5,151.5C 722.441,159.29 725.775,167.29 728.5,175.5C 728.711,184.2 728.377,192.867 727.5,201.5C 726.07,207.031 724.07,212.364 721.5,217.5C 719.653,222.02 716.987,226.02 713.5,229.5C 710.833,229.5 708.167,229.5 705.5,229.5C 702.839,218.205 702.839,206.871 705.5,195.5C 703.319,182.229 702.985,168.895 704.5,155.5C 705.721,151.39 707.721,147.723 710.5,144.5C 708.342,142.407 706.008,140.741 703.5,139.5C 703.5,138.5 703.5,137.5 703.5,136.5 Z"/></g>
<g><path style="opacity:1" fill="#fde4be" d="M 728.5,175.5 C 729.656,183.323 729.823,191.323 729,199.5C 728.722,200.416 728.222,201.082 727.5,201.5C 728.377,192.867 728.711,184.2 728.5,175.5 Z"/></g>
<g><path style="opacity:1" fill="#f6d7aa" d="M 727.5,201.5 C 727.921,207.869 725.921,213.203 721.5,217.5C 724.07,212.364 726.07,207.031 727.5,201.5 Z"/></g>
<g><path style="opacity:1" fill="#e3bc7f" d="M 772.5,251.5 C 765.5,251.5 758.5,251.5 751.5,251.5C 754.356,249.994 757.523,249.328 761,249.5C 765.095,249.431 768.928,250.097 772.5,251.5 Z"/></g>
<g><path style="opacity:1" fill="#4b2f29" d="M 435.5,419.5 C 428.216,428.548 425.716,438.881 428,450.5C 434.446,475.585 450.612,486.418 476.5,483C 483.993,481.253 490.66,477.92 496.5,473C 505.363,463.803 514.53,454.969 524,446.5C 556.619,479.953 589.452,513.286 622.5,546.5C 624.127,548.63 625.96,550.63 628,552.5C 629.6,569.893 621.766,578.726 604.5,579C 602.359,578.427 600.359,577.594 598.5,576.5C 586.562,565.063 574.728,553.396 563,541.5C 562.833,541.833 562.667,542.167 562.5,542.5C 574.953,554.612 586.62,567.279 597.5,580.5C 601.589,595.485 596.256,605.651 581.5,611C 580,611.167 578.5,611.333 577,611.5C 572.574,610.864 568.407,609.531 564.5,607.5C 554.167,596.5 543.5,585.833 532.5,575.5C 528.158,569.977 523.158,565.477 517.5,562C 522.067,567.004 526.734,571.838 531.5,576.5C 541.235,586.896 550.568,597.563 559.5,608.5C 560.67,621.335 555.337,630.169 543.5,635C 538.597,635.937 533.93,635.27 529.5,633C 522.937,626.605 516.603,620.105 510.5,613.5C 504.922,606.381 497.922,601.214 489.5,598C 486.183,597.502 482.85,597.335 479.5,597.5C 478.205,582.762 470.539,572.929 456.5,568C 452.249,566.805 447.915,566.305 443.5,566.5C 442.526,553.023 435.859,543.523 423.5,538C 412.187,534.792 401.687,536.292 392,542.5C 390.415,541.956 388.915,541.289 387.5,540.5C 347.372,503.059 310.038,463.725 275.5,422.5C 306.164,474.499 337.331,526.165 369,577.5C 384.397,599.893 382.563,620.726 363.5,640C 359.419,642.707 355.086,644.874 350.5,646.5C 348.866,645.839 347.033,645.506 345,645.5C 338.022,648.093 331.189,647.927 324.5,645C 325.815,643.605 325.481,642.605 323.5,642C 330.011,642.007 336.678,641.507 343.5,640.5C 341.144,638.31 338.644,636.31 336,634.5C 335.517,633.552 335.351,632.552 335.5,631.5C 332.833,631.5 330.167,631.5 327.5,631.5C 327.5,628.833 327.5,626.167 327.5,623.5C 326.5,623.5 325.5,623.5 324.5,623.5C 324.5,618.167 324.5,612.833 324.5,607.5C 322.833,607.5 321.167,607.5 319.5,607.5C 319.5,602.167 319.5,596.833 319.5,591.5C 318.5,591.5 317.5,591.5 316.5,591.5C 316.5,588.833 316.5,586.167 316.5,583.5C 315.5,583.5 314.5,583.5 313.5,583.5C 313.813,580.753 313.48,578.086 312.5,575.5C 311.505,580.792 311.172,586.125 311.5,591.5C 308.833,591.5 306.167,591.5 303.5,591.5C 302.833,570.167 302.167,570.167 301.5,591.5C 296.833,591.5 292.167,591.5 287.5,591.5C 287.5,583.5 287.5,575.5 287.5,567.5C 286.5,567.5 285.5,567.5 284.5,567.5C 284.5,564.833 284.5,562.167 284.5,559.5C 288.167,559.5 291.833,559.5 295.5,559.5C 295.5,556.833 295.5,554.167 295.5,551.5C 302.5,551.5 309.5,551.5 316.5,551.5C 316.5,548.833 316.5,546.167 316.5,543.5C 314.833,543.5 313.167,543.5 311.5,543.5C 311.5,538.167 311.5,532.833 311.5,527.5C 308.833,527.5 306.167,527.5 303.5,527.5C 303.5,532.833 303.5,538.167 303.5,543.5C 295.5,543.5 287.5,543.5 279.5,543.5C 279.5,538.167 279.5,532.833 279.5,527.5C 276.833,527.5 274.167,527.5 271.5,527.5C 271.824,523.445 271.491,519.445 270.5,515.5C 269.5,514.5 268.5,513.5 267.5,512.5C 270.428,511.516 273.428,511.183 276.5,511.5C 276.5,508.833 276.5,506.167 276.5,503.5C 275.5,503.5 274.5,503.5 273.5,503.5C 273.5,500.833 273.5,498.167 273.5,495.5C 267.5,495.5 261.5,495.5 255.5,495.5C 255.5,496.833 255.5,498.167 255.5,499.5C 253.058,499.881 252.391,499.214 253.5,497.5C 250.929,496.695 249.262,494.528 248.5,491C 248.78,489.605 249.447,488.438 250.5,487.5C 253.261,488.35 253.928,487.35 252.5,484.5C 253.325,483.614 254.325,483.281 255.5,483.5C 255.824,479.445 255.491,475.445 254.5,471.5C 253.692,473.423 253.192,475.423 253,477.5C 252.5,464.838 252.333,452.171 252.5,439.5C 255.167,439.5 257.833,439.5 260.5,439.5C 260.5,436.833 260.5,434.167 260.5,431.5C 261.5,431.5 262.5,431.5 263.5,431.5C 263.5,428.833 263.5,426.167 263.5,423.5C 262.5,423.5 261.5,423.5 260.5,423.5C 260.5,420.833 260.5,418.167 260.5,415.5C 262.167,415.5 263.833,415.5 265.5,415.5C 265.828,410.125 265.495,404.792 264.5,399.5C 263.52,402.086 263.187,404.753 263.5,407.5C 262.5,407.5 261.5,407.5 260.5,407.5C 260.5,402.167 260.5,396.833 260.5,391.5C 259.5,391.5 258.5,391.5 257.5,391.5C 257.828,386.125 257.495,380.792 256.5,375.5C 255.502,383.472 255.169,391.472 255.5,399.5C 250.167,399.5 244.833,399.5 239.5,399.5C 239.5,394.167 239.5,388.833 239.5,383.5C 236.833,383.5 234.167,383.5 231.5,383.5C 231.5,378.167 231.5,372.833 231.5,367.5C 234.167,367.5 236.833,367.5 239.5,367.5C 239.5,364.833 239.5,362.167 239.5,359.5C 235.833,359.5 232.167,359.5 228.5,359.5C 228.5,356.833 228.5,354.167 228.5,351.5C 227.5,351.5 226.5,351.5 225.5,351.5C 225.5,335.5 225.5,319.5 225.5,303.5C 226.5,303.5 227.5,303.5 228.5,303.5C 228.5,298.167 228.5,292.833 228.5,287.5C 229.5,287.5 230.5,287.5 231.5,287.5C 231.187,290.247 231.52,292.914 232.5,295.5C 233.495,290.208 233.828,284.875 233.5,279.5C 234.5,279.5 235.5,279.5 236.5,279.5C 236.5,276.833 236.5,274.167 236.5,271.5C 242.842,271.666 249.175,271.5 255.5,271C 249.47,270.748 243.47,270.248 237.5,269.5C 233.345,271.225 229.011,271.891 224.5,271.5C 235.017,255.244 250.017,248.077 269.5,250C 275.116,251.758 280.449,254.092 285.5,257C 289.333,260.833 293.167,264.667 297,268.5C 338.992,324.006 389.825,369.339 449.5,404.5C 444.812,409.52 440.145,414.52 435.5,419.5 Z"/></g>
<g><path style="opacity:1" fill="#f1b05a" d="M 751.5,251.5 C 758.5,251.5 765.5,251.5 772.5,251.5C 776.011,252.773 779.678,253.773 783.5,254.5C 785.261,255.917 786.594,257.583 787.5,259.5C 782.264,262.005 782.597,264.005 788.5,265.5C 788.5,266.833 788.5,268.167 788.5,269.5C 789.675,269.281 790.675,269.614 791.5,270.5C 790.546,276.104 790.212,281.771 790.5,287.5C 791.833,287.5 793.167,287.5 794.5,287.5C 794.3,303.512 794.634,319.512 795.5,335.5C 794.331,350.194 793.664,364.861 793.5,379.5C 793.201,385.668 795.034,391.002 799,395.5C 799.49,396.793 799.657,398.127 799.5,399.5C 799.5,400.833 799.5,402.167 799.5,403.5C 796.886,406.968 795.886,410.968 796.5,415.5C 793.833,426.167 791.167,436.833 788.5,447.5C 787.508,451.404 786.508,455.404 785.5,459.5C 781.963,472.91 778.13,486.243 774,499.5C 772.124,505.062 769.958,510.395 767.5,515.5C 766.272,514.975 765.438,513.642 765,511.5C 764.667,503.5 764.333,495.5 764,487.5C 763.792,484.002 762.959,480.669 761.5,477.5C 761.833,476.833 762.167,476.167 762.5,475.5C 763.584,476.665 764.417,477.998 765,479.5C 765.635,477.365 765.301,475.365 764,473.5C 762.961,419.506 762.127,365.506 761.5,311.5C 760.813,292.673 758.813,274.006 755.5,255.5C 753.352,263.352 752.185,271.352 752,279.5C 751.503,276.854 751.336,274.187 751.5,271.5C 750.5,271.5 749.5,271.5 748.5,271.5C 748.5,270.167 748.5,268.833 748.5,267.5C 749.5,267.5 750.5,267.5 751.5,267.5C 751.5,262.167 751.5,256.833 751.5,251.5 Z"/></g>
<g><path style="opacity:1" fill="#efab59" d="M 751.5,251.5 C 751.5,256.833 751.5,262.167 751.5,267.5C 750.5,267.5 749.5,267.5 748.5,267.5C 748.5,268.833 748.5,270.167 748.5,271.5C 749.5,271.5 750.5,271.5 751.5,271.5C 751.336,274.187 751.503,276.854 752,279.5C 752.185,271.352 753.352,263.352 755.5,255.5C 758.813,274.006 760.813,292.673 761.5,311.5C 762.127,365.506 762.961,419.506 764,473.5C 765.301,475.365 765.635,477.365 765,479.5C 764.417,477.998 763.584,476.665 762.5,475.5C 762.167,476.167 761.833,476.833 761.5,477.5C 762.959,480.669 763.792,484.002 764,487.5C 764.333,495.5 764.667,503.5 765,511.5C 765.438,513.642 766.272,514.975 767.5,515.5C 767.662,517.527 767.495,519.527 767,521.5C 764.319,529.521 761.653,537.521 759,545.5C 753.428,561.178 747.261,576.512 740.5,591.5C 739.5,591.5 738.5,591.5 737.5,591.5C 737.876,588.293 736.876,585.627 734.5,583.5C 733.958,589.311 733.124,594.978 732,600.5C 732.216,581.51 732.383,562.51 732.5,543.5C 730.833,543.5 729.167,543.5 727.5,543.5C 727.5,538.167 727.5,532.833 727.5,527.5C 726.167,527.5 724.833,527.5 723.5,527.5C 723.5,522.167 723.5,516.833 723.5,511.5C 722.167,511.5 720.833,511.5 719.5,511.5C 719.5,506.167 719.5,500.833 719.5,495.5C 720.5,495.5 721.5,495.5 722.5,495.5C 722.5,490.167 722.5,484.833 722.5,479.5C 724.958,479.773 726.625,478.773 727.5,476.5C 730.086,475.52 732.753,475.187 735.5,475.5C 735.5,474.167 735.5,472.833 735.5,471.5C 731.818,471.665 728.152,471.499 724.5,471C 723.79,468.359 723.456,465.859 723.5,463.5C 729.504,452.824 735.504,442.158 741.5,431.5C 744.883,428.436 747.55,424.769 749.5,420.5C 745.799,423.228 742.466,426.894 739.5,431.5C 736.812,435.521 733.479,438.855 729.5,441.5C 729.5,440.167 729.5,438.833 729.5,437.5C 728.167,437.5 726.833,437.5 725.5,437.5C 725.5,438.833 725.5,440.167 725.5,441.5C 724.167,441.5 722.833,441.5 721.5,441.5C 721.5,439.5 721.5,437.5 721.5,435.5C 723.5,435.5 725.5,435.5 727.5,435.5C 727.5,434.167 727.5,432.833 727.5,431.5C 726.167,431.5 724.833,431.5 723.5,431.5C 723.5,420.833 723.5,410.167 723.5,399.5C 722.167,399.5 720.833,399.5 719.5,399.5C 719.5,396.833 719.5,394.167 719.5,391.5C 720.5,391.5 721.5,391.5 722.5,391.5C 723.161,364.855 723.161,338.188 722.5,311.5C 723.5,311.5 724.5,311.5 725.5,311.5C 725.511,303.439 726.177,295.439 727.5,287.5C 729.604,287.799 731.604,287.466 733.5,286.5C 732.833,285.833 732.167,285.167 731.5,284.5C 732.817,282.124 732.15,280.457 729.5,279.5C 728.261,279.942 727.261,280.609 726.5,281.5C 726.681,276.935 728.014,272.769 730.5,269C 730.333,268.5 730.167,268 730,267.5C 729.583,268.756 728.75,269.423 727.5,269.5C 732.646,259.686 740.646,253.686 751.5,251.5 Z"/></g>
<g><path style="opacity:1" fill="#f3b55c" d="M 787.5,259.5 C 794.245,264.083 799.412,270.083 803,277.5C 804.333,281.5 805.667,285.5 807,289.5C 809.418,306.709 810.085,324.042 809,341.5C 806.929,361.124 803.762,380.457 799.5,399.5C 799.657,398.127 799.49,396.793 799,395.5C 795.034,391.002 793.201,385.668 793.5,379.5C 793.664,364.861 794.331,350.194 795.5,335.5C 794.634,319.512 794.3,303.512 794.5,287.5C 793.167,287.5 791.833,287.5 790.5,287.5C 790.212,281.771 790.546,276.104 791.5,270.5C 790.675,269.614 789.675,269.281 788.5,269.5C 788.5,268.167 788.5,266.833 788.5,265.5C 782.597,264.005 782.264,262.005 787.5,259.5 Z"/></g>
<g><path style="opacity:1" fill="#d9804e" d="M 726.5,281.5 C 722.74,288.428 719.74,295.761 717.5,303.5C 709.57,329.888 702.903,356.555 697.5,383.5C 688.382,421.408 681.715,460.075 677.5,499.5C 669.111,508.22 660.778,516.886 652.5,525.5C 647.421,529.037 642.754,533.037 638.5,537.5C 637.102,539.109 635.435,539.942 633.5,540C 630.36,536.86 627.194,533.694 624,530.5C 623.517,529.552 623.351,528.552 623.5,527.5C 622.448,527.649 621.448,527.483 620.5,527C 617,522.167 612.833,518 608,514.5C 607.517,513.552 607.351,512.552 607.5,511.5C 601.63,508.141 596.464,503.808 592,498.5C 591.517,497.552 591.351,496.552 591.5,495.5C 589.567,495.271 587.9,494.438 586.5,493C 583.376,489.175 579.876,485.675 576,482.5C 575.517,481.552 575.351,480.552 575.5,479.5C 574.325,479.719 573.325,479.386 572.5,478.5C 563.708,468.516 554.208,459.183 544,450.5C 543.517,449.552 543.351,448.552 543.5,447.5C 541.567,447.271 539.9,446.438 538.5,445C 536.489,442.098 534.156,439.598 531.5,437.5C 531.461,436.417 531.127,435.417 530.5,434.5C 532.512,432.659 534.845,431.659 537.5,431.5C 537.5,426.167 537.5,420.833 537.5,415.5C 536.167,415.5 534.833,415.5 533.5,415.5C 534.207,408.801 533.207,402.468 530.5,396.5C 529.675,395.614 528.675,395.281 527.5,395.5C 527.5,394.167 527.5,392.833 527.5,391.5C 528.675,391.281 529.675,391.614 530.5,392.5C 532.192,394.749 534.192,396.749 536.5,398.5C 537.689,399.429 539.022,399.762 540.5,399.5C 540.5,397.5 540.5,395.5 540.5,393.5C 543.358,396.066 546.691,398.066 550.5,399.5C 554.803,402.634 558.97,405.967 563,409.5C 602.265,388.427 638.099,362.427 670.5,331.5C 690.258,311.413 709.258,290.747 727.5,269.5C 728.75,269.423 729.583,268.756 730,267.5C 730.167,268 730.333,268.5 730.5,269C 728.014,272.769 726.681,276.935 726.5,281.5 Z"/></g>
<g><path style="opacity:1" fill="#eda558" d="M 729.5,441.5 C 729.291,442.922 728.791,444.255 728,445.5C 722.961,450.537 718.294,455.871 714,461.5C 713.184,462.823 712.017,463.489 710.5,463.5C 709.993,462.141 708.993,461.141 707.5,460.5C 706.691,458.929 706.357,457.262 706.5,455.5C 705.5,455.5 704.5,455.5 703.5,455.5C 703.579,453.334 704.246,451.334 705.5,449.5C 703.687,443.658 703.02,437.658 703.5,431.5C 701.5,431.5 699.5,431.5 697.5,431.5C 696.984,423.526 696.151,423.526 695,431.5C 694.509,426.09 695.009,420.757 696.5,415.5C 698.129,419.746 700.129,423.746 702.5,427.5C 702.833,425.5 703.167,423.5 703.5,421.5C 701.841,414.203 700.507,406.869 699.5,399.5C 698.5,399.5 697.5,399.5 696.5,399.5C 697.275,394.203 697.608,388.87 697.5,383.5C 702.903,356.555 709.57,329.888 717.5,303.5C 719.74,295.761 722.74,288.428 726.5,281.5C 727.261,280.609 728.261,279.942 729.5,279.5C 732.15,280.457 732.817,282.124 731.5,284.5C 732.167,285.167 732.833,285.833 733.5,286.5C 731.604,287.466 729.604,287.799 727.5,287.5C 726.177,295.439 725.511,303.439 725.5,311.5C 724.5,311.5 723.5,311.5 722.5,311.5C 723.161,338.188 723.161,364.855 722.5,391.5C 721.5,391.5 720.5,391.5 719.5,391.5C 719.5,394.167 719.5,396.833 719.5,399.5C 720.833,399.5 722.167,399.5 723.5,399.5C 723.5,410.167 723.5,420.833 723.5,431.5C 724.833,431.5 726.167,431.5 727.5,431.5C 727.5,432.833 727.5,434.167 727.5,435.5C 725.5,435.5 723.5,435.5 721.5,435.5C 721.5,437.5 721.5,439.5 721.5,441.5C 722.833,441.5 724.167,441.5 725.5,441.5C 725.5,440.167 725.5,438.833 725.5,437.5C 726.833,437.5 728.167,437.5 729.5,437.5C 729.5,438.833 729.5,440.167 729.5,441.5 Z"/></g>
<g><path style="opacity:1" fill="#fbecdb" d="M 524.5,374.5 C 522.745,373.928 521.078,373.094 519.5,372C 510.397,369.874 502.397,371.708 495.5,377.5C 495.539,376.417 495.873,375.417 496.5,374.5C 498.806,372.907 501.139,371.407 503.5,370C 509.5,369.333 515.5,369.333 521.5,370C 521.167,370.333 520.833,370.667 520.5,371C 522.55,371.416 523.884,372.583 524.5,374.5 Z"/></g>
<g><path style="opacity:1" fill="#d88250" d="M 524.5,374.5 C 533.14,382.806 541.807,391.139 550.5,399.5C 546.691,398.066 543.358,396.066 540.5,393.5C 540.5,395.5 540.5,397.5 540.5,399.5C 539.022,399.762 537.689,399.429 536.5,398.5C 534.192,396.749 532.192,394.749 530.5,392.5C 529.675,391.614 528.675,391.281 527.5,391.5C 527.5,392.833 527.5,394.167 527.5,395.5C 528.675,395.281 529.675,395.614 530.5,396.5C 533.207,402.468 534.207,408.801 533.5,415.5C 534.833,415.5 536.167,415.5 537.5,415.5C 537.5,420.833 537.5,426.167 537.5,431.5C 534.845,431.659 532.512,432.659 530.5,434.5C 531.127,435.417 531.461,436.417 531.5,437.5C 528.853,435.189 526.186,432.856 523.5,430.5C 522.148,431.524 520.815,432.524 519.5,433.5C 519.538,430.556 519.538,427.556 519.5,424.5C 522.22,424.265 524.886,423.932 527.5,423.5C 527.5,421.5 527.5,419.5 527.5,417.5C 522.246,418.683 516.912,419.35 511.5,419.5C 511.5,418.167 511.5,416.833 511.5,415.5C 506.167,415.5 500.833,415.5 495.5,415.5C 494.574,409.535 493.908,403.535 493.5,397.5C 489.5,397.5 487.5,395.5 487.5,391.5C 490.535,391.521 492.868,392.854 494.5,395.5C 495.833,394.167 495.833,392.833 494.5,391.5C 492.708,389.861 490.708,388.528 488.5,387.5C 485.723,389.964 482.723,391.964 479.5,393.5C 484.575,387.758 489.908,382.425 495.5,377.5C 502.397,371.708 510.397,369.874 519.5,372C 521.078,373.094 522.745,373.928 524.5,374.5 Z"/></g>
<g><path style="opacity:1" fill="#d9804d" d="M 519.5,433.5 C 508.445,444.384 497.111,455.217 485.5,466C 474.338,472.893 463.005,473.227 451.5,467C 440.014,457.568 436.681,445.735 441.5,431.5C 453.167,417.833 465.833,405.167 479.5,393.5C 482.723,391.964 485.723,389.964 488.5,387.5C 490.708,388.528 492.708,389.861 494.5,391.5C 495.833,392.833 495.833,394.167 494.5,395.5C 492.868,392.854 490.535,391.521 487.5,391.5C 487.5,395.5 489.5,397.5 493.5,397.5C 493.908,403.535 494.574,409.535 495.5,415.5C 500.833,415.5 506.167,415.5 511.5,415.5C 511.5,416.833 511.5,418.167 511.5,419.5C 516.912,419.35 522.246,418.683 527.5,417.5C 527.5,419.5 527.5,421.5 527.5,423.5C 524.886,423.932 522.22,424.265 519.5,424.5C 519.538,427.556 519.538,430.556 519.5,433.5 Z"/></g>
<g><path style="opacity:1" fill="#e7c485" d="M 799.5,403.5 C 798.492,407.596 797.492,411.596 796.5,415.5C 795.886,410.968 796.886,406.968 799.5,403.5 Z"/></g>
<g><path style="opacity:1" fill="#eca257" d="M 697.5,383.5 C 697.608,388.87 697.275,394.203 696.5,399.5C 697.5,399.5 698.5,399.5 699.5,399.5C 700.507,406.869 701.841,414.203 703.5,421.5C 703.167,423.5 702.833,425.5 702.5,427.5C 700.129,423.746 698.129,419.746 696.5,415.5C 695.009,420.757 694.509,426.09 695,431.5C 696.151,423.526 696.984,423.526 697.5,431.5C 699.5,431.5 701.5,431.5 703.5,431.5C 703.02,437.658 703.687,443.658 705.5,449.5C 704.246,451.334 703.579,453.334 703.5,455.5C 704.5,455.5 705.5,455.5 706.5,455.5C 706.357,457.262 706.691,458.929 707.5,460.5C 708.993,461.141 709.993,462.141 710.5,463.5C 704.408,471.763 697.742,479.597 690.5,487C 689.552,487.483 688.552,487.649 687.5,487.5C 687.649,488.552 687.483,489.552 687,490.5C 683.855,493.632 680.688,496.632 677.5,499.5C 681.715,460.075 688.382,421.408 697.5,383.5 Z"/></g>
<g><path style="opacity:1" fill="#fad7a7" d="M 741.5,431.5 C 740.833,431.5 740.167,431.5 739.5,431.5C 742.466,426.894 745.799,423.228 749.5,420.5C 747.55,424.769 744.883,428.436 741.5,431.5 Z"/></g>
<g><path style="opacity:1" fill="#f8dfc2" d="M 788.5,447.5 C 789.114,452.032 788.114,456.032 785.5,459.5C 786.508,455.404 787.508,451.404 788.5,447.5 Z"/></g>
<g><path style="opacity:1" fill="#faf8f5" d="M 435.5,419.5 C 436.5,419.5 437.5,419.5 438.5,419.5C 438.519,426.149 437.185,432.815 434.5,439.5C 433.337,444.802 433.171,450.136 434,455.5C 435.791,457.513 437.125,457.513 438,455.5C 438.333,448.833 438.667,442.167 439,435.5C 439.122,433.563 439.955,432.23 441.5,431.5C 436.681,445.735 440.014,457.568 451.5,467C 463.005,473.227 474.338,472.893 485.5,466C 497.111,455.217 508.445,444.384 519.5,433.5C 520.815,432.524 522.148,431.524 523.5,430.5C 526.186,432.856 528.853,435.189 531.5,437.5C 534.156,439.598 536.489,442.098 538.5,445C 539.9,446.438 541.567,447.271 543.5,447.5C 543.351,448.552 543.517,449.552 544,450.5C 554.208,459.183 563.708,468.516 572.5,478.5C 573.325,479.386 574.325,479.719 575.5,479.5C 575.351,480.552 575.517,481.552 576,482.5C 579.876,485.675 583.376,489.175 586.5,493C 587.9,494.438 589.567,495.271 591.5,495.5C 591.351,496.552 591.517,497.552 592,498.5C 596.464,503.808 601.63,508.141 607.5,511.5C 607.351,512.552 607.517,513.552 608,514.5C 612.833,518 617,522.167 620.5,527C 621.448,527.483 622.448,527.649 623.5,527.5C 623.351,528.552 623.517,529.552 624,530.5C 627.194,533.694 630.36,536.86 633.5,540C 635.435,539.942 637.102,539.109 638.5,537.5C 638.461,538.583 638.127,539.583 637.5,540.5C 635.5,541.5 633.5,542.5 631.5,543.5C 629.109,542.809 629.109,541.809 631.5,540.5C 630.833,540.167 630.167,539.833 629.5,539.5C 627.377,541.31 625.043,542.643 622.5,543.5C 622.5,544.5 622.5,545.5 622.5,546.5C 589.452,513.286 556.619,479.953 524,446.5C 514.53,454.969 505.363,463.803 496.5,473C 490.66,477.92 483.993,481.253 476.5,483C 450.612,486.418 434.446,475.585 428,450.5C 425.716,438.881 428.216,428.548 435.5,419.5 Z"/></g>
<g><path style="opacity:1" fill="#fbfaf7" d="M 739.5,431.5 C 740.167,431.5 740.833,431.5 741.5,431.5C 735.504,442.158 729.504,452.824 723.5,463.5C 711.829,480.832 701.162,498.832 691.5,517.5C 687.069,524.706 682.403,531.706 677.5,538.5C 677.5,536.833 677.5,535.167 677.5,533.5C 676.167,533.5 674.833,533.5 673.5,533.5C 674.384,528.281 672.218,525.614 667,525.5C 664.391,525.375 662.058,526.042 660,527.5C 656.912,525.885 657.412,525.218 661.5,525.5C 661.5,524.167 661.5,522.833 661.5,521.5C 659.712,521.215 658.045,521.548 656.5,522.5C 655.923,524.55 654.59,525.55 652.5,525.5C 660.778,516.886 669.111,508.22 677.5,499.5C 680.688,496.632 683.855,493.632 687,490.5C 687.483,489.552 687.649,488.552 687.5,487.5C 688.552,487.649 689.552,487.483 690.5,487C 697.742,479.597 704.408,471.763 710.5,463.5C 712.017,463.489 713.184,462.823 714,461.5C 718.294,455.871 722.961,450.537 728,445.5C 728.791,444.255 729.291,442.922 729.5,441.5C 733.479,438.855 736.812,435.521 739.5,431.5 Z"/></g>
<g><path style="opacity:1" fill="#eda659" d="M 723.5,463.5 C 723.456,465.859 723.79,468.359 724.5,471C 728.152,471.499 731.818,471.665 735.5,471.5C 735.5,472.833 735.5,474.167 735.5,475.5C 732.753,475.187 730.086,475.52 727.5,476.5C 726.625,478.773 724.958,479.773 722.5,479.5C 722.5,484.833 722.5,490.167 722.5,495.5C 721.5,495.5 720.5,495.5 719.5,495.5C 719.5,500.833 719.5,506.167 719.5,511.5C 720.833,511.5 722.167,511.5 723.5,511.5C 723.5,516.833 723.5,522.167 723.5,527.5C 724.833,527.5 726.167,527.5 727.5,527.5C 727.5,532.833 727.5,538.167 727.5,543.5C 729.167,543.5 730.833,543.5 732.5,543.5C 732.383,562.51 732.216,581.51 732,600.5C 733.124,594.978 733.958,589.311 734.5,583.5C 736.876,585.627 737.876,588.293 737.5,591.5C 738.5,591.5 739.5,591.5 740.5,591.5C 734.729,608.049 727.562,624.049 719,639.5C 711.94,644.349 704.107,647.016 695.5,647.5C 689.871,646.101 684.205,644.935 678.5,644C 686.794,642.588 695.127,641.422 703.5,640.5C 701.542,627.011 700.876,613.344 701.5,599.5C 700.5,599.5 699.5,599.5 698.5,599.5C 698.5,583.5 698.5,567.5 698.5,551.5C 699.5,551.5 700.5,551.5 701.5,551.5C 701.5,548.833 701.5,546.167 701.5,543.5C 700.5,543.5 699.5,543.5 698.5,543.5C 698.666,538.156 698.499,532.823 698,527.5C 696.443,524.334 695.61,521 695.5,517.5C 694.167,517.5 692.833,517.5 691.5,517.5C 701.162,498.832 711.829,480.832 723.5,463.5 Z"/></g>
<g><path style="opacity:1" fill="#ea9f56" d="M 691.5,517.5 C 692.833,517.5 694.167,517.5 695.5,517.5C 695.61,521 696.443,524.334 698,527.5C 698.499,532.823 698.666,538.156 698.5,543.5C 699.5,543.5 700.5,543.5 701.5,543.5C 701.5,546.167 701.5,548.833 701.5,551.5C 700.5,551.5 699.5,551.5 698.5,551.5C 698.5,567.5 698.5,583.5 698.5,599.5C 699.5,599.5 700.5,599.5 701.5,599.5C 700.876,613.344 701.542,627.011 703.5,640.5C 695.127,641.422 686.794,642.588 678.5,644C 684.205,644.935 689.871,646.101 695.5,647.5C 670.075,651.363 653.242,640.696 645,615.5C 644.333,609.5 644.333,603.5 645,597.5C 655.35,577.458 666.184,557.791 677.5,538.5C 682.403,531.706 687.069,524.706 691.5,517.5 Z"/></g>
<g><path style="opacity:1" fill="#f9f8f5" d="M 510.5,613.5 C 509.504,613.414 508.671,613.748 508,614.5C 506.907,612.651 505.574,610.984 504,609.5C 503.869,612.371 502.703,614.705 500.5,616.5C 502.213,617.878 503.547,619.545 504.5,621.5C 504.457,622.416 504.124,623.083 503.5,623.5C 501.417,619.33 498.417,615.996 494.5,613.5C 484.401,607.252 475.401,608.586 467.5,617.5C 465.656,619.195 464.323,621.195 463.5,623.5C 462.191,620.549 459.857,619.216 456.5,619.5C 457.832,617.179 459.832,615.513 462.5,614.5C 467.169,607.523 468.502,599.856 466.5,591.5C 463.153,585.317 458.153,581.15 451.5,579C 447.129,578.371 442.796,578.537 438.5,579.5C 436.801,579.66 435.134,579.494 433.5,579C 433.833,578.667 434.167,578.333 434.5,578C 432.881,577.764 431.881,576.931 431.5,575.5C 434.436,561.865 429.436,552.698 416.5,548C 405.975,546.764 397.975,550.597 392.5,559.5C 392.5,557.5 392.5,555.5 392.5,553.5C 393.5,553.5 394.5,553.5 395.5,553.5C 395.833,550.833 396.167,548.167 396.5,545.5C 394.876,545.36 393.71,546.027 393,547.5C 391.599,545.808 389.766,545.141 387.5,545.5C 387.5,543.833 387.5,542.167 387.5,540.5C 388.915,541.289 390.415,541.956 392,542.5C 401.687,536.292 412.187,534.792 423.5,538C 435.859,543.523 442.526,553.023 443.5,566.5C 447.915,566.305 452.249,566.805 456.5,568C 470.539,572.929 478.205,582.762 479.5,597.5C 482.85,597.335 486.183,597.502 489.5,598C 497.922,601.214 504.922,606.381 510.5,613.5 Z"/></g>
<g><path style="opacity:1" fill="#e6d6d1" d="M 598.5,576.5 C 597.308,577.566 597.641,578.399 599.5,579C 598.584,579.278 597.918,579.778 597.5,580.5C 586.62,567.279 574.953,554.612 562.5,542.5C 562.667,542.167 562.833,541.833 563,541.5C 574.728,553.396 586.562,565.063 598.5,576.5 Z"/></g>
<g><path style="opacity:1" fill="#f1af59" d="M 431.5,575.5 C 429.837,577.493 428.67,579.826 428,582.5C 424.71,584.907 421.543,587.241 418.5,589.5C 413.821,589.666 409.155,589.499 404.5,589C 400.726,586.559 397.06,584.059 393.5,581.5C 392.089,576.982 391.423,572.316 391.5,567.5C 391.503,564.645 391.836,561.978 392.5,559.5C 397.975,550.597 405.975,546.764 416.5,548C 429.436,552.698 434.436,561.865 431.5,575.5 Z"/></g>
<g><path style="opacity:1" fill="#bfaca5" d="M 532.5,575.5 C 531.833,575.5 531.5,575.833 531.5,576.5C 526.734,571.838 522.067,567.004 517.5,562C 523.158,565.477 528.158,569.977 532.5,575.5 Z"/></g>
<g><path style="opacity:1" fill="#492e29" d="M 350.5,646.5 C 335.5,651.444 321.167,649.944 307.5,642C 305.667,640.833 304.167,639.333 303,637.5C 266.654,560.116 239.987,479.45 223,395.5C 219.843,378.24 217.176,360.907 215,343.5C 214.333,328.833 214.333,314.167 215,299.5C 216.103,289.354 219.27,280.021 224.5,271.5C 229.011,271.891 233.345,271.225 237.5,269.5C 243.47,270.248 249.47,270.748 255.5,271C 249.175,271.5 242.842,271.666 236.5,271.5C 236.5,274.167 236.5,276.833 236.5,279.5C 235.5,279.5 234.5,279.5 233.5,279.5C 233.828,284.875 233.495,290.208 232.5,295.5C 231.52,292.914 231.187,290.247 231.5,287.5C 230.5,287.5 229.5,287.5 228.5,287.5C 228.5,292.833 228.5,298.167 228.5,303.5C 227.5,303.5 226.5,303.5 225.5,303.5C 225.5,319.5 225.5,335.5 225.5,351.5C 226.5,351.5 227.5,351.5 228.5,351.5C 228.5,354.167 228.5,356.833 228.5,359.5C 232.167,359.5 235.833,359.5 239.5,359.5C 239.5,362.167 239.5,364.833 239.5,367.5C 236.833,367.5 234.167,367.5 231.5,367.5C 231.5,372.833 231.5,378.167 231.5,383.5C 234.167,383.5 236.833,383.5 239.5,383.5C 239.5,388.833 239.5,394.167 239.5,399.5C 244.833,399.5 250.167,399.5 255.5,399.5C 255.169,391.472 255.502,383.472 256.5,375.5C 257.495,380.792 257.828,386.125 257.5,391.5C 258.5,391.5 259.5,391.5 260.5,391.5C 260.5,396.833 260.5,402.167 260.5,407.5C 261.5,407.5 262.5,407.5 263.5,407.5C 263.187,404.753 263.52,402.086 264.5,399.5C 265.495,404.792 265.828,410.125 265.5,415.5C 263.833,415.5 262.167,415.5 260.5,415.5C 260.5,418.167 260.5,420.833 260.5,423.5C 261.5,423.5 262.5,423.5 263.5,423.5C 263.5,426.167 263.5,428.833 263.5,431.5C 262.5,431.5 261.5,431.5 260.5,431.5C 260.5,434.167 260.5,436.833 260.5,439.5C 257.833,439.5 255.167,439.5 252.5,439.5C 252.333,452.171 252.5,464.838 253,477.5C 253.192,475.423 253.692,473.423 254.5,471.5C 255.491,475.445 255.824,479.445 255.5,483.5C 254.325,483.281 253.325,483.614 252.5,484.5C 253.928,487.35 253.261,488.35 250.5,487.5C 249.447,488.438 248.78,489.605 248.5,491C 249.262,494.528 250.929,496.695 253.5,497.5C 252.391,499.214 253.058,499.881 255.5,499.5C 255.5,498.167 255.5,496.833 255.5,495.5C 261.5,495.5 267.5,495.5 273.5,495.5C 273.5,498.167 273.5,500.833 273.5,503.5C 274.5,503.5 275.5,503.5 276.5,503.5C 276.5,506.167 276.5,508.833 276.5,511.5C 273.428,511.183 270.428,511.516 267.5,512.5C 268.5,513.5 269.5,514.5 270.5,515.5C 271.491,519.445 271.824,523.445 271.5,527.5C 274.167,527.5 276.833,527.5 279.5,527.5C 279.5,532.833 279.5,538.167 279.5,543.5C 287.5,543.5 295.5,543.5 303.5,543.5C 303.5,538.167 303.5,532.833 303.5,527.5C 306.167,527.5 308.833,527.5 311.5,527.5C 311.5,532.833 311.5,538.167 311.5,543.5C 313.167,543.5 314.833,543.5 316.5,543.5C 316.5,546.167 316.5,548.833 316.5,551.5C 309.5,551.5 302.5,551.5 295.5,551.5C 295.5,554.167 295.5,556.833 295.5,559.5C 291.833,559.5 288.167,559.5 284.5,559.5C 284.5,562.167 284.5,564.833 284.5,567.5C 285.5,567.5 286.5,567.5 287.5,567.5C 287.5,575.5 287.5,583.5 287.5,591.5C 292.167,591.5 296.833,591.5 301.5,591.5C 302.167,570.167 302.833,570.167 303.5,591.5C 306.167,591.5 308.833,591.5 311.5,591.5C 311.172,586.125 311.505,580.792 312.5,575.5C 313.48,578.086 313.813,580.753 313.5,583.5C 314.5,583.5 315.5,583.5 316.5,583.5C 316.5,586.167 316.5,588.833 316.5,591.5C 317.5,591.5 318.5,591.5 319.5,591.5C 319.5,596.833 319.5,602.167 319.5,607.5C 321.167,607.5 322.833,607.5 324.5,607.5C 324.5,612.833 324.5,618.167 324.5,623.5C 325.5,623.5 326.5,623.5 327.5,623.5C 327.5,626.167 327.5,628.833 327.5,631.5C 330.167,631.5 332.833,631.5 335.5,631.5C 335.351,632.552 335.517,633.552 336,634.5C 338.644,636.31 341.144,638.31 343.5,640.5C 336.678,641.507 330.011,642.007 323.5,642C 325.481,642.605 325.815,643.605 324.5,645C 331.189,647.927 338.022,648.093 345,645.5C 347.033,645.506 348.866,645.839 350.5,646.5 Z"/></g>
<g><path style="opacity:1" fill="#fbf4e6" d="M 431.5,575.5 C 431.881,576.931 432.881,577.764 434.5,578C 434.167,578.333 433.833,578.667 433.5,579C 435.134,579.494 436.801,579.66 438.5,579.5C 436.408,581.124 434.241,582.791 432,584.5C 431.517,585.448 431.351,586.448 431.5,587.5C 428.95,587.561 427.45,588.894 427,591.5C 425.576,599.31 426.743,606.643 430.5,613.5C 427.355,612.923 425.855,610.923 426,607.5C 425.501,602.177 425.334,596.844 425.5,591.5C 422.402,591.587 422.068,591.087 424.5,590C 422.527,589.505 420.527,589.338 418.5,589.5C 421.543,587.241 424.71,584.907 428,582.5C 428.67,579.826 429.837,577.493 431.5,575.5 Z"/></g>
<g><path style="opacity:1" fill="#f0af5d" d="M 456.5,619.5 C 446.555,622.852 437.889,620.852 430.5,613.5C 426.743,606.643 425.576,599.31 427,591.5C 427.45,588.894 428.95,587.561 431.5,587.5C 431.351,586.448 431.517,585.448 432,584.5C 434.241,582.791 436.408,581.124 438.5,579.5C 442.796,578.537 447.129,578.371 451.5,579C 458.153,581.15 463.153,585.317 466.5,591.5C 468.502,599.856 467.169,607.523 462.5,614.5C 459.832,615.513 457.832,617.179 456.5,619.5 Z"/></g>
<g><path style="opacity:1" fill="#f1e8e4" d="M 532.5,575.5 C 543.5,585.833 554.167,596.5 564.5,607.5C 562.585,607.216 560.919,607.549 559.5,608.5C 550.568,597.563 541.235,586.896 531.5,576.5C 531.5,575.833 531.833,575.5 532.5,575.5 Z"/></g>
<g><path style="opacity:1" fill="#d28b67" d="M 494.5,613.5 C 490.817,613.053 487.15,612.387 483.5,611.5C 477.931,612.954 472.598,614.954 467.5,617.5C 475.401,608.586 484.401,607.252 494.5,613.5 Z"/></g>
<g><path style="opacity:1" fill="#db824f" d="M 494.5,613.5 C 498.417,615.996 501.417,619.33 503.5,623.5C 505.155,644.013 495.822,653.179 475.5,651C 464.327,645.141 460.327,635.974 463.5,623.5C 464.323,621.195 465.656,619.195 467.5,617.5C 472.598,614.954 477.931,612.954 483.5,611.5C 487.15,612.387 490.817,613.053 494.5,613.5 Z"/></g>
</svg>
