<svg
                  width="150.754272px"
                  height="40px"
                  viewBox="0 0 150.754272 40"
                  version="1.1"
                  xmlns="http://www.w3.org/2000/svg"
                  xmlns:xlink="http://www.w3.org/1999/xlink"
                >
                  <g
                    stroke="none"
                    stroke-width="1"
                    fill="none"
                    fill-rule="evenodd"
                  >
                    <g
                      transform="translate(-91.000000, -21.000000)"
                      fill-rule="nonzero"
                    >
                      <g transform="translate(91.000000, 21.000000)">
                        <g
                          class="same-color"
                          transform="translate(24.982767, 23.386424)"
                          fill="#222222"
                        >
                          <path
                            d="M6.04578602,10.2209484 L3.64546675,10.2209484 L3.64546675,16.3813808 L0,16.3813808 L0,0.229292893 L5.95290788,0.229292893 C9.34441099,0.229292893 12.1829989,1.72840402 12.1829989,5.21278526 C12.1829989,8.69716649 9.48372819,10.2194972 6.04578602,10.2194972 L6.04578602,10.2209484 Z M5.86148097,3.29862497 L3.64691797,3.29862497 L3.64691797,7.17483583 L5.8847005,7.17483583 C7.13129921,7.17483583 8.39966622,6.75978667 8.39966622,5.21423648 C8.39966622,3.66868628 7.22272612,3.29862497 5.86148097,3.29862497 L5.86148097,3.29862497 Z"
                          ></path>
                          <path
                            d="M11.6750717,16.3813808 L18.688822,0.161085513 L21.8728005,0.161085513 L28.8647825,16.3813808 L24.918913,16.3813808 L23.5576679,13.0580851 L16.8893081,13.0580851 L15.528063,16.3813808 L11.6750717,16.3813808 L11.6750717,16.3813808 Z M18.1126873,10.0584116 L22.3357399,10.0584116 L20.2590429,4.8673947 L20.2126039,4.8673947 L18.1126873,10.0584116 Z"
                          ></path>
                          <path
                            d="M36.964046,10.2209484 L34.5637267,10.2209484 L34.5637267,16.3813808 L30.91826,16.3813808 L30.91826,0.229292893 L36.8711679,0.229292893 C40.262671,0.229292893 43.1012589,1.72840402 43.1012589,5.21278526 C43.1012589,8.69716649 40.4019882,10.2194972 36.964046,10.2194972 L36.964046,10.2209484 Z M36.779741,3.29862497 L34.565178,3.29862497 L34.565178,7.17483583 L36.8029605,7.17483583 C38.0495592,7.17483583 39.3179262,6.75978667 39.3179262,5.21423648 C39.3179262,3.66868628 38.1409861,3.29862497 36.779741,3.29862497 L36.779741,3.29862497 Z"
                          ></path>
                          <path
                            d="M57.7992236,3.50614955 C56.599064,2.44530711 55.2145993,1.75307477 52.9768167,1.75307477 C49.515655,1.75307477 47.1385553,4.72952872 47.1385553,8.30678809 C47.1385553,12.0683525 49.4227769,14.8590502 53.2075609,14.8590502 C55.0302942,14.8590502 56.461198,14.3975619 57.4988209,13.7749882 L57.4988209,9.32119145 L53.4832928,9.32119145 L53.4832928,7.59133621 L59.4362007,7.59133621 L59.4362007,14.7908428 C57.6831259,15.9213438 55.8603926,16.6135762 53.136451,16.6135762 C48.0600805,16.6135762 45.1300657,12.9681094 45.1300657,8.30678809 C45.1300657,3.64546675 48.1761782,0 53.0450241,0 C55.7675144,0 57.4523818,0.785110474 59.0675906,2.16957516 L57.7992236,3.50760077 L57.7992236,3.50614955 Z"
                          ></path>
                          <path
                            d="M68.7124043,9.52871603 L65.6198527,9.52871603 L65.6198527,16.3813808 L63.6810217,16.3813808 L63.6810217,0.229292893 L68.9184777,0.229292893 C72.5407249,0.229292893 74.6870805,1.82128215 74.6870805,4.89061423 C74.6870805,7.49845808 73.0486522,8.88292276 70.7179915,9.36763052 L75.1021297,16.3813808 L72.955774,16.3813808 L68.7095019,9.52871603 L68.7124043,9.52871603 Z M68.7820629,1.96059935 L65.6213039,1.96059935 L65.6213039,7.82208033 L68.8052824,7.82208033 C71.3434677,7.82208033 72.6582738,6.82944527 72.6582738,4.86884592 C72.6582738,2.67605123 71.089504,1.96205058 68.7820629,1.96205058 L68.7820629,1.96059935 Z"
                          ></path>
                          <path
                            d="M77.7346443,8.30678809 C77.7346443,3.8297718 81.0797083,7.10542736e-15 86.0646519,7.10542736e-15 C91.0495955,7.10542736e-15 94.3482204,3.78478395 94.3482204,8.30678809 C94.3482204,12.8287922 91.0031564,16.6135762 86.0182128,16.6135762 C81.0332692,16.6135762 77.7346443,12.8287922 77.7346443,8.30678809 Z M92.3397308,8.30678809 C92.3397308,4.73097994 89.6636796,1.79951384 86.0182128,1.79951384 C82.3727461,1.79951384 79.7416827,4.68308965 79.7416827,8.30678809 C79.7416827,11.9304865 82.4177339,14.8140623 86.0632007,14.8140623 C89.7086674,14.8140623 92.3397308,11.9290353 92.3397308,8.30678809 L92.3397308,8.30678809 Z"
                          ></path>
                          <path
                            d="M110.475638,9.5751551 C110.475638,14.1668178 107.844574,16.612125 104.107681,16.612125 C100.370787,16.612125 97.7397235,14.2118057 97.7397235,9.59837463 L97.7397235,0.230744113 L99.7003229,0.230744113 L99.7003229,9.55193557 C99.7003229,12.8969996 101.338751,14.8126111 104.1309,14.8126111 C106.923049,14.8126111 108.561477,12.8737801 108.561477,9.55193557 L108.561477,0.230744113 L110.477089,0.230744113 L110.477089,9.5751551 L110.475638,9.5751551 Z"
                          ></path>
                          <path
                            d="M119.957915,9.52871603 L116.704277,9.52871603 L116.704277,16.3813808 L114.765446,16.3813808 L114.765446,0.229292893 L120.002902,0.229292893 C123.62515,0.229292893 125.771505,1.82128215 125.771505,4.89061423 C125.771505,7.9599463 123.394406,9.52871603 119.956463,9.52871603 L119.957915,9.52871603 Z M119.865036,1.96059935 L116.704277,1.96059935 L116.704277,7.82208033 L119.888256,7.82208033 C122.426441,7.82208033 123.741247,6.82944527 123.741247,4.86884592 C123.741247,2.67605123 122.172478,1.96205058 119.865036,1.96205058 L119.865036,1.96059935 Z"
                          ></path>
                        </g>
                        <polygon
                          class="same-color"
                          fill="#222222"
                          transform="translate(24.604724, 8.201575) rotate(90.000000) translate(-24.604724, -8.201575) "
                          points="16.4031491 -2.75111517e-14 32.8062983 -2.75111517e-14 32.8062983 16.4031491 16.4031491 16.4031491"
                        ></polygon>
                        <polygon
                          class="same-color"
                          fill="#222222"
                          transform="translate(8.201575, 24.604724) rotate(90.000000) translate(-8.201575, -24.604724) "
                          points="8.54927677e-14 16.4031491 16.4031491 16.4031491 16.4031491 32.8062983 8.54927677e-14 32.8062983"
                        ></polygon>
                        <polygon
                          class="not-same-color"
                          fill="#808080"
                          transform="translate(8.201575, 8.201575) rotate(90.000000) translate(-8.201575, -8.201575) "
                          points="2.02372739e-14 2.20723527e-13 16.4031491 2.20723527e-13 16.4031491 16.4031491 2.02372739e-14 16.4031491"
                        ></polygon>
                      </g>
                    </g>
                  </g>
                </svg>